<?xml version="1.0" encoding="utf-8"?>
<svg id="Capa_1" data-name="Capa 1" viewBox="0 0 635.01 33" xmlns="http://www.w3.org/2000/svg">
  <defs>
    <style>.cls-1{fill:#13322b;}.cls-2{fill:#235b4e;}.cls-3{fill:#d4c19c;}</style>
  </defs>
  <title>pleca plumaje_con fondo</title>
  <rect class="cls-1" x="0.01" width="635" height="35.64" style="" transform="matrix(1, 0, 0, -1, 0, 0)" y="-33.088"/>
  <path class="cls-2" d="M 201.91 30.344 C 202.691 31.375 203.595 32.308 204.6 33.106 L 201.43 33.106 L 200.26 31.375 C 200.161 31.087 200.231 30.756 200.44 30.536 C 200.679 30.207 201.055 30.042 201.44 30.068 L 201.91 30.344 Z M 230.11 28.999 L 230.35 28.807 C 231.403 30.248 232.427 31.691 233.42 33.106 L 231.05 33.106 C 230.58 32.173 230.06 31.25 229.58 30.315 C 229.567 29.821 229.76 29.342 230.11 28.999 Z M 210.63 14.857 L 210.59 14.816 C 211.694 14.9 212.702 14.145 213.01 13.016 C 213.239 12.33 213.239 11.575 213.01 10.887 C 213.767 10.558 214.441 10.035 214.98 9.376 C 214.834 11.642 215.106 13.91 215.78 16.066 C 216.11 17.495 215.97 18.61 215.35 19.257 C 214.859 19.736 214.177 19.914 213.53 19.751 C 211.84 19.516 209.63 17.895 208.45 14.831 C 208.313 14.363 208.313 13.855 208.45 13.387 C 208.995 14.13 209.766 14.651 210.63 14.857 Z M 222.84 9.843 L 222.8 9.802 C 220.93 8.028 219.33 6.503 218.27 5.405 C 218.014 5.089 217.866 4.691 217.85 4.278 L 219.53 4.278 C 225.74 9.486 230.08 14.253 233.08 19.144 C 233.75 21.249 232.17 25.33 229.4 27.045 C 228.902 27.239 228.36 27.282 227.84 27.157 C 226.571 26.635 225.42 25.836 224.46 24.805 L 223.89 24.299 C 221.836 22.386 219.948 20.271 218.25 17.991 C 217.576 17.001 217.342 15.751 217.61 14.569 L 217.72 14.569 L 217.9 14.735 L 226.01 22.484 C 226.429 22.897 226.938 23.184 227.49 23.321 C 228.327 23.515 229.195 23.225 229.78 22.566 C 230.702 21.523 231.01 20.024 230.58 18.677 C 230.16 16.78 226.44 13.251 222.84 9.843 Z M 214.15 29.274 L 217.99 33.147 L 214.62 33.147 L 213.24 31.526 C 212.939 30.922 213.015 30.193 213.43 29.685 C 213.594 29.438 213.861 29.287 214.15 29.274 Z M 249.9 20.782 L 249.86 20.782 C 251.161 20.712 252.465 20.739 253.76 20.89 C 259.91 20.808 264.9 24.491 268.69 31.938 L 268.98 32.612 L 268.64 32.612 C 267.14 32.365 265.51 30.771 263.84 27.896 C 260.33 23.858 256.03 22.458 250.9 22.582 L 249.9 20.782 Z M 266.01 22.554 C 266.81 22.115 267.01 21.839 267.1 21.261 C 267.12 20.904 267.03 20.369 266.27 19.777 C 263.44 17.634 261.55 18.65 259.96 19.504 C 258.97 19.971 258.45 19.571 258.41 19.504 C 258.37 19.42 258.4 19.159 258.73 18.857 L 259.11 18.65 C 261.97 17.152 264.56 16.658 267.89 19.283 C 268.514 19.777 268.859 20.575 268.81 21.4 C 268.701 22.031 268.304 22.582 267.75 22.842 C 267.276 23.074 266.747 23.158 266.23 23.074 L 266.01 22.554 Z M 216.17 26.083 L 219.41 29.133 C 219.624 29.45 219.624 29.877 219.41 30.207 C 219.169 30.565 218.743 30.728 218.34 30.62 L 218.01 30.481 L 215.37 27.086 L 215.55 26.318 L 216.17 26.083 Z M 262.24 20.204 L 262.24 20.175 C 263.41 19.708 264.21 20.149 264.5 20.837 C 264.62 21.07 264.7 21.468 264.41 21.592 C 264.023 21.7 263.612 21.688 263.24 21.523 C 262.18 21.055 262.02 20.643 262.02 20.614 C 262.02 20.59 262.02 20.451 262.24 20.204 Z M 207.83 27.884 L 207.83 27.855 C 208.511 27.896 209.161 27.553 209.53 26.937 C 210.228 25.865 210.228 24.45 209.53 23.378 L 207.34 20.904 C 206.92 20.396 206.91 19.708 207.34 18.72 L 207.46 18.458 C 208.846 19.971 210.37 21.317 212.01 22.499 L 212.43 22.842 L 212.59 22.925 C 212.899 23.062 213.188 23.254 213.45 23.472 C 213.578 23.817 213.578 24.203 213.45 24.532 C 212.883 26.771 211.945 28.886 210.68 30.771 C 209.999 31.663 208.961 32.157 207.88 32.118 C 206.7 31.938 205.43 30.867 204.01 28.831 C 203.71 28.241 203.56 27.429 205.09 26.455 C 205.5 26.181 205.57 26.153 205.72 26.181 C 205.87 26.196 206.01 26.33 206.15 26.647 C 206.538 27.265 207.14 27.721 207.83 27.884 Z M 233.63 25.947 L 233.76 26.083 C 235.66 28.476 237.44 30.812 239.08 33.135 L 236.46 33.135 C 235.33 31.375 234.17 29.644 233 27.896 C 232.832 27.239 232.965 26.551 233.36 26.016 L 233.63 25.947 Z M 237.16 18.857 L 237.45 19.173 C 240.35 23.501 243.44 28.16 246.35 33.135 L 242.81 33.135 C 240.853 29.397 238.64 25.81 236.19 22.415 C 235.899 21.261 236.145 20.039 236.85 19.104 L 237.16 18.857 Z M 225.92 19.283 L 225.92 19.257 C 223.076 16.727 220.504 13.869 218.25 10.735 C 218.102 10.352 218.053 9.925 218.11 9.527 C 218.11 9.527 227.04 17.111 227.85 19.393 C 227.93 19.557 227.17 19.708 226.55 19.557 L 225.92 19.283 Z M 62.31 33.106 C 59.38 28.611 56.62 23.968 54.07 19.214 C 54.044 18.705 54.232 18.226 54.58 17.881 L 54.81 17.689 C 58.567 22.527 61.945 27.678 64.91 33.106 L 62.31 33.106 Z M 58.06 14.761 L 58.18 14.886 C 63.24 21.108 67.45 26.814 70.61 33.106 L 67.77 33.106 C 64.649 27.417 61.206 21.947 57.46 16.713 C 57.277 16.066 57.396 15.368 57.78 14.831 L 58.06 14.761 Z M 53.19 14.061 C 52.73 14.308 52.211 14.404 51.7 14.337 C 50.442 13.922 49.28 13.251 48.29 12.33 L 47.7 11.889 C 45.589 10.213 43.619 8.345 41.81 6.312 C 41.36 5.693 41.058 4.966 40.93 4.18 L 42.53 4.18 L 49.53 9.925 C 49.962 10.282 50.47 10.517 51.01 10.613 C 51.839 10.764 52.675 10.405 53.19 9.707 C 53.986 8.62 54.162 7.163 53.65 5.899 C 53.393 5.254 53.019 4.674 52.55 4.18 L 54.55 4.18 C 55.09 4.842 55.6 5.501 56.08 6.16 C 56.89 8.141 55.7 12.193 53.19 14.061 Z M 44.01 29.274 L 44.01 29.299 C 45.348 30.469 46.611 31.732 47.79 33.078 L 45.31 33.078 L 44.11 31.514 C 43.754 30.824 43.717 30.001 44.01 29.274 Z M 48.81 27.157 C 49.099 27.21 49.368 27.349 49.59 27.553 C 51.203 29.534 52.627 31.375 53.86 33.106 L 51.45 33.106 C 50.41 31.706 49.3 30.344 48.1 29.011 C 47.768 28.601 47.698 28.009 47.92 27.512 C 48.14 27.239 48.475 27.102 48.81 27.157 Z M 189.57 20.175 C 189.7 19.736 190.047 19.408 190.47 19.324 C 190.882 19.269 191.298 19.269 191.71 19.324 C 192.01 19.379 192.76 19.475 192.59 21.014 C 192.53 21.317 192.38 21.674 191.31 21.535 C 190.972 21.468 190.637 21.4 190.31 21.288 C 189.81 20.959 189.51 20.535 189.57 20.175 Z M 41.69 9.719 L 48.37 16.425 C 50.012 17.744 50.409 20.19 49.28 22.031 C 48.506 23.364 47.425 24.462 46.14 25.218 C 45.684 25.453 45.173 25.549 44.67 25.465 C 44.049 25.342 43.473 25.04 43.01 24.587 L 38.08 19.612 C 37.729 19.089 37.729 18.375 38.08 17.854 C 38.218 17.593 38.463 17.427 38.74 17.401 L 42.87 20.89 C 43.231 21.317 43.718 21.604 44.25 21.7 C 44.976 21.784 45.685 21.427 46.08 20.782 C 46.704 19.777 46.704 18.485 46.08 17.483 C 44.622 15.284 42.945 13.263 41.08 11.452 C 40.78 10.901 40.78 10.213 41.08 9.666 L 41.36 9.527 L 41.69 9.719 Z M 199.77 28.021 L 199.77 28.035 C 197.988 30.097 195.879 31.814 193.54 33.106 L 189.41 33.106 C 189.246 32.226 189.565 31.334 190.23 30.799 C 191.19 30.248 192.06 29.725 192.87 29.191 L 192.41 28.735 L 192.98 29.121 C 199.34 24.863 200.83 20.808 200.98 14.982 L 204.2 14.214 C 204.08 19.873 202.99 24.918 199.77 28.021 Z M 190.5 27.225 L 190.5 27.239 C 190.35 27.21 190.07 27.157 190.13 26.428 C 190.01 24.863 191.01 24.889 193.33 22.801 C 194.203 21.851 194.701 20.59 194.72 19.257 C 194.483 18.597 194.003 18.058 193.39 17.785 L 190.82 16.797 C 190.593 16.562 190.53 16.19 190.66 15.888 C 191.077 15.312 191.769 15.063 192.43 15.229 L 192.97 15.368 C 195.04 15.847 196.35 16.533 196.97 17.593 C 197.511 18.72 197.551 20.051 197.08 21.206 C 196.11 23.764 194.1 25.798 191.01 27.225 L 190.5 27.225 Z M 182.93 20.849 C 183.35 20.918 183.57 21.549 183.52 22.47 C 183.208 26.071 182.596 29.63 181.69 33.106 L 179.69 33.106 C 180.701 29.56 181.371 25.904 181.69 22.223 C 181.742 21.772 181.961 21.345 182.3 21.07 L 182.93 20.849 Z M 82.09 24.436 C 85.271 26.567 88.029 29.342 90.21 32.596 C 90.305 32.763 90.389 32.929 90.46 33.106 L 87.46 33.106 C 86.777 31.046 85.556 29.231 83.94 27.872 L 82.09 24.436 Z M 95.57 32.694 C 95.84 32.557 96.21 32.708 96.59 33.106 L 95.29 33.106 L 95.57 32.694 Z M 61.77 7.932 C 66.94 15.353 72.59 23.789 77.01 33.106 L 73.26 33.106 C 69.41 25.52 65.07 17.029 60.56 11.174 C 60.248 10.035 60.479 8.798 61.18 7.863 L 61.48 7.616 L 61.77 7.932 Z M 256.01 32.984 L 255.54 32.13 C 256.323 32.377 257.083 32.708 257.81 33.106 L 256.19 33.106 L 256.01 32.984 Z M 305.64 19.475 L 305.01 19.655 C 301.265 19.6 297.535 19.132 293.88 18.252 C 293.521 18.087 293.208 17.811 292.97 17.483 C 292.97 17.483 304.36 17.401 306.45 18.542 C 306.64 18.624 306.17 19.187 305.64 19.475 Z M 247.76 17.799 C 250.39 16.631 254.31 16.26 256.4 17.221 L 256.71 17.346 C 256.71 17.442 256.47 17.922 255.71 18.322 C 255.215 18.624 254.64 18.72 254.08 18.624 C 252.81 17.593 250.29 18.156 248.29 18.789 L 247.76 17.799 Z M 311.01 32.241 C 310.892 32.584 310.684 32.888 310.41 33.106 L 302.92 33.106 C 302.576 32.9 302.321 32.557 302.21 32.145 C 302.133 31.938 302.167 31.691 302.3 31.526 L 306.61 31.43 C 307.039 31.497 307.477 31.416 307.85 31.183 C 308.305 30.84 308.499 30.219 308.33 29.644 C 308.066 28.682 307.346 27.925 306.43 27.666 C 304.367 27.129 302.26 26.814 300.14 26.731 C 299.656 26.567 299.269 26.167 299.09 25.659 L 299.17 25.424 L 299.46 25.371 L 307.13 25.836 C 308.85 25.769 310.397 26.937 310.91 28.682 C 311.244 29.836 311.279 31.071 311.01 32.241 Z M 309.84 14.68 C 311.69 15.711 313.22 19.487 312.36 22.403 C 312.133 22.854 311.785 23.225 311.36 23.46 C 310.068 23.899 308.71 24.064 307.36 23.94 L 306.63 23.94 C 303.915 23.899 301.207 23.64 298.53 23.158 C 297.425 22.911 296.459 22.211 295.85 21.206 L 295.92 21.108 L 296.16 21.108 L 306.96 21.4 C 307.515 21.427 308.068 21.304 308.57 21.055 C 309.274 20.698 309.719 19.943 309.71 19.104 C 309.645 17.732 308.877 16.507 307.71 15.915 C 306.17 14.872 301.23 14.761 296.43 14.651 C 293.95 14.598 291.81 14.541 290.27 14.39 C 289.628 14.337 289.079 13.881 288.87 13.236 L 289 12.865 C 297.55 12.55 304.18 13.085 309.84 14.68 Z M 281.42 5.048 C 284.736 4.511 288.085 4.223 291.44 4.18 L 303.55 4.18 C 305.02 4.223 306.39 4.319 307.55 4.319 C 312.4 5.034 314.9 6.93 315.15 10.117 C 315.072 10.86 314.642 11.505 314.01 11.836 C 313.276 12.097 312.491 12.164 311.73 12.013 C 304.267 10.75 296.716 10.158 289.16 10.268 C 288.531 10.38 287.91 10.035 287.64 9.419 L 287.7 9.074 C 294.713 8.592 301.754 8.923 308.7 10.05 C 309.318 10.09 309.936 9.98 310.51 9.733 C 311.148 9.498 311.579 8.855 311.59 8.141 C 311.496 7.33 310.918 6.667 310.16 6.518 C 304 5.142 291.49 5.405 284.06 5.911 C 283.052 5.83 282.068 5.542 281.17 5.048 L 281.42 5.048 Z M 235.17 7.863 L 235.15 7.863 C 234.145 6.573 233.063 5.336 231.91 4.18 L 234.52 4.18 L 234.6 4.252 C 237.99 8.084 238.7 11.368 236.7 14.226 C 236.144 14.804 235.368 15.078 234.6 14.955 C 233.823 14.692 233.129 14.214 232.6 13.567 C 229.821 10.229 226.841 7.108 223.68 4.18 L 226.17 4.18 C 228.079 5.952 229.861 7.863 231.5 9.913 C 231.98 10.364 232.552 10.68 233.17 10.848 C 233.899 11.066 234.685 10.819 235.17 10.186 C 235.662 9.498 235.662 8.551 235.17 7.863 Z M 246.17 4.18 C 245.789 4.54 245.447 4.952 245.15 5.391 C 244.21 6.763 243.54 7.426 244.09 8.688 C 244.739 9.994 245.943 10.887 247.32 11.078 L 259.85 10.601 C 264.148 10.117 268.452 11.438 271.85 14.267 C 275.35 17.401 284.08 25.289 287.92 33.118 L 284.32 33.118 C 282.493 30.042 280.35 27.184 277.93 24.616 L 277.16 23.736 C 270.14 15.531 265.42 13.843 259.21 13.594 C 257.61 13.455 255.99 13.455 254.4 13.455 C 253.56 13.483 252.71 13.553 251.56 13.651 C 249.34 13.869 247.48 14.145 245.34 13.332 C 239.86 11.217 241.55 6.324 241.55 6.324 C 241.743 5.762 242.012 5.225 242.35 4.746 C 242.476 4.552 242.613 4.36 242.76 4.18 L 246.17 4.18 Z M 0.39 12.042 C 0.26 12.469 0.13 12.936 0.01 13.416 L 0.01 11.191 C 0.293 11.354 0.445 11.699 0.39 12.042 Z M 56.78 28.723 C 57.65 30.181 58.52 31.651 59.41 33.092 L 56.51 33.092 L 51.51 24.45 C 51.333 23.721 51.51 22.952 51.98 22.386 L 52.55 22.043 L 52.95 22.347 C 54.19 24.354 55.51 26.594 56.78 28.723 Z M 305.29 30.001 L 305.06 30.111 L 301.69 29.754 L 301.31 29.231 L 301.48 28.764 L 304.91 28.601 C 305.216 28.639 305.471 28.86 305.56 29.176 C 305.658 29.493 305.547 29.821 305.29 30.001 Z M 193.48 7.561 L 187.01 4.18 L 192.86 4.18 L 193.95 4.842 C 195.12 5.583 195.83 6.367 195.83 6.904 C 195.802 7.122 195.669 7.302 195.48 7.383 C 194.848 7.673 194.146 7.726 193.48 7.561 Z M 200.8 6.616 L 197.34 4.18 L 203.28 4.18 C 205.827 5.664 208.618 6.616 211.5 6.971 C 212.24 7.067 212.59 7.369 212.6 7.369 C 212.61 7.383 212.69 7.755 211.69 8.676 C 211.03 9.127 210.34 9.582 209.69 9.966 C 202.79 14.035 195.77 14.377 188.23 11.191 C 188.094 10.985 187.94 10.805 187.77 10.625 C 183.15 7.714 179.4 6.863 173.77 4.18 L 180.48 4.18 C 181.85 4.895 183.25 5.626 184.68 6.395 C 188.792 8.316 193.192 9.47 197.68 9.788 C 198.791 9.925 199.917 9.774 200.96 9.335 C 201.283 9.155 201.519 8.839 201.61 8.467 C 201.614 7.755 201.317 7.067 200.8 6.616 Z M 317.43 11.174 L 317.45 13.483 C 316.522 16.823 315.922 20.245 315.66 23.721 C 315.65 25.7 316.48 26.083 316.98 26.083 C 317.138 26.1 317.297 26.083 317.45 26.028 L 317.45 29.054 C 317.082 29.133 316.705 29.162 316.33 29.133 C 315.678 29.107 315.055 28.848 314.56 28.392 C 314.56 28.392 311.97 27.774 316.03 13.279 C 316.68 11.754 316.45 12.248 316.68 11.754 C 316.824 11.438 317.105 11.217 317.43 11.174 Z M 255.26 25.673 C 259.37 25.81 262.64 28.296 265.01 33.135 L 263.51 33.135 C 262.991 32.473 262.539 31.759 262.16 31.003 C 259.82 27.98 256.81 26.839 253.16 26.757 L 252.53 25.438 C 253.444 25.453 254.357 25.52 255.26 25.673 Z M 272.45 30.181 C 271.871 30.385 271.247 30.399 270.66 30.219 C 270.23 30.028 269.91 29.699 269.87 29.493 C 269.83 29.274 270.03 28.944 270.4 28.488 C 270.727 28.256 271.113 28.119 271.51 28.119 C 271.81 28.188 272.33 28.543 272.81 29.601 C 272.795 29.848 272.658 30.068 272.45 30.181 Z M 40.71 27.404 C 41.85 29.848 40.91 31.334 39.36 33.063 L 32.21 33.063 L 29.34 30.111 C 28.97 29.74 29.13 29.107 29.34 28.682 C 29.55 28.256 29.89 28.035 30.17 28.035 L 30.59 28.364 L 33.29 31.126 C 33.626 31.471 34.058 31.691 34.52 31.747 C 35.516 31.828 36.481 31.363 37.08 30.509 C 37.812 29.713 38.035 28.531 37.65 27.486 L 35.33 24.036 C 35.044 23.472 35.079 22.786 35.42 22.249 C 35.539 22.031 35.765 21.88 36.01 21.88 C 37.967 23.297 39.578 25.191 40.71 27.404 Z M 240.01 12.193 C 240.18 12.234 240.35 12.412 240.59 12.797 C 245.744 19.063 250.309 25.865 254.22 33.078 L 250.63 33.078 C 247.382 27.114 243.854 21.329 240.06 15.739 C 239.414 14.68 239.312 13.347 239.79 12.193 L 240.01 12.193 Z M 277.35 32.281 C 277.176 32.651 276.877 32.955 276.51 33.106 L 271.85 33.106 C 271.897 32.735 272.173 32.447 272.52 32.404 C 273.113 32.42 273.701 32.296 274.24 32.034 C 274.79 31.732 275.51 31.485 275.01 29.713 C 273.24 26.4 271.45 25.397 268.8 26.647 C 268.473 26.635 268.165 26.484 267.96 26.208 C 267.83 25.879 267.978 25.493 268.29 25.371 C 271.19 23.983 273.63 24.626 275.71 27.39 C 277.47 29.438 277.96 31.003 277.35 32.281 Z M 314.63 30.783 C 315.234 30.852 315.689 31.402 315.67 32.034 C 315.6 32.377 315.54 32.735 315.48 33.106 L 313.16 33.106 L 313.37 31.869 C 313.377 31.526 313.537 31.21 313.8 31.018 C 314.036 30.824 314.335 30.742 314.63 30.783 Z M 255.7 29.217 C 258.01 29.299 260.12 30.603 261.88 33.092 L 260.76 33.092 C 260.76 33.092 260.76 33.092 260.76 33.092 C 259.163 31.099 256.813 29.96 254.35 30.001 L 253.83 29.037 C 254.457 29.054 255.082 29.107 255.7 29.217 Z M 298.39 30.536 C 298.756 31.363 299.076 32.212 299.35 33.063 L 296.19 33.063 C 295.772 32.545 295.226 32.145 294.61 31.91 L 291.33 31.238 C 290.64 31.099 290.22 30.565 289.94 29.505 L 289.88 29.231 C 291.902 29.617 293.955 29.809 296.01 29.781 L 296.54 29.725 L 296.72 29.725 C 297.05 29.658 297.386 29.644 297.72 29.67 C 298.041 29.864 298.282 30.164 298.39 30.536 Z M 252.65 7.383 C 251.39 7.988 249.84 7.741 249.6 7.33 C 249.56 7.259 249.72 7.026 250.04 6.806 C 250.91 6.256 251.8 5.734 252.63 5.309 C 253.363 4.911 254.123 4.54 254.91 4.18 L 259.08 4.18 C 257.817 4.595 256.589 5.115 255.41 5.748 C 254.45 6.244 253.53 6.806 252.65 7.383 Z M 264.2 5.391 C 265.01 5.417 265.11 5.626 265.13 5.638 C 265.15 5.664 265.2 5.777 264.95 6.173 C 264.627 6.544 264.24 6.846 263.81 7.055 C 262.997 7.465 262.125 7.726 261.23 7.837 C 260.53 7.837 260.26 7.561 260.23 7.506 C 260.2 7.465 260.23 7.342 260.43 7.163 C 260.87 6.834 261.5 6.436 262.1 6.105 C 262.753 5.722 263.465 5.485 264.2 5.391 Z M 268.28 7.657 L 268.28 7.673 C 269.31 7.134 269.81 6.544 269.79 5.952 C 269.77 5.35 269.31 4.882 268.36 4.456 L 267.71 4.209 L 271.57 4.209 C 272.57 4.607 273.6 5.101 274.67 5.681 C 274.859 5.844 274.981 6.091 275.01 6.352 C 274.96 6.532 274.78 6.863 274.01 7.302 C 272.087 8.112 269.989 8.345 267.95 7.973 L 268.28 7.657 Z M 288.34 24.654 L 288.34 24.683 C 289.296 24.107 289.657 22.829 289.16 21.784 C 288.58 20.355 286.86 18.897 283.58 19.475 L 281.01 18.993 C 280.782 18.897 280.626 18.677 280.61 18.418 L 280.81 17.895 C 282.052 17.962 283.292 17.732 284.44 17.221 C 285.016 16.921 285.526 16.48 285.94 15.958 C 286.107 15.641 286.319 15.368 286.57 15.119 C 286.8 15.176 287 15.284 287.28 15.807 C 288.676 18.542 290.698 20.878 293.16 22.566 C 294.34 23.556 294.92 24.52 294.82 25.397 C 294.72 26.071 294.283 26.635 293.68 26.867 C 292.19 27.678 289.42 27.678 286.57 25.904 C 286.181 25.618 285.879 25.218 285.7 24.767 C 286.567 25.026 287.494 24.999 288.34 24.654 Z M 278.7 14.035 C 280.01 13.332 280.77 12.26 280.16 11.162 C 279.55 10.05 277.56 9.527 273.77 11.395 C 273.216 11.56 272.618 11.395 272.21 10.97 L 272.42 10.654 C 273.25 10.297 273.95 9.98 274.51 9.678 C 275.032 9.402 275.533 9.086 276.01 8.731 C 276.68 8.263 276.97 7.673 276.86 7.189 L 277.01 7.189 C 279.74 7.769 279.91 8.237 280.01 8.441 L 280.08 8.592 L 280.17 8.688 L 280.55 8.963 C 282.71 10.323 283.94 11.738 283.94 12.893 C 283.847 13.718 283.32 14.418 282.58 14.708 C 280.967 15.435 279.171 15.586 277.47 15.133 C 277.297 15.037 277.141 14.9 277.01 14.735 L 277.21 14.557 C 277.731 14.473 278.234 14.294 278.7 14.035 Z M 224.12 29.078 L 224.15 29.078 C 225.21 30.097 225.663 31.651 225.33 33.118 L 221.49 33.118 C 222.111 32.185 222.18 30.948 221.67 29.932 C 220.348 27.553 218.789 25.33 217.02 23.309 C 216.758 22.705 216.815 22.002 217.17 21.468 L 217.47 21.345 L 217.79 21.576 L 224.12 29.078 Z M 38.12 4.18 C 38.074 4.674 37.873 5.129 37.55 5.472 C 37.059 5.952 36.377 6.132 35.73 5.969 C 34.537 5.748 33.443 5.115 32.61 4.18 L 38.12 4.18 Z M 14.16 21.4 L 14.18 21.4 C 13.69 21.317 13.304 20.918 13.22 20.396 C 12.991 19.475 13.303 18.499 14.01 17.922 C 21.54 13.677 24.01 9.513 24.6 4.168 L 27.77 4.168 C 27.33 8.608 26.12 12.659 23.52 15.159 C 20.53 18.485 17.52 20.547 14.31 21.4 L 14.16 21.4 Z M 24.01 28.2 C 23.515 28.092 23.069 27.817 22.74 27.404 C 21.451 26.002 20.335 24.422 19.42 22.705 C 19.285 22.429 19.308 22.1 19.48 21.839 C 19.659 21.549 19.977 21.4 20.3 21.439 L 20.82 21.647 L 23.17 24.093 C 23.414 24.354 23.735 24.52 24.08 24.558 C 24.786 24.626 25.48 24.326 25.93 23.736 C 26.397 23.184 26.515 22.386 26.23 21.715 L 24.03 18.526 C 23.925 18.238 23.992 17.909 24.2 17.689 C 24.434 17.36 24.813 17.18 25.2 17.221 L 25.67 17.483 C 27.05 19.187 28.39 20.808 30.67 21.304 C 31.27 21.412 31.39 21.48 31.44 21.576 C 31.49 21.659 31.52 21.907 31.31 22.582 C 30.423 23.995 29.211 25.136 27.79 25.92 C 26.893 26.539 26.031 27.198 25.21 27.925 C 24.847 28.145 24.427 28.241 24.01 28.2 Z M 18.45 6.42 C 18.231 5.762 17.764 5.225 17.16 4.938 L 15.16 4.18 L 20.24 4.18 C 20.407 4.36 20.557 4.552 20.69 4.746 C 21.231 5.873 21.271 7.206 20.8 8.359 C 19.83 10.915 17.82 12.948 14.74 14.377 L 14.28 14.377 C 14.13 14.363 13.84 14.308 13.91 13.594 C 13.78 12.001 14.75 12.083 17.06 9.954 C 17.935 9.019 18.433 7.741 18.45 6.42 Z M 16.34 8.165 C 16.29 8.455 16.14 8.827 15.09 8.62 C 14.752 8.565 14.417 8.484 14.09 8.371 C 13.59 8.112 13.28 7.673 13.35 7.314 C 13.484 6.904 13.823 6.599 14.23 6.532 C 14.639 6.448 15.056 6.436 15.47 6.477 C 15.76 6.532 16.51 6.628 16.34 8.165 Z M 100.93 10.901 L 100.93 10.872 C 98.853 8.345 96.488 6.12 93.89 4.223 L 98.71 4.223 C 104.79 9.937 114.69 20.396 113.49 28.572 C 113.392 30.111 113.154 31.636 112.78 33.135 L 108.78 33.135 C 111.84 23.556 107.88 18.952 101.71 11.781 L 100.93 10.901 Z M 119.76 23.652 C 120.371 23.321 120.719 22.623 120.63 21.894 C 120.451 20.575 119.576 19.475 118.38 19.077 L 115.09 18.389 C 114.41 18.252 113.98 17.732 113.7 16.658 L 113.64 16.397 C 115.663 16.78 117.715 16.96 119.77 16.933 L 120.3 16.893 L 120.49 16.893 C 120.821 16.837 121.156 16.809 121.49 16.837 C 121.809 17.029 122.049 17.332 122.16 17.703 C 123.096 19.777 123.659 22.017 123.82 24.299 C 123.839 25.397 123.31 26.428 122.43 27.006 C 121.37 27.553 119.69 27.445 117.31 26.661 C 116.69 26.371 116.07 25.798 116.69 24.132 C 116.83 23.652 116.89 23.611 117.02 23.542 C 117.15 23.46 117.36 23.501 117.66 23.652 C 118.335 23.94 119.085 23.94 119.76 23.652 Z M 103.36 27.169 C 103.5 27.486 103.6 27.817 102.66 28.323 C 102.36 28.476 102.049 28.601 101.73 28.709 C 101.254 28.807 100.764 28.627 100.44 28.241 C 100.295 27.855 100.381 27.404 100.66 27.114 C 100.946 26.814 101.265 26.551 101.61 26.33 C 101.88 26.208 102.53 25.836 103.36 27.169 Z M 105.93 33.063 L 105.92 33.106 L 104.92 33.106 L 104.79 32.929 C 103.7 31.732 104.5 31.195 105.06 28.188 C 105.15 26.867 104.756 25.561 103.96 24.532 C 103.367 24.132 102.649 23.995 101.96 24.148 L 99.3 24.863 C 98.973 24.805 98.703 24.558 98.6 24.23 C 98.5 23.736 98.8 23.101 99.6 22.662 L 100.11 22.47 C 102.05 21.633 103.55 21.439 104.68 21.907 C 105.786 22.458 106.628 23.489 107.01 24.724 C 107.815 27.529 107.42 30.579 105.93 33.063 Z M 129.42 6.657 L 128.79 6.846 C 125.041 6.779 121.308 6.312 117.65 5.446 C 117.294 5.266 116.985 5.007 116.75 4.664 C 116.75 4.664 128.14 4.58 130.23 5.734 C 130.42 5.817 129.95 6.379 129.42 6.657 Z M 11.07 7.714 L 11.71 7.506 C 12.05 7.561 12.34 8.057 12.34 8.784 L 11.02 20.614 C 10.79 23.033 9.28 25.067 6.36 27.061 C 6.149 27.143 5.923 27.169 5.7 27.143 L 5.57 27.143 C 5.51 27.006 5.36 26.58 6.01 24.875 C 6.328 24.395 6.716 23.954 7.16 23.597 L 7.23 23.515 C 8.405 22.595 9.072 21.108 9.01 19.557 C 9.16 18.293 9.36 17.07 9.53 15.739 C 9.7 14.404 9.88 13.085 10.08 11.738 L 10.43 9.115 C 10.449 8.58 10.681 8.069 11.07 7.714 Z M 108.21 4.401 C 108.34 4.331 108.45 4.264 108.57 4.237 L 111.74 4.237 C 113.076 6.463 114.85 8.359 116.94 9.788 C 118.12 10.776 118.69 11.738 118.6 12.62 C 118.483 13.263 118.05 13.814 117.46 14.035 C 115.97 14.845 113.2 14.845 110.35 13.085 C 109.957 12.812 109.651 12.397 109.47 11.93 C 110.338 12.205 111.267 12.164 112.11 11.822 C 113.091 11.272 113.472 9.994 112.96 8.951 C 112.39 7.506 110.66 6.065 107.39 6.628 L 104.81 6.148 C 104.579 6.065 104.414 5.844 104.39 5.583 L 104.58 5.074 C 105.822 5.142 107.062 4.911 108.21 4.401 Z M 17.01 31.003 C 18.95 29.617 17.81 27.774 16.86 26.304 C 16.466 25.728 16.13 25.11 15.86 24.462 C 15.77 24.16 15.72 23.968 15.86 23.858 C 16.019 23.681 16.258 23.611 16.48 23.681 L 17.01 23.872 C 17.941 24.558 18.682 25.508 19.16 26.608 C 19.85 27.913 20.59 29.327 21.95 29.658 C 22.27 29.713 22.33 29.821 22.33 29.877 L 21.99 30.481 L 19.3 32.914 C 18.854 33.092 18.376 33.161 17.9 33.135 C 17.365 33.039 16.928 32.624 16.77 32.077 C 16.47 31.375 16.5 31.238 17.01 31.003 Z M 184.01 13.032 C 184.172 13.21 184.322 13.404 184.46 13.608 C 184.842 14.214 184.996 14.929 184.89 15.641 C 184.641 16.701 183.927 17.579 182.97 17.979 C 181.8 18.554 180.506 18.801 179.22 18.677 C 176.32 18.046 171.3 16.013 165.5 13.634 L 165.21 13.538 C 157.07 10.186 147.84 6.448 140.35 4.882 C 140.04 4.703 139.765 4.47 139.54 4.18 L 148.42 4.18 C 157.953 6.763 167.204 10.405 176.02 15.051 C 176.984 15.641 178.136 15.78 179.2 15.435 C 179.561 15.284 179.807 14.912 179.83 14.502 C 179.86 13.869 179.43 13.21 178.43 12.55 C 172.567 9.347 166.514 6.559 160.31 4.18 L 168.91 4.18 C 174.022 6.503 178.939 9.28 183.61 12.481 C 183.756 12.646 183.889 12.838 184.01 13.032 Z M 187.39 19.983 L 187.43 19.983 C 187.77 20.051 188.01 20.535 188.03 21.249 L 186.75 33.092 L 184.55 33.092 C 184.615 32.735 184.652 32.392 184.66 32.034 C 184.84 30.771 185.03 29.546 185.21 28.215 C 185.39 26.882 185.57 25.561 185.76 24.23 L 186.11 21.592 C 186.131 21.055 186.363 20.547 186.75 20.19 L 187.39 19.983 Z M 95.89 20.739 L 95.93 20.739 C 95.67 20.535 95.6 20.355 95.62 20.245 C 95.681 19.873 95.955 19.6 96.3 19.545 C 96.889 19.557 97.475 19.434 98.01 19.173 C 98.57 18.871 99.29 18.624 98.79 16.864 C 97.01 13.538 95.23 12.536 92.58 13.8 C 92.25 13.787 91.941 13.622 91.73 13.347 C 91.6 13.016 91.748 12.646 92.06 12.51 C 95.01 11.119 97.41 11.781 99.44 14.541 C 101.2 16.576 101.7 18.156 101.08 19.42 C 100.909 19.82 100.595 20.122 100.21 20.257 C 98.57 21.137 96.16 21.082 95.89 20.739 Z M 4.89 5.034 C 4.8 4.746 4.822 4.444 4.95 4.18 L 10.11 4.18 L 6.51 6.091 L 6.43 6.091 L 6.13 6.091 C 5.554 6.036 5.067 5.609 4.89 5.034 Z M 4.85 24.642 C 3.973 26.827 2.179 28.435 0.01 28.984 L 0.01 25.987 C 1.253 25.424 2.301 24.462 3.01 23.24 C 4.74 19.847 5.21 14.214 5.43 9.155 C 5.447 8.702 5.627 8.29 5.93 7.988 L 6.49 7.741 C 6.88 7.769 7.11 8.371 7.11 9.294 C 7.045 14.502 6.284 19.667 4.85 24.642 Z M 134.73 28.2 C 137.01 29.409 137.3 31.003 137.24 33.078 L 133.78 33.078 C 133.78 32.984 133.78 32.9 133.78 32.804 C 133.812 31.677 133.239 30.62 132.3 30.085 L 128.3 28.682 C 127.749 28.407 127.37 27.843 127.3 27.21 C 127.254 26.963 127.348 26.716 127.54 26.567 C 130.02 26.551 132.472 27.114 134.73 28.2 Z M 33.06 25.232 L 33.39 25.371 L 35.07 27.169 C 35.332 27.5 35.372 27.953 35.17 28.323 C 35.031 28.572 34.78 28.723 34.51 28.709 L 34.01 28.447 L 32.29 26.647 C 32.044 26.388 31.991 25.975 32.16 25.645 C 32.374 25.357 32.714 25.191 33.06 25.232 Z M 37.26 10.558 L 37.23 10.558 C 37.385 10.915 37.381 11.34 37.22 11.699 C 36.657 13.937 35.719 16.039 34.45 17.922 C 33.764 18.801 32.73 19.283 31.66 19.228 C 30.47 18.993 29.2 17.922 27.78 15.902 C 27.48 15.339 27.33 14.502 28.86 13.526 C 29.27 13.251 29.36 13.236 29.5 13.251 C 29.64 13.279 29.79 13.416 29.93 13.718 C 30.308 14.363 30.915 14.804 31.61 14.955 C 32.304 15.025 32.978 14.68 33.36 14.061 C 34.031 12.977 34.011 11.56 33.31 10.488 L 31.11 8.057 C 30.68 7.549 30.67 6.93 31.11 5.873 L 31.23 5.609 C 32.613 7.122 34.138 8.467 35.78 9.649 L 36.23 9.913 L 36.4 9.994 C 36.708 10.145 36.997 10.337 37.26 10.558 Z M 67.01 4.18 C 72.263 10.68 76.849 17.744 80.69 25.273 C 81.914 27.802 82.969 30.413 83.85 33.106 L 80.85 33.106 C 75.77 21.592 70.01 12.687 64.35 4.511 C 64.264 4.415 64.19 4.305 64.13 4.18 L 67.01 4.18 Z M 42.54 18.293 L 39.77 15.188 L 39.88 14.433 L 40.46 14.171 L 43.81 16.85 C 44.052 17.152 44.076 17.593 43.87 17.922 C 43.656 18.279 43.263 18.458 42.87 18.389 L 42.54 18.293 Z M 92.31 28.447 L 92.5 27.98 C 92.66 26.882 92.348 25.769 91.65 24.959 C 87.05 19.873 82.84 18.226 77.95 16.864 L 77.41 15.862 C 80.785 15.986 84.063 17.085 86.89 19.048 C 90.35 21.674 93.08 23.46 95.78 23.721 C 96.108 23.887 96.376 24.148 96.54 24.491 C 96.805 24.944 96.867 25.493 96.71 25.987 L 94.25 31.375 L 94.19 31.375 L 93.93 31.514 C 93.404 31.8 92.769 31.759 92.28 31.402 C 91.88 31.155 91.686 30.66 91.81 30.193 C 91.922 29.589 92.089 29.011 92.31 28.447 Z M 49.25 6.863 C 48.1 5.94 47.01 5.062 46.07 4.18 L 48.74 4.18 C 49.652 4.923 50.448 5.803 51.1 6.806 C 51.19 6.985 50.47 7.163 49.88 7.067 L 49.25 6.863 Z M 99.92 30.001 L 101.84 33.106 L 99.6 33.106 L 98.6 31.389 C 98.285 30.977 98.154 30.428 98.24 29.889 L 98.62 29.37 C 98.92 29.217 99.44 29.438 99.92 30.001 Z M 130.1 31.32 C 130.496 31.416 130.803 31.759 130.89 32.173 C 130.89 32.337 130.9 32.735 130.61 32.888 L 130.04 32.969 L 127.55 32.557 C 127.186 32.488 126.895 32.2 126.82 31.814 C 126.797 31.457 126.979 31.126 127.28 30.963 L 127.63 30.895 L 130.1 31.32 Z M 140.3 8.784 C 152.01 10.985 161.61 13.594 170.79 19.365 C 172.27 20.849 172.98 22.386 172.79 23.611 C 172.6 24.834 171.69 25.932 170.05 26.798 C 169.182 27.253 168.274 27.608 167.34 27.855 C 164.659 28.035 161.974 27.596 159.47 26.551 L 141.58 20.271 C 140.987 19.847 140.616 19.144 140.58 18.389 L 140.78 17.785 L 141.29 17.785 C 143.56 18.526 146.07 19.393 148.46 20.204 C 153.95 22.1 159.62 24.024 165.25 25.357 C 166.039 25.577 166.876 25.493 167.61 25.11 C 168.603 24.626 169.245 23.568 169.26 22.415 C 169.154 21.288 168.439 20.326 167.43 19.955 C 158.23 15.476 149.65 13.004 140.95 10.654 C 140.398 10.297 140.029 9.678 139.95 9.004 L 140.12 8.784 L 140.3 8.784 Z M 179.05 21.755 L 179.01 21.784 C 179.14 21.796 179.32 22.1 179.32 22.69 C 179.197 26.234 178.576 29.754 177.48 33.106 L 176.01 33.106 L 178.29 22.595 C 178.51 22.017 178.9 21.755 179.05 21.755 Z M 138.75 13.251 L 138.79 12.948 C 147.408 14.651 155.831 17.332 163.92 20.918 C 164.2 21.108 164.37 21.345 164.37 21.576 L 164.14 21.947 L 163.67 22.002 C 155.401 20.067 147.253 17.579 139.27 14.569 C 138.917 14.241 138.726 13.759 138.75 13.251 Z M 130.86 19.751 L 130.54 19.873 L 126.4 19.01 L 126.02 18.348 L 126.31 17.785 L 130.65 17.979 C 131.016 18.075 131.292 18.389 131.35 18.789 C 131.401 19.187 131.203 19.583 130.86 19.751 Z M 124.53 13.526 L 134 14.967 C 136.107 15.037 137.867 16.701 138.2 18.912 C 138.396 20.382 138.205 21.894 137.65 23.268 C 137.429 23.721 137.079 24.093 136.65 24.326 C 136.057 24.587 135.408 24.683 134.77 24.587 L 127.77 23.527 C 127.179 23.309 126.761 22.758 126.7 22.1 C 126.645 21.813 126.737 21.535 126.94 21.345 L 132.34 21.755 C 132.879 21.894 133.444 21.839 133.95 21.592 C 134.575 21.249 134.927 20.518 134.83 19.777 C 134.683 18.569 133.911 17.538 132.83 17.125 C 130.326 16.233 127.748 15.6 125.13 15.229 C 124.557 14.982 124.137 14.445 124.01 13.8 L 124.15 13.526 L 124.53 13.526 Z M 140.66 32.571 L 142.36 33.106 L 139.48 33.106 C 139.48 33.063 139.48 32.969 139.48 32.969 C 139.444 32.72 139.509 32.473 139.66 32.267 L 140.66 32.571 Z M 133.66 6.779 C 133.617 5.803 133.223 4.868 132.56 4.18 L 135.51 4.18 C 136.551 6.024 136.864 8.208 136.38 10.282 C 136.159 10.75 135.809 11.119 135.38 11.354 C 134.086 11.766 132.725 11.905 131.38 11.754 L 130.64 11.754 C 127.903 11.658 125.178 11.327 122.49 10.764 C 121.358 10.46 120.382 9.69 119.77 8.633 L 119.84 8.551 L 120.08 8.551 L 130.92 9.074 C 131.472 9.115 132.025 9.004 132.53 8.772 C 133.244 8.4 133.687 7.616 133.66 6.779 Z M 8.34 31.099 C 8.363 31.787 8.467 32.447 8.65 33.106 L 6.95 33.106 C 6.72 31.979 6.599 30.84 6.59 29.699 C 6.43 28.56 6.85 28.2 7.49 28.049 C 7.93 27.802 8.423 27.692 8.92 27.706 C 9.306 27.706 9.672 27.884 9.92 28.2 C 9.92 28.2 10.61 31.485 9.92 31.279 C 9.73 31.375 9.46 30.963 9.25 30.469 C 9.11 30.164 8.34 30.675 8.34 31.099 Z M 12.14 25.561 C 13.5 27.774 14.081 30.428 13.78 33.063 L 12.1 33.063 C 12.157 31.938 12.029 30.812 11.72 29.74 L 11.66 29.617 C 11.308 28.407 11.215 27.114 11.39 25.865 C 11.53 25.342 11.68 25.15 11.73 25.15 C 11.894 25.246 12.035 25.397 12.14 25.561 Z M 2.33 9.774 C 2.5 9.21 2.9 8.908 2.98 8.923 C 3.06 8.923 3.24 9.198 3.31 9.762 C 3.35 14.912 2.79 18.926 1.59 22.031 C 1.45 22.484 1.12 22.607 0.99 22.595 C 0.86 22.582 0.62 22.539 0.62 22.1 L 2.33 9.774 Z M 0.67 30.867 C 0.84 30.867 1.11 31.142 1.17 31.938 C 1.09 32.324 1.09 32.72 1.09 33.106 L 0 33.106 L 0 32.596 C 0.05 32.226 0.1 31.857 0.15 31.471 C 0.18 31.169 0.39 30.922 0.67 30.867 Z M 4.01 29.011 C 4.48 30.44 4.85 31.8 5.15 33.063 L 2.84 33.063 C 2.77 32.488 2.68 31.898 2.58 31.291 C 2.502 30.332 2.738 29.354 3.25 28.56 L 3.53 28.56 L 4.01 29.011 Z M 175.63 23.844 C 176.08 24.23 176.09 24.477 176.01 24.779 C 174.966 27.486 174.127 30.26 173.5 33.106 L 171.72 33.106 L 173.98 25.904 C 174.23 25.453 174.5 24.889 174.78 24.395 C 174.969 24.079 175.283 23.872 175.63 23.844 Z M 89.78 26.126 C 90.12 26.428 90.25 28.227 89.14 27.429 C 86.236 24.683 83.091 22.237 79.75 20.122 L 79.29 19.283 C 81.55 19.902 86.95 23.254 89.78 26.126 Z M 170.43 28.364 C 170.51 28.38 170.67 28.694 170.64 29.287 C 170.43 30.632 170.2 31.91 169.93 33.106 L 168.34 33.106 L 169.59 29.133 C 169.87 28.586 170.28 28.364 170.43 28.364 Z M 96.58 16.754 C 96.588 17.017 96.447 17.264 96.22 17.372 C 95.638 17.552 95.022 17.552 94.44 17.372 C 94.01 17.168 93.69 16.837 93.65 16.631 C 93.61 16.425 93.81 16.082 94.18 15.627 C 94.502 15.394 94.887 15.272 95.28 15.272 C 95.58 15.325 96.11 15.682 96.58 16.754 Z M 73.26 8.141 C 74.535 8.084 75.812 8.124 77.08 8.275 C 83.23 8.194 88.22 11.877 92.01 19.324 L 92.34 19.971 L 91.99 19.971 C 90.5 19.724 88.86 18.13 87.19 15.243 C 83.69 11.217 79.38 9.815 74.26 9.937 L 73.26 8.141 Z M 83.64 6.628 L 83.65 6.628 C 82.66 7.134 82.15 6.738 82.11 6.667 C 82.07 6.587 82.1 6.324 82.42 6.009 L 82.8 5.83 C 85.66 4.319 88.26 3.811 91.58 6.436 C 92.2 6.942 92.548 7.741 92.51 8.565 C 92.393 9.155 92.029 9.666 91.52 9.937 C 91.045 10.172 90.517 10.256 90 10.172 L 89.79 9.649 C 90.59 9.21 90.79 8.935 90.79 8.359 C 90.789 7.755 90.465 7.189 89.95 6.904 C 87.13 4.758 85.23 5.777 83.64 6.628 Z M 86.01 7.302 C 87.18 6.863 88.01 7.302 88.27 7.932 C 88.38 8.165 88.47 8.565 88.17 8.688 C 87.786 8.812 87.378 8.784 87.01 8.62 C 85.94 8.153 85.78 7.755 85.78 7.726 C 85.78 7.698 85.78 7.549 86.01 7.302 Z M 72.06 5.928 L 71.53 4.938 C 72.285 4.623 73.064 4.36 73.86 4.18 L 79.7 4.18 C 79.87 4.237 80.03 4.305 80.18 4.374 L 80.48 4.499 C 80.48 4.58 80.24 5.062 79.48 5.46 C 78.987 5.762 78.411 5.873 77.85 5.777 C 76.58 4.746 74.06 5.309 72.06 5.928 Z M 138.55 27.774 L 138.53 27.774 C 144.246 28.268 149.826 29.889 154.98 32.557 L 155.1 32.914 L 154.96 33.106 L 152.67 33.106 L 140.01 29.493 C 139.316 29.162 138.784 28.543 138.55 27.774 Z M 165.55 30.481 L 165.57 30.481 C 165.85 29.932 166.33 29.713 166.4 29.725 C 166.47 29.74 166.6 30.056 166.6 30.632 C 166.47 31.497 166.33 32.324 166.17 33.106 L 164.73 33.106 L 165.55 30.481 Z M 162.01 33.106 L 158.33 33.092 C 158.33 33.039 158.33 32.969 158.33 32.929 C 158.288 31.898 157.713 30.991 156.84 30.565 C 152.039 27.968 146.908 26.141 141.61 25.122 C 141.095 25.014 140.682 24.599 140.54 24.064 C 140.539 23.707 140.72 23.393 141.01 23.24 C 141.286 23.129 141.584 23.074 141.88 23.101 C 151.03 25.424 157.55 27.855 159.77 29.685 C 160.775 30.603 161.545 31.787 162.01 33.106 Z M 27.3 30.152 C 28.039 31.059 28.683 32.049 29.22 33.106 L 26.52 33.106 L 26.01 32.13 C 25.796 31.497 25.923 30.783 26.34 30.289 C 26.49 30.042 26.737 29.889 27.01 29.864 L 27.3 30.152 Z M 124.01 33.106 C 124.34 32.061 124.429 30.948 124.27 29.877 C 124.02 29.203 123.86 29.037 123.75 28.984 C 123.64 28.944 123.5 28.956 122.97 29.231 C 120.84 30.181 118.77 29.67 116.6 29.121 L 116.06 29.176 C 115.725 29.37 115.52 29.74 115.53 30.152 C 115.51 30.469 115.661 30.771 115.92 30.922 L 119.68 32.212 C 120.031 32.42 120.317 32.72 120.5 33.106 L 124.01 33.106 Z" style=""/>
  <path class="cls-2" d="M 519.34 29.961 C 520.115 31.004 521.012 31.948 522.01 32.753 L 518.86 32.753 L 517.69 31.004 C 517.586 30.71 517.657 30.377 517.87 30.155 C 518.108 29.822 518.485 29.642 518.87 29.685 L 519.34 29.961 Z M 547.54 28.6 L 547.78 28.404 C 548.833 29.864 549.857 31.324 550.85 32.753 L 548.48 32.753 C 548.01 31.809 547.49 30.879 547.01 29.933 C 546.993 29.433 547.187 28.932 547.54 28.6 Z M 528.01 14.259 C 529.112 14.358 530.131 13.62 530.46 12.48 C 530.689 11.788 530.689 11.036 530.46 10.342 C 531.203 9.953 531.857 9.398 532.37 8.716 C 532.224 11.008 532.496 13.301 533.17 15.483 C 533.5 16.927 533.36 18.055 532.74 18.706 C 532.249 19.192 531.567 19.374 530.92 19.206 C 529.23 18.97 527.02 17.331 525.84 14.217 C 525.698 13.761 525.698 13.248 525.84 12.774 C 526.382 13.524 527.149 14.051 528.01 14.259 Z M 540.23 9.257 L 540.23 9.19 C 538.36 7.395 536.76 5.854 535.7 4.743 C 535.444 4.422 535.296 4.019 535.28 3.601 L 536.96 3.601 C 543.16 8.868 547.51 13.69 550.51 18.638 C 551.17 20.763 549.6 24.888 546.83 26.627 C 546.332 26.821 545.79 26.863 545.27 26.736 C 544.001 26.209 542.85 25.403 541.89 24.362 L 541.32 23.848 C 539.265 21.901 537.374 19.775 535.67 17.468 C 535.006 16.469 534.773 15.207 535.03 14.011 L 535.15 14.011 L 535.33 14.176 L 543.4 22.042 C 543.819 22.46 544.328 22.75 544.88 22.902 C 545.717 23.081 546.585 22.791 547.17 22.125 C 548.086 21.07 548.393 19.553 547.97 18.192 C 547.55 16.274 543.83 12.704 540.23 9.257 Z M 531.54 28.918 L 535.38 32.753 L 532.01 32.753 L 530.63 31.183 C 530.329 30.586 530.405 29.85 530.82 29.336 C 530.984 29.072 531.251 28.918 531.54 28.918 Z M 567.29 20.318 L 567.29 20.29 C 568.578 20.221 569.869 20.276 571.15 20.431 C 577.3 20.346 582.29 24.085 586.08 31.601 L 586.37 32.279 L 586.03 32.279 C 584.53 32.045 582.9 30.433 581.23 27.515 C 577.72 23.43 573.42 22.014 568.29 22.139 L 567.29 20.318 Z M 583.4 22.111 L 583.4 22.084 C 584.24 21.639 584.41 21.361 584.49 20.818 C 584.51 20.445 584.42 19.915 583.66 19.303 C 580.83 17.137 578.94 18.164 577.35 19.027 C 576.36 19.497 575.84 19.11 575.8 19.027 C 575.76 18.956 575.79 18.678 576.12 18.373 L 576.5 18.164 C 579.36 16.649 581.95 16.149 585.28 18.805 C 585.904 19.303 586.249 20.11 586.2 20.957 C 586.091 21.597 585.694 22.139 585.14 22.403 C 584.666 22.639 584.137 22.722 583.62 22.639 L 583.4 22.111 Z M 533.6 25.655 L 536.82 28.779 C 537.034 29.098 537.034 29.53 536.82 29.85 C 536.579 30.211 536.153 30.377 535.75 30.268 L 535.41 30.141 L 532.8 26.669 L 532.98 25.889 L 533.6 25.655 Z M 579.67 19.707 L 579.67 19.679 C 580.84 19.206 581.64 19.652 581.93 20.346 C 582.05 20.582 582.13 20.985 581.84 21.109 C 581.453 21.221 581.042 21.207 580.67 21.042 C 579.61 20.568 579.45 20.151 579.45 20.124 C 579.45 20.096 579.45 19.957 579.67 19.707 Z M 525.26 27.474 L 525.26 27.446 C 525.958 27.5 526.633 27.154 527.01 26.514 C 527.692 25.431 527.692 24.001 527.01 22.916 L 524.73 20.487 C 524.31 19.971 524.29 19.289 524.73 18.275 L 524.85 18.012 C 526.236 19.539 527.76 20.901 529.4 22.099 L 529.86 22.375 L 530.02 22.46 C 530.329 22.597 530.618 22.791 530.88 23.014 C 531.008 23.361 531.008 23.751 530.88 24.085 C 530.314 26.349 529.373 28.489 528.1 30.391 C 527.424 31.296 526.389 31.795 525.31 31.752 C 524.13 31.573 522.85 30.489 521.44 28.432 C 521.14 27.835 520.99 27.014 522.52 26.03 C 522.93 25.752 523 25.723 523.15 25.752 C 523.3 25.766 523.44 25.903 523.58 26.224 C 523.968 26.849 524.57 27.309 525.26 27.474 Z M 551.06 25.514 L 551.19 25.655 C 553.09 28.069 554.87 30.433 556.51 32.781 L 553.89 32.781 C 552.76 31.004 551.6 29.253 550.43 27.486 C 550.262 26.821 550.395 26.125 550.79 25.584 L 551.06 25.514 Z M 554.59 18.345 L 554.88 18.664 C 557.78 23.043 560.87 27.752 563.78 32.781 L 560.24 32.781 C 558.283 29.003 556.07 25.376 553.62 21.944 C 553.324 20.778 553.57 19.525 554.28 18.595 L 554.59 18.345 Z M 543.35 18.777 L 543.35 18.749 C 540.506 16.191 537.934 13.301 535.68 10.134 C 535.532 9.745 535.483 9.313 535.54 8.91 C 535.54 8.91 544.47 16.58 545.28 18.886 C 545.36 19.055 544.6 19.206 543.98 19.055 L 543.35 18.777 Z M 379.74 32.753 C 376.81 28.21 374.01 23.513 371.5 18.749 C 371.474 18.247 371.662 17.748 372.01 17.401 L 372.24 17.165 C 375.997 22.056 379.375 27.266 382.34 32.753 L 379.74 32.753 Z M 375.49 14.203 L 375.58 14.329 C 380.64 20.582 384.85 26.389 388.01 32.753 L 385.21 32.753 C 382.079 27.014 378.633 21.484 374.89 16.177 C 374.707 15.524 374.826 14.817 375.21 14.273 L 375.49 14.203 Z M 370.61 13.496 C 370.175 13.732 369.685 13.831 369.2 13.775 C 367.941 13.371 366.779 12.676 365.79 11.746 L 365.2 11.3 C 363.089 9.607 361.119 7.716 359.31 5.658 C 358.86 5.033 358.558 4.299 358.43 3.506 L 360.01 3.506 L 367.01 9.313 C 367.419 9.66 367.898 9.898 368.41 10.007 C 369.226 10.134 370.042 9.787 370.55 9.091 C 371.346 7.992 371.522 6.522 371.01 5.241 C 370.782 4.605 370.443 4.019 370.01 3.506 L 372.01 3.506 C 372.53 4.174 373.03 4.839 373.51 5.507 C 374.32 7.508 373.13 11.605 370.61 13.496 Z M 361.44 28.878 L 361.44 28.906 C 362.778 30.086 364.041 31.365 365.22 32.725 L 362.74 32.725 L 361.54 31.141 C 361.184 30.447 361.147 29.614 361.44 28.878 Z M 366.23 26.736 C 366.522 26.792 366.795 26.932 367.02 27.139 C 368.607 29.14 370.03 31.004 371.29 32.753 L 368.88 32.753 C 367.84 31.338 366.73 29.961 365.53 28.614 C 365.198 28.196 365.128 27.599 365.35 27.097 C 365.568 26.821 365.898 26.694 366.23 26.736 Z M 507.01 19.679 C 507.14 19.235 507.487 18.9 507.91 18.819 C 508.322 18.763 508.738 18.763 509.15 18.819 C 509.45 18.872 510.19 18.97 510.03 20.526 C 509.97 20.832 509.82 21.193 508.75 21.056 C 508.412 20.985 508.077 20.915 507.75 20.804 C 507.25 20.473 506.95 20.041 507.01 19.679 Z M 359.12 9.105 L 365.81 15.885 C 367.452 17.22 367.849 19.693 366.72 21.554 C 365.946 22.902 364.865 24.015 363.58 24.778 C 363.124 25.014 362.613 25.11 362.11 25.028 C 361.486 24.903 360.908 24.598 360.44 24.138 L 355.54 19.11 C 355.189 18.581 355.189 17.857 355.54 17.331 C 355.676 17.066 355.917 16.899 356.19 16.875 L 360.25 20.402 C 360.61 20.832 361.097 21.123 361.63 21.221 C 362.356 21.304 363.065 20.943 363.46 20.29 C 364.094 19.289 364.114 17.97 363.51 16.956 C 362.052 14.733 360.375 12.69 358.51 10.856 C 358.21 10.3 358.21 9.607 358.51 9.049 L 358.79 8.91 L 359.12 9.105 Z M 517.2 27.613 L 517.2 27.627 C 515.42 29.713 513.311 31.448 510.97 32.753 L 506.84 32.753 C 506.677 31.865 506.99 30.961 507.65 30.419 C 508.62 29.864 509.49 29.336 510.29 28.793 L 509.84 28.335 L 510.41 28.723 C 516.77 24.418 518.26 20.318 518.41 14.428 L 521.63 13.648 C 521.51 19.374 520.42 24.471 517.2 27.613 Z M 507.93 26.807 L 507.93 26.821 C 507.78 26.792 507.5 26.736 507.54 26.016 C 507.41 24.404 508.38 24.431 510.7 22.333 C 511.575 21.375 512.07 20.096 512.08 18.749 C 511.849 18.067 511.367 17.539 510.75 17.26 L 508.19 16.26 C 507.963 16.026 507.9 15.649 508.03 15.344 C 508.446 14.761 509.139 14.495 509.8 14.676 L 510.34 14.817 C 512.42 15.302 513.73 15.997 514.34 17.066 C 514.881 18.206 514.921 19.553 514.45 20.721 C 513.49 23.305 511.47 25.362 508.39 26.807 L 507.93 26.807 Z M 500.36 20.36 C 500.78 20.431 501.01 21.07 500.95 22 C 500.638 25.641 500.026 29.239 499.12 32.753 L 497.12 32.753 C 498.131 29.168 498.801 25.471 499.12 21.75 C 499.172 21.29 499.391 20.859 499.73 20.582 L 500.36 20.36 Z M 399.51 23.987 C 402.696 26.139 405.458 28.947 407.64 32.24 C 407.735 32.406 407.819 32.573 407.89 32.753 L 404.89 32.753 C 404.207 30.669 402.986 28.836 401.37 27.46 L 399.51 23.987 Z M 413.01 32.335 C 413.27 32.198 413.64 32.349 414.01 32.753 L 412.73 32.753 L 413.01 32.335 Z M 379.2 7.298 C 384.37 14.803 390.01 23.333 394.49 32.753 L 390.71 32.753 C 386.86 25.082 382.52 16.498 378.01 10.578 C 377.693 9.424 377.913 8.175 378.6 7.228 L 378.91 6.978 L 379.2 7.298 Z M 573.41 32.629 L 572.94 31.766 C 573.723 32.017 574.483 32.349 575.21 32.753 L 573.59 32.753 L 573.41 32.629 Z M 623.07 18.97 L 622.44 19.15 C 618.695 19.096 614.965 18.623 611.31 17.734 C 610.951 17.567 610.638 17.288 610.4 16.956 C 610.4 16.956 621.79 16.875 623.88 18.026 C 624.07 18.109 623.6 18.678 623.07 18.97 Z M 565.19 17.274 C 567.82 16.094 571.74 15.719 573.83 16.691 L 574.14 16.818 C 574.14 16.913 573.89 17.401 573.14 17.803 C 572.645 18.095 572.07 18.206 571.51 18.109 C 570.24 17.066 567.72 17.637 565.72 18.275 L 565.19 17.274 Z M 628.41 31.879 C 628.287 32.226 628.071 32.531 627.79 32.753 L 620.3 32.753 C 619.956 32.545 619.701 32.198 619.59 31.78 C 619.513 31.573 619.547 31.324 619.68 31.155 L 623.99 31.058 C 624.419 31.127 624.857 31.044 625.23 30.808 C 625.685 30.461 625.879 29.836 625.71 29.253 C 625.443 28.281 624.724 27.515 623.81 27.252 C 621.747 26.708 619.64 26.389 617.52 26.306 C 617.055 26.125 616.689 25.723 616.52 25.223 L 616.6 24.987 L 616.89 24.931 L 624.53 25.403 C 626.25 25.334 627.797 26.514 628.31 28.281 C 628.644 29.447 628.679 30.696 628.41 31.879 Z M 627.27 14.122 C 629.12 15.164 630.65 18.985 629.84 21.929 C 629.615 22.389 629.266 22.763 628.84 23 C 627.548 23.444 626.19 23.612 624.84 23.485 L 624.11 23.485 C 621.395 23.444 618.687 23.18 616.01 22.694 C 614.888 22.46 613.903 21.75 613.28 20.721 L 613.35 20.624 L 613.59 20.624 L 624.4 20.901 C 624.955 20.929 625.508 20.804 626.01 20.554 C 626.707 20.193 627.147 19.427 627.14 18.595 C 627.075 17.206 626.307 15.969 625.14 15.372 C 623.6 14.315 618.66 14.203 613.86 14.093 C 611.38 14.037 609.23 13.982 607.7 13.831 C 607.058 13.775 606.509 13.315 606.3 12.661 L 606.43 12.286 C 614.98 11.967 621.61 12.508 627.27 14.122 Z M 598.85 4.38 C 602.166 3.825 605.514 3.534 608.87 3.492 L 620.99 3.492 C 622.46 3.52 623.83 3.615 624.99 3.615 C 629.84 4.353 632.34 6.257 632.59 9.481 C 632.512 10.229 632.082 10.897 631.45 11.233 C 630.697 11.524 629.886 11.591 629.1 11.425 C 621.637 10.148 614.086 9.565 606.53 9.674 C 605.901 9.787 605.28 9.424 605.01 8.815 L 605.12 8.48 C 612.133 7.992 619.174 8.327 626.12 9.481 C 626.738 9.509 627.356 9.398 627.93 9.148 C 628.568 8.91 628.999 8.27 629.01 7.536 C 628.926 6.715 628.352 6.034 627.59 5.868 C 621.43 4.478 608.91 4.743 601.49 5.255 C 600.484 5.174 599.504 4.882 598.61 4.38 L 598.85 4.38 Z M 552.6 7.228 L 552.58 7.228 C 551.594 5.924 550.532 4.672 549.4 3.506 L 552.01 3.506 L 552 3.577 C 555.4 7.451 556.1 10.773 554.1 13.662 C 553.549 14.245 552.775 14.523 552.01 14.4 C 551.234 14.134 550.542 13.648 550.01 12.996 C 547.24 9.621 544.267 6.451 541.11 3.506 L 543.6 3.506 C 545.536 5.297 547.345 7.228 549.01 9.299 C 549.466 9.745 550.01 10.064 550.6 10.243 C 551.329 10.467 552.115 10.215 552.6 9.579 C 553.092 8.882 553.092 7.925 552.6 7.228 Z M 563.6 3.506 C 563.247 3.881 562.932 4.285 562.66 4.728 C 561.72 6.118 561.05 6.786 561.59 8.063 C 562.246 9.384 563.452 10.285 564.83 10.481 L 577.36 9.993 C 581.658 9.509 585.962 10.842 589.36 13.704 C 592.86 16.875 601.59 24.848 605.43 32.767 L 601.83 32.767 C 600.003 29.656 597.86 26.764 595.44 24.166 L 594.67 23.277 C 587.6 14.983 582.88 13.273 576.67 13.023 C 575.07 12.883 573.45 12.883 571.86 12.883 C 571.02 12.912 570.17 12.982 569.02 13.079 C 566.8 13.301 564.94 13.579 562.8 12.76 C 557.32 10.618 559.01 5.673 559.01 5.673 C 559.194 5.104 559.45 4.563 559.77 4.075 C 559.91 3.867 560.05 3.686 560.19 3.506 L 563.6 3.506 Z M 317.82 11.453 C 317.69 11.883 317.56 12.357 317.43 12.845 L 317.43 10.59 C 317.717 10.759 317.873 11.106 317.82 11.453 Z M 374.21 28.321 C 375.08 29.794 375.95 31.282 376.8 32.739 L 373.94 32.739 L 368.94 24.001 C 368.763 23.265 368.94 22.484 369.41 21.915 L 369.97 21.568 L 370.38 21.873 C 371.62 23.902 372.94 26.167 374.21 28.321 Z M 622.72 29.614 L 622.49 29.723 L 619.12 29.364 L 618.74 28.836 L 618.9 28.362 L 622.34 28.196 C 622.645 28.238 622.899 28.475 622.99 28.779 C 623.088 29.098 622.977 29.433 622.72 29.614 Z M 510.91 6.923 L 504.41 3.506 L 510.28 3.506 L 511.38 4.174 C 512.55 4.922 513.26 5.715 513.26 6.257 C 513.232 6.479 513.099 6.659 512.91 6.743 C 512.278 7.034 511.576 7.09 510.91 6.923 Z M 518.23 5.967 L 514.77 3.506 L 520.71 3.506 C 523.247 5.005 526.028 5.967 528.9 6.326 C 529.64 6.423 529.99 6.729 530 6.729 C 530.01 6.743 530.09 7.119 529.09 8.049 C 528.43 8.508 527.74 8.966 527.09 9.355 C 520.19 13.468 513.17 13.817 505.63 10.59 C 505.494 10.384 505.34 10.204 505.17 10.021 C 500.55 7.076 496.8 6.215 491.17 3.506 L 497.87 3.506 C 499.25 4.228 500.65 4.963 502.08 5.743 C 506.192 7.687 510.592 8.853 515.08 9.176 C 516.191 9.313 517.317 9.162 518.36 8.716 C 518.683 8.536 518.919 8.218 519.01 7.841 C 519.017 7.119 518.732 6.437 518.23 5.967 Z M 634.86 10.578 L 634.91 12.912 C 633.983 16.288 633.38 19.761 633.11 23.265 C 633.11 25.265 633.94 25.655 634.44 25.655 C 634.598 25.669 634.757 25.655 634.91 25.598 L 634.91 28.64 C 634.542 28.723 634.165 28.751 633.79 28.737 C 633.136 28.695 632.511 28.432 632.01 27.974 C 632.01 27.974 629.38 27.349 633.46 12.704 C 634.11 11.163 633.88 11.661 634.11 11.163 C 634.254 10.842 634.535 10.618 634.86 10.578 Z M 572.69 25.237 C 576.8 25.376 580.07 27.892 582.46 32.781 L 580.94 32.781 C 580.421 32.113 579.969 31.391 579.59 30.627 C 577.25 27.571 574.24 26.417 570.59 26.335 L 569.96 25.001 C 570.874 25.014 571.787 25.082 572.69 25.237 Z M 589.88 29.794 C 589.301 30.003 588.677 30.016 588.09 29.836 C 587.66 29.642 587.34 29.309 587.3 29.098 C 587.26 28.878 587.46 28.543 587.83 28.083 C 588.55 27.712 588.79 27.712 588.93 27.712 C 589.24 27.779 589.76 28.14 590.24 29.211 C 590.225 29.461 590.088 29.685 589.88 29.794 Z M 358.13 26.988 C 359.27 29.461 358.34 30.961 356.78 32.71 L 349.64 32.71 L 346.77 29.723 C 346.484 29.295 346.484 28.709 346.77 28.281 C 346.98 27.849 347.32 27.627 347.6 27.627 L 348.02 27.96 L 350.72 30.752 C 351.056 31.099 351.488 31.324 351.95 31.379 C 352.945 31.448 353.909 30.99 354.51 30.127 C 355.242 29.323 355.465 28.126 355.08 27.069 L 352.75 23.583 C 352.459 23.014 352.494 22.319 352.84 21.776 C 352.959 21.554 353.185 21.401 353.43 21.401 C 355.388 22.833 356.999 24.749 358.13 26.988 Z M 557.46 11.605 C 557.6 11.647 557.78 11.83 558.01 12.216 C 563.178 18.581 567.753 25.471 571.67 32.795 L 568.08 32.795 C 564.832 26.764 561.304 20.901 557.51 15.259 C 556.844 14.162 556.739 12.788 557.23 11.605 L 557.46 11.605 Z M 594.78 31.921 C 594.606 32.307 594.301 32.601 593.93 32.753 L 589.28 32.753 C 589.327 32.378 589.603 32.087 589.95 32.045 C 590.54 32.059 591.125 31.935 591.66 31.671 C 592.22 31.365 592.94 31.113 592.44 29.323 C 590.68 25.973 588.88 24.959 586.24 26.224 C 585.91 26.209 585.598 26.058 585.39 25.78 C 585.252 25.445 585.398 25.054 585.71 24.931 C 588.62 23.527 591.06 24.18 593.14 26.974 C 594.9 29.043 595.39 30.627 594.78 31.921 Z M 632.06 30.405 C 632.664 30.475 633.119 31.03 633.1 31.671 C 633.03 32.017 632.97 32.378 632.91 32.753 L 630.59 32.753 L 630.8 31.504 C 630.807 31.155 630.967 30.836 631.23 30.641 C 631.466 30.447 631.765 30.363 632.06 30.405 Z M 573.13 28.821 C 575.48 28.906 577.55 30.225 579.31 32.739 L 578.19 32.739 C 578.19 32.739 578.19 32.739 578.19 32.739 C 576.593 30.724 574.243 29.572 571.78 29.614 L 571.26 28.64 C 571.887 28.654 572.512 28.709 573.13 28.821 Z M 615.82 30.155 C 616.182 30.99 616.499 31.851 616.77 32.71 L 613.61 32.71 C 613.191 32.184 612.645 31.78 612.03 31.544 L 608.75 30.865 C 608.06 30.724 607.63 30.183 607.36 29.112 L 607.3 28.836 C 609.322 29.225 611.375 29.419 613.43 29.392 L 613.96 29.336 L 614.14 29.336 C 614.47 29.267 614.806 29.253 615.14 29.281 C 615.467 29.461 615.712 29.78 615.82 30.155 Z M 570.08 6.743 C 568.82 7.355 567.26 7.105 567.03 6.687 C 566.99 6.617 567.15 6.381 567.47 6.16 C 568.34 5.606 569.23 5.075 570.06 4.644 C 570.787 4.242 571.547 3.867 572.34 3.506 L 576.5 3.506 C 575.24 3.924 574.015 4.45 572.84 5.09 C 571.88 5.592 570.96 6.16 570.08 6.743 Z M 581.63 4.728 C 582.42 4.757 582.55 4.963 582.56 4.977 C 582.57 5.005 582.63 5.118 582.38 5.521 C 582.057 5.896 581.67 6.203 581.24 6.409 C 580.426 6.826 579.555 7.09 578.66 7.203 C 577.96 7.203 577.69 6.923 577.66 6.868 C 577.63 6.826 577.66 6.701 577.86 6.522 C 578.3 6.189 578.93 5.785 579.53 5.451 C 580.182 5.061 580.894 4.825 581.63 4.728 Z M 585.71 7.02 L 585.71 7.034 C 586.74 6.493 587.26 5.882 587.24 5.269 C 587.22 4.672 586.81 4.188 585.81 3.756 L 585.16 3.506 L 589.01 3.506 C 590.01 3.938 591.01 4.408 592.11 5.019 C 592.299 5.188 592.421 5.437 592.45 5.701 C 592.39 5.882 592.22 6.215 591.45 6.659 C 589.524 7.48 587.423 7.716 585.38 7.341 L 585.71 7.02 Z M 605.77 24.209 L 605.77 24.237 C 606.744 23.654 607.119 22.361 606.62 21.29 C 606.09 19.844 604.31 18.359 601.04 18.942 L 598.47 18.458 C 598.237 18.373 598.068 18.164 598.04 17.9 L 598.24 17.373 C 599.482 17.443 600.722 17.206 601.87 16.691 C 602.446 16.387 602.956 15.941 603.37 15.414 C 603.537 15.094 603.749 14.817 604 14.565 C 604.23 14.62 604.43 14.733 604.7 15.259 C 606.104 18.026 608.128 20.388 610.59 22.099 C 611.77 23.095 612.35 24.071 612.25 24.959 C 612.15 25.641 611.718 26.209 611.12 26.445 C 609.62 27.266 606.85 27.266 604 25.471 C 603.611 25.181 603.309 24.778 603.13 24.32 C 603.997 24.584 604.924 24.556 605.77 24.209 Z M 596.13 13.468 C 597.48 12.76 598.18 11.675 597.57 10.564 C 596.96 9.438 594.97 8.91 591.18 10.801 C 590.623 10.967 590.022 10.801 589.61 10.37 L 589.83 10.049 C 590.66 9.688 591.36 9.37 591.92 9.063 C 592.443 8.787 592.945 8.466 593.42 8.105 C 594.09 7.631 594.39 7.034 594.27 6.55 L 594.42 6.55 C 597.15 7.133 597.32 7.606 597.42 7.813 L 597.49 7.939 L 597.58 8.02 L 597.96 8.313 C 600.11 9.674 601.35 11.106 601.35 12.272 C 601.257 13.121 600.73 13.831 599.99 14.122 C 598.377 14.86 596.581 15.011 594.88 14.551 C 594.705 14.442 594.549 14.315 594.42 14.148 L 594.64 13.997 C 595.161 13.912 595.664 13.732 596.13 13.468 Z M 541.55 28.681 L 541.58 28.681 C 542.64 29.713 543.093 31.282 542.76 32.767 L 538.92 32.767 C 539.541 31.823 539.61 30.572 539.1 29.544 C 537.778 27.139 536.219 24.888 534.45 22.847 C 534.188 22.236 534.245 21.526 534.6 20.985 L 534.9 20.859 L 535.22 21.095 L 541.55 28.681 Z M 355.55 3.506 C 355.513 3.994 355.322 4.45 355.01 4.811 C 354.506 5.311 353.796 5.507 353.13 5.311 C 351.938 5.09 350.845 4.45 350.01 3.506 L 355.55 3.506 Z M 331.61 20.915 C 331.115 20.859 330.709 20.473 330.6 19.957 C 330.371 19.027 330.683 18.04 331.39 17.457 C 338.95 13.093 341.38 8.868 342.01 3.492 L 345.22 3.492 C 344.78 7.978 343.57 12.078 340.97 14.608 C 337.98 17.97 334.97 20.055 331.76 20.915 L 331.61 20.915 Z M 341.46 27.793 C 340.962 27.67 340.518 27.363 340.2 26.932 C 338.911 25.514 337.795 23.916 336.88 22.194 C 336.745 21.901 336.768 21.568 336.94 21.304 C 337.119 21.014 337.437 20.859 337.76 20.901 L 338.28 21.109 L 340.62 23.64 C 340.864 23.902 341.185 24.071 341.53 24.113 C 342.236 24.18 342.93 23.874 343.38 23.277 C 343.847 22.722 343.965 21.915 343.68 21.236 L 341.48 18.012 C 341.375 17.72 341.442 17.387 341.65 17.165 C 341.884 16.832 342.263 16.649 342.65 16.691 L 343.12 16.956 C 344.5 18.678 345.84 20.318 348.12 20.818 C 348.72 20.929 348.84 20.999 348.89 21.095 C 348.94 21.179 348.97 21.427 348.76 22.111 C 347.873 23.541 346.661 24.696 345.24 25.486 C 344.343 26.111 343.481 26.778 342.66 27.515 C 342.297 27.738 341.877 27.835 341.46 27.793 Z M 335.88 5.771 C 335.658 5.104 335.192 4.563 334.59 4.271 L 332.59 3.506 L 337.67 3.506 C 337.837 3.686 337.987 3.881 338.12 4.075 C 338.664 5.227 338.704 6.564 338.23 7.744 C 337.26 10.314 335.25 12.371 332.17 13.817 L 331.71 13.817 C 331.56 13.803 331.27 13.746 331.33 13.023 C 331.21 11.413 332.18 11.495 334.49 9.341 C 335.365 8.396 335.863 7.105 335.88 5.771 Z M 333.77 7.536 C 333.72 7.827 333.57 8.204 332.52 7.992 C 332.182 7.939 331.847 7.855 331.52 7.744 C 331.02 7.48 330.71 7.034 330.77 6.673 C 330.911 6.257 331.252 5.953 331.66 5.882 C 332.069 5.798 332.486 5.785 332.9 5.826 C 333.19 5.882 333.94 5.981 333.77 7.536 Z M 418.36 10.3 L 418.36 10.271 C 416.29 7.73 413.936 5.465 411.35 3.548 L 416.13 3.548 C 422.21 9.327 432.11 19.9 430.91 28.168 C 430.812 29.723 430.574 31.268 430.2 32.781 L 426.2 32.781 C 429.27 23.095 425.31 18.444 419.14 11.191 L 418.36 10.3 Z M 437.19 23.194 C 437.778 22.847 438.104 22.139 438.01 21.427 C 437.843 20.096 436.99 18.999 435.81 18.567 L 432.52 17.871 C 431.83 17.734 431.41 17.206 431.13 16.121 L 431.07 15.856 C 433.092 16.246 435.145 16.429 437.2 16.401 L 437.73 16.358 L 437.92 16.358 C 438.251 16.302 438.586 16.274 438.92 16.302 C 439.239 16.498 439.479 16.804 439.59 17.177 C 440.521 19.275 441.084 21.54 441.25 23.848 C 441.273 24.959 440.743 26.002 439.86 26.585 C 438.8 27.139 437.12 27.028 434.74 26.238 C 434.12 25.945 433.5 25.362 434.12 23.682 C 434.26 23.194 434.32 23.152 434.45 23.081 C 434.58 23 434.79 23.043 435.09 23.194 C 435.765 23.485 436.515 23.485 437.19 23.194 Z M 420.79 26.75 C 420.93 27.069 421.01 27.404 420.09 27.918 C 419.787 28.069 419.473 28.196 419.15 28.309 C 418.677 28.404 418.19 28.224 417.87 27.835 C 417.725 27.446 417.811 26.988 418.09 26.694 C 418.374 26.389 418.693 26.125 419.04 25.903 C 419.31 25.78 419.96 25.403 420.79 26.75 Z M 423.36 32.71 L 423.38 32.753 L 422.38 32.753 L 422.25 32.573 C 421.16 31.365 421.96 30.822 422.52 27.779 C 422.61 26.445 422.216 25.124 421.42 24.085 C 420.827 23.682 420.109 23.541 419.42 23.696 L 416.76 24.418 C 416.433 24.362 416.163 24.113 416.06 23.777 C 415.95 23.277 416.26 22.639 417.06 22.194 L 417.57 22 C 419.51 21.151 421.01 20.957 422.14 21.427 C 423.246 21.986 424.088 23.029 424.47 24.279 C 425.266 27.125 424.86 30.211 423.36 32.71 Z M 446.85 6.005 L 446.21 6.16 C 442.466 6.104 438.736 5.644 435.08 4.783 C 434.724 4.605 434.415 4.339 434.18 3.994 C 434.18 3.994 445.57 3.909 447.66 5.075 C 447.85 5.16 447.38 5.729 446.85 6.005 Z M 328.5 7.076 L 329.14 6.84 C 329.48 6.895 329.77 7.395 329.77 8.119 L 328.49 20.124 C 328.26 22.569 326.75 24.626 323.83 26.641 C 323.619 26.722 323.393 26.75 323.17 26.722 L 323.04 26.722 C 322.98 26.585 322.83 26.153 323.48 24.431 C 323.771 23.944 324.132 23.513 324.55 23.138 L 324.62 23.053 C 325.795 22.125 326.462 20.624 326.4 19.055 C 326.59 17.775 326.79 16.538 326.96 15.192 C 327.13 13.842 327.31 12.508 327.51 11.148 L 327.85 8.494 C 327.876 7.953 328.111 7.437 328.5 7.076 Z M 425.64 3.77 L 425.64 3.728 C 425.77 3.658 425.88 3.591 426.01 3.563 L 429.15 3.563 C 430.486 5.812 432.26 7.73 434.35 9.176 C 435.53 10.176 436.1 11.148 436.01 12.036 C 435.896 12.69 435.472 13.234 434.89 13.468 C 433.4 14.287 430.63 14.287 427.78 12.508 C 427.387 12.23 427.081 11.816 426.9 11.342 C 427.768 11.619 428.697 11.58 429.54 11.233 C 430.521 10.675 430.902 9.384 430.39 8.327 C 429.82 6.868 428.09 5.408 424.82 5.981 L 422.24 5.493 C 422.009 5.408 421.844 5.188 421.82 4.922 L 422.01 4.408 C 423.249 4.492 424.489 4.271 425.64 3.77 Z M 334.4 30.627 C 336.38 29.225 335.24 27.363 334.32 25.917 C 333.926 25.334 333.59 24.709 333.32 24.057 C 333.23 23.751 333.18 23.569 333.32 23.444 C 333.479 23.265 333.718 23.194 333.94 23.265 L 334.47 23.457 C 335.37 24.152 336.086 25.096 336.55 26.181 C 337.24 27.5 337.98 28.932 339.34 29.267 C 339.66 29.323 339.72 29.433 339.72 29.489 L 339.38 30.098 L 336.69 32.559 C 336.244 32.739 335.766 32.809 335.29 32.781 C 334.755 32.684 334.318 32.267 334.16 31.71 C 333.85 31.004 333.89 30.865 334.4 30.627 Z M 501.43 12.454 L 501.46 12.454 C 501.629 12.633 501.783 12.831 501.92 13.037 C 502.304 13.648 502.462 14.372 502.36 15.094 C 502.111 16.163 501.397 17.054 500.44 17.457 C 499.27 18.04 497.976 18.289 496.69 18.164 C 493.79 17.524 488.77 15.469 482.97 13.065 L 482.68 12.968 C 474.54 9.579 465.31 5.798 457.82 4.214 C 457.51 4.033 457.235 3.797 457.01 3.506 L 465.84 3.506 C 475.38 6.118 484.638 9.801 493.46 14.495 C 494.424 15.094 495.576 15.231 496.64 14.886 C 497.001 14.733 497.247 14.358 497.27 13.94 C 497.3 13.301 496.87 12.633 495.87 11.967 C 490.008 8.73 483.955 5.91 477.75 3.506 L 486.34 3.506 C 491.449 5.854 496.364 8.66 501.03 11.897 C 501.176 12.064 501.309 12.258 501.43 12.454 Z M 504.83 19.483 L 504.86 19.483 C 505.2 19.553 505.47 20.041 505.47 20.763 L 504.19 32.739 L 501.99 32.739 C 502.055 32.378 502.092 32.031 502.1 31.671 C 502.28 30.391 502.47 29.154 502.65 27.807 C 502.83 26.46 503.01 25.124 503.2 23.777 L 503.55 21.109 C 503.571 20.568 503.803 20.055 504.19 19.693 L 504.83 19.483 Z M 413.33 20.249 L 413.36 20.249 C 413.1 20.041 413.01 19.858 413.02 19.747 C 413.081 19.374 413.355 19.096 413.7 19.041 C 414.289 19.055 414.875 18.928 415.41 18.664 C 415.97 18.359 416.69 18.109 416.19 16.33 C 414.42 12.968 412.62 11.953 409.98 13.234 C 409.65 13.206 409.341 13.051 409.13 12.774 C 409 12.44 409.148 12.064 409.46 11.925 C 412.36 10.521 414.81 11.191 416.88 13.982 C 418.64 16.04 419.13 17.637 418.52 18.914 C 418.349 19.317 418.035 19.624 417.65 19.761 C 416.01 20.653 413.6 20.596 413.33 20.249 Z M 322.28 4.366 L 322.31 4.366 C 322.205 4.075 322.22 3.756 322.35 3.478 L 327.51 3.478 L 323.91 5.437 L 323.83 5.437 L 323.53 5.437 C 322.953 5.368 322.465 4.949 322.28 4.366 Z M 322.28 24.195 C 321.418 26.417 319.63 28.057 317.46 28.64 L 317.46 25.598 C 318.703 25.028 319.751 24.057 320.46 22.819 C 322.17 19.346 322.64 13.648 322.86 8.536 C 322.877 8.077 323.057 7.659 323.36 7.355 L 323.92 7.105 C 324.31 7.133 324.53 7.744 324.53 8.674 C 324.474 13.94 323.716 19.164 322.28 24.195 Z M 452.15 27.807 L 452.15 27.793 C 454.43 29.015 454.73 30.627 454.66 32.725 L 451.21 32.725 C 451.21 32.629 451.21 32.545 451.21 32.448 C 451.248 31.31 450.687 30.253 449.76 29.699 L 445.76 28.281 C 445.211 28.002 444.834 27.432 444.76 26.792 C 444.713 26.542 444.812 26.28 445.01 26.139 C 447.474 26.139 449.909 26.708 452.15 27.807 Z M 350.49 24.806 L 350.82 24.931 L 352.51 26.764 C 352.753 27.097 352.792 27.557 352.61 27.932 C 352.51 28.057 352.28 28.376 351.95 28.321 L 351.45 28.057 L 349.72 26.238 C 349.467 25.973 349.414 25.556 349.59 25.223 C 349.804 24.917 350.144 24.763 350.49 24.806 Z M 354.66 9.953 C 354.808 10.314 354.805 10.745 354.65 11.106 C 354.087 13.371 353.149 15.497 351.88 17.401 C 351.178 18.289 350.122 18.777 349.04 18.678 C 347.85 18.484 346.58 17.415 345.16 15.358 C 344.86 14.789 344.71 13.94 346.24 12.954 C 346.65 12.676 346.74 12.661 346.88 12.676 C 347.02 12.704 347.17 12.845 347.31 13.149 C 347.688 13.803 348.295 14.245 348.99 14.4 C 349.684 14.469 350.358 14.122 350.74 13.496 C 351.426 12.399 351.426 10.981 350.74 9.884 L 348.51 7.423 C 348.08 6.909 348.07 6.285 348.51 5.213 L 348.63 4.949 C 350.012 6.479 351.533 7.841 353.17 9.035 L 353.63 9.299 L 353.79 9.384 C 354.102 9.537 354.395 9.731 354.66 9.953 Z M 384.41 3.506 C 389.673 10.078 394.269 17.22 398.12 24.834 C 399.344 27.391 400.399 30.03 401.28 32.753 L 398.28 32.753 C 393.2 21.109 387.39 12.107 381.78 3.839 C 381.694 3.742 381.62 3.629 381.56 3.506 L 384.41 3.506 Z M 360.01 17.775 L 357.25 14.62 L 357.37 13.856 L 357.94 13.593 L 361.28 16.316 C 361.522 16.623 361.546 17.066 361.34 17.401 C 361.126 17.76 360.733 17.942 360.34 17.871 L 360.01 17.775 Z M 409.74 28.045 L 409.93 27.571 C 410.092 26.46 409.775 25.334 409.07 24.513 C 404.48 19.374 400.27 17.706 395.38 16.33 L 394.84 15.316 C 398.215 15.443 401.493 16.552 404.32 18.539 C 407.78 21.193 410.51 23 413.21 23.265 C 413.538 23.43 413.806 23.696 413.97 24.043 C 414.235 24.499 414.297 25.054 414.14 25.556 L 411.68 31.004 L 411.62 31.004 L 411.36 31.141 C 410.834 31.434 410.199 31.391 409.71 31.03 C 409.31 30.78 409.116 30.282 409.24 29.808 C 409.352 29.197 409.519 28.614 409.74 28.045 Z M 366.68 6.215 C 365.53 5.283 364.48 4.394 363.5 3.506 L 366.17 3.506 C 367.084 4.256 367.881 5.146 368.53 6.16 C 368.62 6.34 367.9 6.522 367.31 6.423 L 366.68 6.215 Z M 417.35 29.614 L 419.26 32.753 L 417.02 32.753 L 416.02 31.018 C 415.712 30.586 415.585 30.044 415.67 29.501 L 416.05 28.975 C 416.35 28.821 416.87 29.043 417.35 29.614 Z M 447.53 30.947 C 447.926 31.044 448.233 31.391 448.32 31.809 C 448.32 31.974 448.33 32.378 448.04 32.531 L 447.47 32.615 L 444.98 32.198 C 444.616 32.127 444.325 31.837 444.25 31.448 C 444.227 31.087 444.409 30.752 444.71 30.586 L 445.06 30.516 L 447.53 30.947 Z M 457.73 8.161 C 469.39 10.384 479.01 13.023 488.21 18.858 C 489.7 20.36 490.39 21.915 490.21 23.152 C 490.03 24.39 489.12 25.5 487.48 26.377 C 486.609 26.835 485.698 27.196 484.76 27.446 C 482.082 27.627 479.401 27.168 476.9 26.125 L 459.01 19.775 C 458.417 19.346 458.046 18.638 458.01 17.871 L 458.21 17.26 L 458.72 17.26 C 460.99 18.012 463.5 18.886 465.89 19.707 C 471.38 21.625 477.05 23.569 482.68 24.917 C 483.469 25.139 484.306 25.054 485.04 24.668 C 486.033 24.18 486.675 23.11 486.69 21.944 C 486.584 20.804 485.869 19.83 484.86 19.455 C 475.66 14.926 467.08 12.427 458.38 10.049 C 457.828 9.688 457.459 9.063 457.38 8.383 L 457.55 8.161 L 457.73 8.161 Z M 496.54 21.276 L 496.49 21.304 C 496.56 21.318 496.75 21.625 496.83 22.194 C 496.707 25.78 496.086 29.323 494.99 32.71 L 493.52 32.71 L 495.77 22.125 C 495.99 21.54 496.38 21.276 496.54 21.276 Z M 456.23 12.676 L 456.27 12.371 C 464.888 14.093 473.311 16.804 481.4 20.431 C 481.68 20.624 481.85 20.859 481.85 21.095 L 481.62 21.47 L 481.15 21.526 C 472.881 19.568 464.733 17.054 456.75 14.011 C 456.397 13.676 456.206 13.192 456.23 12.676 Z M 448.34 19.247 L 448.02 19.374 L 443.88 18.498 L 443.49 17.829 L 443.79 17.26 L 448.12 17.457 C 448.489 17.553 448.77 17.871 448.83 18.275 C 448.881 18.678 448.683 19.081 448.34 19.247 Z M 442.01 12.954 L 451.48 14.414 C 453.591 14.483 455.356 16.149 455.69 18.402 C 455.881 19.886 455.69 21.415 455.14 22.805 C 454.919 23.265 454.569 23.64 454.14 23.874 C 453.543 24.138 452.891 24.237 452.25 24.138 L 445.25 23.067 C 444.659 22.847 444.241 22.291 444.18 21.625 C 444.125 21.332 444.217 21.056 444.42 20.859 L 449.82 21.276 C 450.359 21.415 450.924 21.361 451.43 21.109 C 452.051 20.763 452.401 20.027 452.31 19.275 C 452.163 18.055 451.391 17.012 450.31 16.594 C 447.803 15.691 445.221 15.052 442.6 14.676 C 442.032 14.428 441.617 13.884 441.49 13.234 L 441.63 12.954 L 442.01 12.954 Z M 458.09 32.212 L 459.79 32.753 L 456.91 32.753 C 456.91 32.71 456.91 32.615 456.91 32.615 C 456.874 32.363 456.939 32.113 457.09 31.907 L 458.09 32.212 Z M 451.09 6.132 C 451.039 5.16 450.654 4.242 450.01 3.563 L 452.93 3.563 C 453.961 5.394 454.278 7.592 453.81 9.674 C 453.589 10.148 453.239 10.521 452.81 10.759 C 451.516 11.177 450.155 11.314 448.81 11.163 L 448.07 11.163 C 445.333 11.064 442.608 10.731 439.92 10.162 C 438.788 9.856 437.812 9.077 437.2 8.006 L 437.27 7.925 L 437.51 7.925 L 448.4 8.452 C 448.952 8.494 449.505 8.383 450.01 8.147 C 450.704 7.758 451.126 6.978 451.09 6.132 Z M 325.77 30.724 C 325.8 31.419 325.911 32.101 326.1 32.753 L 324.39 32.753 C 324.16 31.615 324.039 30.461 324.03 29.309 C 323.87 28.154 324.29 27.793 324.93 27.641 C 325.366 27.391 325.856 27.28 326.35 27.294 C 326.736 27.294 327.101 27.474 327.35 27.793 C 327.35 27.793 328.04 31.113 327.35 30.907 C 327.16 31.004 326.89 30.586 326.68 30.086 C 326.54 29.78 325.77 30.292 325.77 30.724 Z M 329.57 25.124 C 330.937 27.377 331.514 30.086 331.2 32.753 L 329.53 32.753 C 329.587 31.615 329.459 30.489 329.15 29.392 L 329.09 29.267 C 328.731 28.031 328.639 26.722 328.82 25.431 C 328.96 24.903 329.16 24.709 329.16 24.709 C 329.324 24.806 329.465 24.959 329.57 25.124 Z M 319.76 9.162 C 319.93 8.589 320.29 8.285 320.37 8.299 C 320.45 8.299 320.63 8.575 320.7 9.148 C 320.74 14.358 320.18 18.416 318.98 21.554 C 318.84 22.014 318.51 22.139 318.38 22.125 C 318.25 22.111 318.01 22.07 318.01 21.625 L 319.76 9.162 Z M 318.1 30.489 C 318.27 30.489 318.53 30.766 318.6 31.573 C 318.52 31.96 318.52 32.363 318.52 32.753 L 317.43 32.753 L 317.43 32.24 C 317.48 31.865 317.52 31.49 317.58 31.099 C 317.61 30.794 317.82 30.544 318.1 30.489 Z M 321.45 28.614 C 321.9 30.058 322.28 31.434 322.63 32.71 L 320.32 32.71 C 320.25 32.127 320.16 31.53 320.06 30.921 C 319.982 29.947 320.218 28.961 320.73 28.154 L 321.01 28.154 L 321.45 28.614 Z M 493.07 23.388 C 493.51 23.777 493.52 24.029 493.47 24.334 C 492.416 27.057 491.567 29.878 490.93 32.753 L 489.15 32.753 L 491.41 25.471 C 491.66 25.014 491.93 24.445 492.21 23.944 C 492.401 23.626 492.719 23.416 493.07 23.388 Z M 407.21 25.697 C 407.55 26.002 407.68 27.821 406.57 27.014 C 403.664 24.237 400.52 21.762 397.18 19.624 L 396.72 18.777 C 398.98 19.402 404.38 22.791 407.21 25.697 Z M 487.86 27.96 C 487.94 27.974 488.1 28.295 488.07 28.892 C 487.86 30.253 487.63 31.544 487.36 32.753 L 485.77 32.753 L 487.02 28.737 C 487.29 28.182 487.71 27.96 487.86 27.96 Z M 414.01 16.218 C 414.013 16.483 413.873 16.734 413.65 16.846 C 413.068 17.026 412.452 17.026 411.87 16.846 C 411.43 16.635 411.12 16.302 411.08 16.094 C 411.04 15.885 411.24 15.538 411.61 15.08 C 411.932 14.845 412.317 14.719 412.71 14.719 C 413.01 14.775 413.53 15.136 414.01 16.218 Z M 390.69 7.508 C 391.977 7.437 393.268 7.48 394.55 7.621 C 400.69 7.536 405.69 11.259 409.48 18.777 L 409.77 19.469 L 409.42 19.469 C 407.93 19.221 406.29 17.609 404.62 14.69 C 401.12 10.618 396.81 9.204 391.69 9.327 L 390.69 7.508 Z M 401.12 5.981 L 401.08 5.981 C 400.09 6.493 399.71 6.062 399.67 5.995 C 399.63 5.924 399.65 5.644 399.98 5.34 L 400.36 5.146 C 403.22 3.615 405.82 3.117 409.14 5.771 C 409.76 6.271 410.108 7.076 410.07 7.911 C 409.953 8.563 409.554 9.105 409 9.37 C 408.525 9.607 407.997 9.688 407.48 9.607 L 407.26 9.077 C 408.06 8.632 408.26 8.355 408.26 7.772 C 408.273 7.147 407.951 6.564 407.43 6.271 C 404.61 4.103 402.71 5.118 401.12 5.981 Z M 403.49 6.673 L 403.45 6.659 C 404.61 6.215 405.42 6.659 405.75 7.298 C 405.86 7.536 405.95 7.953 405.65 8.077 C 405.266 8.189 404.858 8.161 404.49 8.006 C 403.42 7.536 403.26 7.133 403.26 7.105 C 403.26 7.062 403.27 6.923 403.49 6.673 Z M 389.49 5.269 L 389.01 4.271 C 389.736 3.952 390.485 3.7 391.25 3.506 L 397.13 3.506 L 397.61 3.7 L 397.91 3.825 C 397.96 3.909 397.67 4.394 396.91 4.797 C 396.417 5.104 395.841 5.213 395.28 5.118 C 394.01 4.075 391.49 4.644 389.49 5.269 Z M 456.01 27.363 C 461.719 27.863 467.292 29.501 472.44 32.198 L 472.56 32.559 L 472.42 32.753 L 470.13 32.753 L 457.47 29.098 C 456.776 28.765 456.244 28.14 456.01 27.363 Z M 483.01 30.098 C 483.28 29.544 483.77 29.323 483.85 29.336 C 483.93 29.35 484.06 29.67 484.06 30.253 C 483.93 31.127 483.79 31.96 483.63 32.753 L 482.19 32.753 L 483.01 30.098 Z M 479.46 32.753 L 475.77 32.739 C 475.77 32.684 475.77 32.615 475.77 32.573 C 475.728 31.53 475.148 30.614 474.27 30.183 C 469.47 27.557 464.339 25.711 459.04 24.682 C 458.529 24.556 458.12 24.138 457.97 23.612 C 457.975 23.25 458.16 22.944 458.45 22.777 C 458.729 22.653 459.031 22.611 459.33 22.639 C 468.47 24.987 475 27.446 477.22 29.295 C 478.222 30.225 478.992 31.419 479.46 32.753 Z M 344.73 29.766 C 345.476 30.681 346.126 31.684 346.67 32.753 L 343.97 32.753 L 343.46 31.766 C 343.23 31.141 343.333 30.419 343.73 29.906 C 343.88 29.656 344.127 29.501 344.4 29.475 L 344.73 29.766 Z M 441.43 32.753 C 441.75 31.696 441.839 30.586 441.69 29.489 C 441.44 28.807 441.28 28.64 441.17 28.585 C 441.06 28.543 440.92 28.557 440.38 28.836 C 438.26 29.794 436.19 29.281 434.02 28.723 L 433.48 28.779 C 433.145 28.975 432.94 29.35 432.95 29.766 C 432.928 30.086 433.075 30.391 433.33 30.544 L 437.1 31.851 C 437.451 32.059 437.737 32.363 437.92 32.753 L 441.43 32.753 Z" style=""/>
  <rect class="cls-3" y="-3.928" width="635.01" height="6.48" style="" transform="matrix(1, 0, 0, -1, 0, 0)"/>
</svg>