<?xml version="1.0" encoding="utf-8"?>
<svg id="Capa_1" data-name="Capa 1" viewBox="0 0 635.01 33" xmlns="http://www.w3.org/2000/svg">
  <defs>
    <style>.cls-1{fill:#13322b;}.cls-2{fill:#235b4e;}.cls-3{fill:#d4c19c;}</style>
  </defs>
  <title>pleca plumaje_con fondo</title>
  <rect class="cls-1" x="0.01" width="635" height="35.64" style="fill: rgb(203, 182, 153);" transform="matrix(1, 0, 0, -1, 0, 0)" y="-33.088"/>
  <path class="cls-2" d="M 201.91 29.697 C 202.691 30.966 203.595 32.114 204.6 33.097 L 201.43 33.097 L 200.26 30.966 C 200.161 30.612 200.231 30.204 200.44 29.933 C 200.679 29.528 201.055 29.325 201.44 29.357 L 201.91 29.697 Z M 230.11 28.042 L 230.35 27.805 C 231.403 29.579 232.427 31.355 233.42 33.097 L 231.05 33.097 C 230.58 31.948 230.06 30.812 229.58 29.661 C 229.567 29.053 229.76 28.464 230.11 28.042 Z M 210.63 10.636 L 210.59 10.585 C 211.694 10.689 212.702 9.76 213.01 8.37 C 213.239 7.526 213.239 6.596 213.01 5.75 C 213.767 5.345 214.441 4.701 214.98 3.89 C 214.834 6.679 215.106 9.47 215.78 12.124 C 216.11 13.883 215.97 15.255 215.35 16.051 C 214.859 16.641 214.177 16.86 213.53 16.659 C 211.84 16.37 209.63 14.375 208.45 10.604 C 208.313 10.028 208.313 9.403 208.45 8.827 C 208.995 9.741 209.766 10.382 210.63 10.636 Z M 222.84 4.465 L 222.8 4.414 C 220.93 2.231 219.33 0.354 218.27 -0.998 C 218.014 -1.386 217.866 -1.876 217.85 -2.385 L 219.53 -2.385 C 225.74 4.025 230.08 9.892 233.08 15.912 C 233.75 18.503 232.17 23.526 229.4 25.637 C 228.902 25.876 228.36 25.928 227.84 25.775 C 226.571 25.132 225.42 24.149 224.46 22.88 L 223.89 22.257 C 221.836 19.902 219.948 17.299 218.25 14.493 C 217.576 13.275 217.342 11.736 217.61 10.281 L 217.72 10.281 L 217.9 10.486 L 226.01 20.023 C 226.429 20.531 226.938 20.885 227.49 21.053 C 228.327 21.292 229.195 20.935 229.78 20.124 C 230.702 18.84 231.01 16.995 230.58 15.337 C 230.16 13.003 226.44 8.659 222.84 4.465 Z M 214.15 28.38 L 217.99 33.147 L 214.62 33.147 L 213.24 31.152 C 212.939 30.408 213.015 29.511 213.43 28.886 C 213.594 28.582 213.861 28.396 214.15 28.38 Z M 249.9 17.928 L 249.86 17.928 C 251.161 17.842 252.465 17.875 253.76 18.061 C 259.91 17.96 264.9 22.493 268.69 31.659 L 268.98 32.489 L 268.64 32.489 C 267.14 32.185 265.51 30.223 263.84 26.684 C 260.33 21.714 256.03 19.991 250.9 20.144 L 249.9 17.928 Z M 266.01 20.109 C 266.81 19.569 267.01 19.229 267.1 18.518 C 267.12 18.078 267.03 17.42 266.27 16.691 C 263.44 14.054 261.55 15.304 259.96 16.355 C 258.97 16.93 258.45 16.438 258.41 16.355 C 258.37 16.252 258.4 15.931 258.73 15.559 L 259.11 15.304 C 261.97 13.461 264.56 12.853 267.89 16.083 C 268.514 16.691 268.859 17.674 268.81 18.689 C 268.701 19.466 268.304 20.144 267.75 20.464 C 267.276 20.749 266.747 20.853 266.23 20.749 L 266.01 20.109 Z M 216.17 24.453 L 219.41 28.207 C 219.624 28.597 219.624 29.122 219.41 29.528 C 219.169 29.969 218.743 30.17 218.34 30.037 L 218.01 29.866 L 215.37 25.687 L 215.55 24.742 L 216.17 24.453 Z M 262.24 17.217 L 262.24 17.181 C 263.41 16.606 264.21 17.149 264.5 17.996 C 264.62 18.283 264.7 18.773 264.41 18.925 C 264.023 19.058 263.612 19.043 263.24 18.84 C 262.18 18.264 262.02 17.757 262.02 17.722 C 262.02 17.692 262.02 17.521 262.24 17.217 Z M 207.83 26.669 L 207.83 26.634 C 208.511 26.684 209.161 26.262 209.53 25.504 C 210.228 24.184 210.228 22.443 209.53 21.123 L 207.34 18.078 C 206.92 17.453 206.91 16.606 207.34 15.39 L 207.46 15.068 C 208.846 16.93 210.37 18.587 212.01 20.042 L 212.43 20.464 L 212.59 20.566 C 212.899 20.734 213.188 20.971 213.45 21.239 C 213.578 21.664 213.578 22.139 213.45 22.544 C 212.883 25.299 211.945 27.903 210.68 30.223 C 209.999 31.321 208.961 31.929 207.88 31.881 C 206.7 31.659 205.43 30.341 204.01 27.835 C 203.71 27.109 203.56 26.109 205.09 24.911 C 205.5 24.573 205.57 24.539 205.72 24.573 C 205.87 24.592 206.01 24.757 206.15 25.147 C 206.538 25.908 207.14 26.469 207.83 26.669 Z M 233.63 24.285 L 233.76 24.453 C 235.66 27.398 237.44 30.273 239.08 33.132 L 236.46 33.132 C 235.33 30.966 234.17 28.836 233 26.684 C 232.832 25.876 232.965 25.029 233.36 24.37 L 233.63 24.285 Z M 237.16 15.559 L 237.45 15.948 C 240.35 21.275 243.44 27.009 246.35 33.132 L 242.81 33.132 C 240.853 28.532 238.64 24.117 236.19 19.938 C 235.899 18.518 236.145 17.014 236.85 15.863 L 237.16 15.559 Z M 225.92 16.083 L 225.92 16.051 C 223.076 12.937 220.504 9.42 218.25 5.563 C 218.102 5.091 218.053 4.566 218.11 4.076 C 218.11 4.076 227.04 13.41 227.85 16.219 C 227.93 16.421 227.17 16.606 226.55 16.421 L 225.92 16.083 Z M 62.31 33.097 C 59.38 27.564 56.62 21.85 54.07 15.998 C 54.044 15.372 54.232 14.782 54.58 14.358 L 54.81 14.121 C 58.567 20.076 61.945 26.416 64.91 33.097 L 62.31 33.097 Z M 58.06 10.518 L 58.18 10.672 C 63.24 18.33 67.45 25.352 70.61 33.097 L 67.77 33.097 C 64.649 26.095 61.206 19.362 57.46 12.92 C 57.277 12.124 57.396 11.265 57.78 10.604 L 58.06 10.518 Z M 53.19 9.656 C 52.73 9.96 52.211 10.078 51.7 9.996 C 50.442 9.485 49.28 8.659 48.29 7.526 L 47.7 6.983 C 45.589 4.92 43.619 2.621 41.81 0.119 C 41.36 -0.643 41.058 -1.538 40.93 -2.505 L 42.53 -2.505 L 49.53 4.566 C 49.962 5.005 50.47 5.294 51.01 5.412 C 51.839 5.598 52.675 5.156 53.19 4.297 C 53.986 2.959 54.162 1.166 53.65 -0.39 C 53.393 -1.183 53.019 -1.897 52.55 -2.505 L 54.55 -2.505 C 55.09 -1.69 55.6 -0.879 56.08 -0.068 C 56.89 2.37 55.7 7.357 53.19 9.656 Z M 44.01 28.38 L 44.01 28.411 C 45.348 29.851 46.611 31.405 47.79 33.062 L 45.31 33.062 L 44.11 31.137 C 43.754 30.288 43.717 29.275 44.01 28.38 Z M 48.81 25.775 C 49.099 25.84 49.368 26.011 49.59 26.262 C 51.203 28.7 52.627 30.966 53.86 33.097 L 51.45 33.097 C 50.41 31.373 49.3 29.697 48.1 28.056 C 47.768 27.552 47.698 26.823 47.92 26.212 C 48.14 25.876 48.475 25.707 48.81 25.775 Z M 189.57 17.181 C 189.7 16.641 190.047 16.237 190.47 16.134 C 190.882 16.066 191.298 16.066 191.71 16.134 C 192.01 16.202 192.76 16.32 192.59 18.214 C 192.53 18.587 192.38 19.026 191.31 18.855 C 190.972 18.773 190.637 18.689 190.31 18.551 C 189.81 18.146 189.51 17.624 189.57 17.181 Z M 41.69 4.312 L 48.37 12.566 C 50.012 14.189 50.409 17.2 49.28 19.466 C 48.506 21.106 47.425 22.458 46.14 23.388 C 45.684 23.677 45.173 23.795 44.67 23.692 C 44.049 23.541 43.473 23.169 43.01 22.611 L 38.08 16.488 C 37.729 15.845 37.729 14.966 38.08 14.325 C 38.218 14.003 38.463 13.799 38.74 13.767 L 42.87 18.061 C 43.231 18.587 43.718 18.94 44.25 19.058 C 44.976 19.162 45.685 18.722 46.08 17.928 C 46.704 16.691 46.704 15.101 46.08 13.868 C 44.622 11.161 42.945 8.674 41.08 6.445 C 40.78 5.767 40.78 4.92 41.08 4.247 L 41.36 4.076 L 41.69 4.312 Z M 199.77 26.838 L 199.77 26.855 C 197.988 29.393 195.879 31.506 193.54 33.097 L 189.41 33.097 C 189.246 32.013 189.565 30.916 190.23 30.257 C 191.19 29.579 192.06 28.935 192.87 28.278 L 192.41 27.717 L 192.98 28.192 C 199.34 22.951 200.83 17.96 200.98 10.79 L 204.2 9.844 C 204.08 16.81 202.99 23.019 199.77 26.838 Z M 190.5 25.858 L 190.5 25.876 C 190.35 25.84 190.07 25.775 190.13 24.877 C 190.01 22.951 191.01 22.983 193.33 20.413 C 194.203 19.244 194.701 17.692 194.72 16.051 C 194.483 15.239 194.003 14.576 193.39 14.24 L 190.82 13.024 C 190.593 12.734 190.53 12.277 190.66 11.905 C 191.077 11.196 191.769 10.889 192.43 11.094 L 192.97 11.265 C 195.04 11.854 196.35 12.699 196.97 14.003 C 197.511 15.39 197.551 17.029 197.08 18.45 C 196.11 21.599 194.1 24.102 191.01 25.858 L 190.5 25.858 Z M 182.93 18.011 C 183.35 18.096 183.57 18.872 183.52 20.006 C 183.208 24.438 182.596 28.818 181.69 33.097 L 179.69 33.097 C 180.701 28.732 181.371 24.232 181.69 19.702 C 181.742 19.147 181.961 18.621 182.3 18.283 L 182.93 18.011 Z M 82.09 22.426 C 85.271 25.048 88.029 28.464 90.21 32.469 C 90.305 32.674 90.389 32.879 90.46 33.097 L 87.46 33.097 C 86.777 30.561 85.556 28.327 83.94 26.655 L 82.09 22.426 Z M 95.57 32.589 C 95.84 32.421 96.21 32.607 96.59 33.097 L 95.29 33.097 L 95.57 32.589 Z M 61.77 2.113 C 66.94 11.246 72.59 21.629 77.01 33.097 L 73.26 33.097 C 69.41 23.76 65.07 13.309 60.56 6.103 C 60.248 4.701 60.479 3.179 61.18 2.028 L 61.48 1.724 L 61.77 2.113 Z M 256.01 32.946 L 255.54 31.895 C 256.323 32.199 257.083 32.607 257.81 33.097 L 256.19 33.097 L 256.01 32.946 Z M 305.64 16.32 L 305.01 16.541 C 301.265 16.474 297.535 15.897 293.88 14.814 C 293.521 14.611 293.208 14.272 292.97 13.868 C 292.97 13.868 304.36 13.767 306.45 15.171 C 306.64 15.272 306.17 15.965 305.64 16.32 Z M 247.76 14.257 C 250.39 12.819 254.31 12.363 256.4 13.545 L 256.71 13.699 C 256.71 13.817 256.47 14.408 255.71 14.901 C 255.215 15.272 254.64 15.39 254.08 15.272 C 252.81 14.003 250.29 14.696 248.29 15.475 L 247.76 14.257 Z M 311.01 32.032 C 310.892 32.454 310.684 32.828 310.41 33.097 L 302.92 33.097 C 302.576 32.843 302.321 32.421 302.21 31.914 C 302.133 31.659 302.167 31.355 302.3 31.152 L 306.61 31.034 C 307.039 31.116 307.477 31.017 307.85 30.73 C 308.305 30.308 308.499 29.543 308.33 28.836 C 308.066 27.652 307.346 26.72 306.43 26.401 C 304.367 25.74 302.26 25.352 300.14 25.25 C 299.656 25.048 299.269 24.556 299.09 23.931 L 299.17 23.642 L 299.46 23.576 L 307.13 24.149 C 308.85 24.066 310.397 25.504 310.91 27.652 C 311.244 29.072 311.279 30.592 311.01 32.032 Z M 309.84 10.418 C 311.69 11.687 313.22 16.334 312.36 19.923 C 312.133 20.478 311.785 20.935 311.36 21.224 C 310.068 21.765 308.71 21.968 307.36 21.815 L 306.63 21.815 C 303.915 21.765 301.207 21.446 298.53 20.853 C 297.425 20.549 296.459 19.687 295.85 18.45 L 295.92 18.33 L 296.16 18.33 L 306.96 18.689 C 307.515 18.722 308.068 18.571 308.57 18.264 C 309.274 17.825 309.719 16.896 309.71 15.863 C 309.645 14.174 308.877 12.667 307.71 11.938 C 306.17 10.654 301.23 10.518 296.43 10.382 C 293.95 10.317 291.81 10.247 290.27 10.061 C 289.628 9.996 289.079 9.435 288.87 8.641 L 289 8.184 C 297.55 7.796 304.18 8.455 309.84 10.418 Z M 281.42 -1.437 C 284.736 -2.098 288.085 -2.452 291.44 -2.505 L 303.55 -2.505 C 305.02 -2.452 306.39 -2.334 307.55 -2.334 C 312.4 -1.454 314.9 0.879 315.15 4.802 C 315.072 5.716 314.642 6.51 314.01 6.918 C 313.276 7.239 312.491 7.321 311.73 7.136 C 304.267 5.581 296.716 4.852 289.16 4.988 C 288.531 5.126 287.91 4.701 287.64 3.943 L 287.7 3.518 C 294.713 2.925 301.754 3.332 308.7 4.719 C 309.318 4.769 309.936 4.633 310.51 4.329 C 311.148 4.04 311.579 3.249 311.59 2.37 C 311.496 1.372 310.918 0.556 310.16 0.372 C 304 -1.321 291.49 -0.998 284.06 -0.375 C 283.052 -0.474 282.068 -0.829 281.17 -1.437 L 281.42 -1.437 Z M 235.17 2.028 L 235.15 2.028 C 234.145 0.44 233.063 -1.082 231.91 -2.505 L 234.52 -2.505 L 234.6 -2.417 C 237.99 2.3 238.7 6.342 236.7 9.859 C 236.144 10.571 235.368 10.908 234.6 10.756 C 233.823 10.433 233.129 9.844 232.6 9.048 C 229.821 4.94 226.841 1.098 223.68 -2.505 L 226.17 -2.505 C 228.079 -0.324 229.861 2.028 231.5 4.551 C 231.98 5.106 232.552 5.495 233.17 5.702 C 233.899 5.97 234.685 5.666 235.17 4.887 C 235.662 4.04 235.662 2.875 235.17 2.028 Z M 246.17 -2.505 C 245.789 -2.062 245.447 -1.555 245.15 -1.015 C 244.21 0.674 243.54 1.49 244.09 3.043 C 244.739 4.651 245.943 5.75 247.32 5.985 L 259.85 5.398 C 264.148 4.802 268.452 6.428 271.85 9.91 C 275.35 13.767 284.08 23.475 287.92 33.111 L 284.32 33.111 C 282.493 29.325 280.35 25.808 277.93 22.647 L 277.16 21.564 C 270.14 11.465 265.42 9.388 259.21 9.081 C 257.61 8.91 255.99 8.91 254.4 8.91 C 253.56 8.945 252.71 9.031 251.56 9.152 C 249.34 9.42 247.48 9.76 245.34 8.759 C 239.86 6.156 241.55 0.134 241.55 0.134 C 241.743 -0.558 242.012 -1.219 242.35 -1.809 C 242.476 -2.047 242.613 -2.284 242.76 -2.505 L 246.17 -2.505 Z M 0.39 7.171 C 0.26 7.697 0.13 8.272 0.01 8.862 L 0.01 6.124 C 0.293 6.324 0.445 6.749 0.39 7.171 Z M 56.78 27.702 C 57.65 29.496 58.52 31.306 59.41 33.079 L 56.51 33.079 L 51.51 22.443 C 51.333 21.546 51.51 20.599 51.98 19.902 L 52.55 19.48 L 52.95 19.854 C 54.19 22.325 55.51 25.082 56.78 27.702 Z M 305.29 29.275 L 305.06 29.41 L 301.69 28.971 L 301.31 28.327 L 301.48 27.752 L 304.91 27.552 C 305.216 27.599 305.471 27.871 305.56 28.26 C 305.658 28.65 305.547 29.053 305.29 29.275 Z M 193.48 1.656 L 187.01 -2.505 L 192.86 -2.505 L 193.95 -1.69 C 195.12 -0.778 195.83 0.186 195.83 0.847 C 195.802 1.116 195.669 1.337 195.48 1.437 C 194.848 1.794 194.146 1.859 193.48 1.656 Z M 200.8 0.493 L 197.34 -2.505 L 203.28 -2.505 C 205.827 -0.679 208.618 0.493 211.5 0.93 C 212.24 1.048 212.59 1.42 212.6 1.42 C 212.61 1.437 212.69 1.895 211.69 3.028 C 211.03 3.583 210.34 4.143 209.69 4.616 C 202.79 9.624 195.77 10.045 188.23 6.124 C 188.094 5.87 187.94 5.649 187.77 5.427 C 183.15 1.844 179.4 0.797 173.77 -2.505 L 180.48 -2.505 C 181.85 -1.625 183.25 -0.726 184.68 0.221 C 188.792 2.585 193.192 4.006 197.68 4.397 C 198.791 4.566 199.917 4.38 200.96 3.839 C 201.283 3.618 201.519 3.229 201.61 2.771 C 201.614 1.895 201.317 1.048 200.8 0.493 Z M 317.43 6.103 L 317.45 8.945 C 316.522 13.056 315.922 17.267 315.66 21.546 C 315.65 23.981 316.48 24.453 316.98 24.453 C 317.138 24.474 317.297 24.453 317.45 24.385 L 317.45 28.109 C 317.082 28.207 316.705 28.242 316.33 28.207 C 315.678 28.175 315.055 27.856 314.56 27.295 C 314.56 27.295 311.97 26.534 316.03 8.694 C 316.68 6.817 316.45 7.425 316.68 6.817 C 316.824 6.428 317.105 6.156 317.43 6.103 Z M 255.26 23.948 C 259.37 24.117 262.64 27.176 265.01 33.132 L 263.51 33.132 C 262.991 32.317 262.539 31.439 262.16 30.508 C 259.82 26.788 256.81 25.383 253.16 25.282 L 252.53 23.659 C 253.444 23.677 254.357 23.76 255.26 23.948 Z M 272.45 29.496 C 271.871 29.748 271.247 29.765 270.66 29.543 C 270.23 29.308 269.91 28.903 269.87 28.65 C 269.83 28.38 270.03 27.974 270.4 27.413 C 270.727 27.127 271.113 26.959 271.51 26.959 C 271.81 27.044 272.33 27.48 272.81 28.783 C 272.795 29.087 272.658 29.357 272.45 29.496 Z M 40.71 26.079 C 41.85 29.087 40.91 30.916 39.36 33.044 L 32.21 33.044 L 29.34 29.41 C 28.97 28.954 29.13 28.175 29.34 27.652 C 29.55 27.127 29.89 26.855 30.17 26.855 L 30.59 27.26 L 33.29 30.66 C 33.626 31.084 34.058 31.355 34.52 31.424 C 35.516 31.524 36.481 30.951 37.08 29.9 C 37.812 28.92 38.035 27.466 37.65 26.18 L 35.33 21.933 C 35.044 21.239 35.079 20.395 35.42 19.734 C 35.539 19.466 35.765 19.28 36.01 19.28 C 37.967 21.024 39.578 23.355 40.71 26.079 Z M 240.01 7.357 C 240.18 7.408 240.35 7.627 240.59 8.1 C 245.744 15.813 250.309 24.184 254.22 33.062 L 250.63 33.062 C 247.382 25.722 243.854 18.602 240.06 11.721 C 239.414 10.418 239.312 8.777 239.79 7.357 L 240.01 7.357 Z M 277.35 32.081 C 277.176 32.537 276.877 32.911 276.51 33.097 L 271.85 33.097 C 271.897 32.64 272.173 32.285 272.52 32.233 C 273.113 32.252 273.701 32.1 274.24 31.777 C 274.79 31.405 275.51 31.101 275.01 28.92 C 273.24 24.843 271.45 23.608 268.8 25.147 C 268.473 25.132 268.165 24.946 267.96 24.607 C 267.83 24.202 267.978 23.727 268.29 23.576 C 271.19 21.868 273.63 22.659 275.71 26.061 C 277.47 28.582 277.96 30.508 277.35 32.081 Z M 314.63 30.237 C 315.234 30.322 315.689 30.999 315.67 31.777 C 315.6 32.199 315.54 32.64 315.48 33.097 L 313.16 33.097 L 313.37 31.574 C 313.377 31.152 313.537 30.763 313.8 30.527 C 314.036 30.288 314.335 30.187 314.63 30.237 Z M 255.7 28.31 C 258.01 28.411 260.12 30.016 261.88 33.079 L 260.76 33.079 C 260.76 33.079 260.76 33.079 260.76 33.079 C 259.163 30.626 256.813 29.224 254.35 29.275 L 253.83 28.088 C 254.457 28.109 255.082 28.175 255.7 28.31 Z M 298.39 29.933 C 298.756 30.951 299.076 31.996 299.35 33.044 L 296.19 33.044 C 295.772 32.406 295.226 31.914 294.61 31.625 L 291.33 30.797 C 290.64 30.626 290.22 29.969 289.94 28.664 L 289.88 28.327 C 291.902 28.802 293.955 29.039 296.01 29.004 L 296.54 28.935 L 296.72 28.935 C 297.05 28.853 297.386 28.836 297.72 28.868 C 298.041 29.106 298.282 29.476 298.39 29.933 Z M 252.65 1.437 C 251.39 2.182 249.84 1.878 249.6 1.372 C 249.56 1.284 249.72 0.998 250.04 0.727 C 250.91 0.05 251.8 -0.593 252.63 -1.116 C 253.363 -1.606 254.123 -2.062 254.91 -2.505 L 259.08 -2.505 C 257.817 -1.994 256.589 -1.354 255.41 -0.575 C 254.45 0.035 253.53 0.727 252.65 1.437 Z M 264.2 -1.015 C 265.01 -0.983 265.11 -0.726 265.13 -0.711 C 265.15 -0.679 265.2 -0.54 264.95 -0.052 C 264.627 0.404 264.24 0.776 263.81 1.033 C 262.997 1.538 262.125 1.859 261.23 1.996 C 260.53 1.996 260.26 1.656 260.23 1.588 C 260.2 1.538 260.23 1.387 260.43 1.166 C 260.87 0.761 261.5 0.271 262.1 -0.136 C 262.753 -0.607 263.465 -0.899 264.2 -1.015 Z M 268.28 1.774 L 268.28 1.794 C 269.31 1.13 269.81 0.404 269.79 -0.324 C 269.77 -1.065 269.31 -1.641 268.36 -2.166 L 267.71 -2.47 L 271.57 -2.47 C 272.57 -1.98 273.6 -1.372 274.67 -0.658 C 274.859 -0.457 274.981 -0.153 275.01 0.168 C 274.96 0.39 274.78 0.797 274.01 1.337 C 272.087 2.334 269.989 2.621 267.95 2.163 L 268.28 1.774 Z M 288.34 22.694 L 288.34 22.73 C 289.296 22.021 289.657 20.448 289.16 19.162 C 288.58 17.403 286.86 15.608 283.58 16.32 L 281.01 15.726 C 280.782 15.608 280.626 15.337 280.61 15.019 L 280.81 14.375 C 282.052 14.457 283.292 14.174 284.44 13.545 C 285.016 13.176 285.526 12.633 285.94 11.991 C 286.107 11.601 286.319 11.265 286.57 10.958 C 286.8 11.028 287 11.161 287.28 11.805 C 288.676 15.171 290.698 18.046 293.16 20.124 C 294.34 21.343 294.92 22.529 294.82 23.608 C 294.72 24.438 294.283 25.132 293.68 25.418 C 292.19 26.416 289.42 26.416 286.57 24.232 C 286.181 23.88 285.879 23.388 285.7 22.833 C 286.567 23.152 287.494 23.119 288.34 22.694 Z M 278.7 9.624 C 280.01 8.759 280.77 7.44 280.16 6.088 C 279.55 4.719 277.56 4.076 273.77 6.375 C 273.216 6.578 272.618 6.375 272.21 5.852 L 272.42 5.463 C 273.25 5.023 273.95 4.633 274.51 4.262 C 275.032 3.922 275.533 3.533 276.01 3.096 C 276.68 2.52 276.97 1.794 276.86 1.198 L 277.01 1.198 C 279.74 1.912 279.91 2.488 280.01 2.739 L 280.08 2.925 L 280.17 3.043 L 280.55 3.382 C 282.71 5.055 283.94 6.797 283.94 8.219 C 283.847 9.234 283.32 10.096 282.58 10.452 C 280.967 11.347 279.171 11.533 277.47 10.976 C 277.297 10.857 277.141 10.689 277.01 10.486 L 277.21 10.267 C 277.731 10.163 278.234 9.943 278.7 9.624 Z M 224.12 28.139 L 224.15 28.139 C 225.21 29.393 225.663 31.306 225.33 33.111 L 221.49 33.111 C 222.111 31.963 222.18 30.44 221.67 29.19 C 220.348 26.262 218.789 23.526 217.02 21.039 C 216.758 20.295 216.815 19.43 217.17 18.773 L 217.47 18.621 L 217.79 18.906 L 224.12 28.139 Z M 38.12 -2.505 C 38.074 -1.897 37.873 -1.337 37.55 -0.915 C 37.059 -0.324 36.377 -0.103 35.73 -0.303 C 34.537 -0.575 33.443 -1.354 32.61 -2.505 L 38.12 -2.505 Z M 14.16 18.689 L 14.18 18.689 C 13.69 18.587 13.304 18.096 13.22 17.453 C 12.991 16.32 13.303 15.118 14.01 14.408 C 21.54 9.184 24.01 4.059 24.6 -2.52 L 27.77 -2.52 C 27.33 2.945 26.12 7.931 23.52 11.008 C 20.53 15.101 17.52 17.639 14.31 18.689 L 14.16 18.689 Z M 24.01 27.058 C 23.515 26.925 23.069 26.587 22.74 26.079 C 21.451 24.353 20.335 22.408 19.42 20.295 C 19.285 19.955 19.308 19.55 19.48 19.229 C 19.659 18.872 19.977 18.689 20.3 18.737 L 20.82 18.993 L 23.17 22.003 C 23.414 22.325 23.735 22.529 24.08 22.576 C 24.786 22.659 25.48 22.29 25.93 21.564 C 26.397 20.885 26.515 19.902 26.23 19.077 L 24.03 15.152 C 23.925 14.797 23.992 14.392 24.2 14.121 C 24.434 13.717 24.813 13.495 25.2 13.545 L 25.67 13.868 C 27.05 15.965 28.39 17.96 30.67 18.571 C 31.27 18.704 31.39 18.787 31.44 18.906 C 31.49 19.008 31.52 19.313 31.31 20.144 C 30.423 21.883 29.211 23.287 27.79 24.252 C 26.893 25.014 26.031 25.825 25.21 26.72 C 24.847 26.991 24.427 27.109 24.01 27.058 Z M 18.45 0.252 C 18.231 -0.558 17.764 -1.219 17.16 -1.572 L 15.16 -2.505 L 20.24 -2.505 C 20.407 -2.284 20.557 -2.047 20.69 -1.809 C 21.231 -0.422 21.271 1.219 20.8 2.638 C 19.83 5.784 17.82 8.286 14.74 10.045 L 14.28 10.045 C 14.13 10.028 13.84 9.96 13.91 9.081 C 13.78 7.121 14.75 7.222 17.06 4.601 C 17.935 3.451 18.433 1.878 18.45 0.252 Z M 16.34 2.399 C 16.29 2.756 16.14 3.214 15.09 2.959 C 14.752 2.892 14.417 2.792 14.09 2.653 C 13.59 2.334 13.28 1.794 13.35 1.352 C 13.484 0.847 13.823 0.472 14.23 0.39 C 14.639 0.286 15.056 0.271 15.47 0.322 C 15.76 0.39 16.51 0.508 16.34 2.399 Z M 100.93 5.767 L 100.93 5.731 C 98.853 2.621 96.488 -0.118 93.89 -2.452 L 98.71 -2.452 C 104.79 4.58 114.69 17.453 113.49 27.516 C 113.392 29.41 113.154 31.287 112.78 33.132 L 108.78 33.132 C 111.84 21.343 107.88 15.676 101.71 6.85 L 100.93 5.767 Z M 119.76 21.461 C 120.371 21.053 120.719 20.194 120.63 19.297 C 120.451 17.674 119.576 16.32 118.38 15.83 L 115.09 14.983 C 114.41 14.814 113.98 14.174 113.7 12.853 L 113.64 12.531 C 115.663 13.003 117.715 13.224 119.77 13.191 L 120.3 13.142 L 120.49 13.142 C 120.821 13.073 121.156 13.038 121.49 13.073 C 121.809 13.309 122.049 13.682 122.16 14.139 C 123.096 16.691 123.659 19.448 123.82 22.257 C 123.839 23.608 123.31 24.877 122.43 25.589 C 121.37 26.262 119.69 26.129 117.31 25.164 C 116.69 24.807 116.07 24.102 116.69 22.051 C 116.83 21.461 116.89 21.41 117.02 21.325 C 117.15 21.224 117.36 21.275 117.66 21.461 C 118.335 21.815 119.085 21.815 119.76 21.461 Z M 103.36 25.789 C 103.5 26.18 103.6 26.587 102.66 27.21 C 102.36 27.398 102.049 27.552 101.73 27.685 C 101.254 27.805 100.764 27.584 100.44 27.109 C 100.295 26.634 100.381 26.079 100.66 25.722 C 100.946 25.352 101.265 25.029 101.61 24.757 C 101.88 24.607 102.53 24.149 103.36 25.789 Z M 105.93 33.044 L 105.92 33.097 L 104.92 33.097 L 104.79 32.879 C 103.7 31.405 104.5 30.745 105.06 27.044 C 105.15 25.418 104.756 23.81 103.96 22.544 C 103.367 22.051 102.649 21.883 101.96 22.071 L 99.3 22.951 C 98.973 22.88 98.703 22.576 98.6 22.172 C 98.5 21.564 98.8 20.782 99.6 20.242 L 100.11 20.006 C 102.05 18.976 103.55 18.737 104.68 19.313 C 105.786 19.991 106.628 21.26 107.01 22.78 C 107.815 26.232 107.42 29.986 105.93 33.044 Z M 129.42 0.543 L 128.79 0.776 C 125.041 0.694 121.308 0.119 117.65 -0.947 C 117.294 -1.169 116.985 -1.487 116.75 -1.91 C 116.75 -1.91 128.14 -2.013 130.23 -0.593 C 130.42 -0.49 129.95 0.201 129.42 0.543 Z M 11.07 1.844 L 11.71 1.588 C 12.05 1.656 12.34 2.267 12.34 3.161 L 11.02 17.722 C 10.79 20.699 9.28 23.202 6.36 25.656 C 6.149 25.757 5.923 25.789 5.7 25.757 L 5.57 25.757 C 5.51 25.589 5.36 25.064 6.01 22.966 C 6.328 22.375 6.716 21.832 7.16 21.393 L 7.23 21.292 C 8.405 20.16 9.072 18.33 9.01 16.421 C 9.16 14.865 9.36 13.36 9.53 11.721 C 9.7 10.078 9.88 8.455 10.08 6.797 L 10.43 3.569 C 10.449 2.91 10.681 2.281 11.07 1.844 Z M 108.21 -2.233 C 108.34 -2.319 108.45 -2.402 108.57 -2.435 L 111.74 -2.435 C 113.076 0.305 114.85 2.638 116.94 4.397 C 118.12 5.613 118.69 6.797 118.6 7.883 C 118.483 8.674 118.05 9.352 117.46 9.624 C 115.97 10.621 113.2 10.621 110.35 8.455 C 109.957 8.119 109.651 7.608 109.47 7.033 C 110.338 7.372 111.267 7.321 112.11 6.9 C 113.091 6.224 113.472 4.651 112.96 3.367 C 112.39 1.588 110.66 -0.185 107.39 0.508 L 104.81 -0.083 C 104.579 -0.185 104.414 -0.457 104.39 -0.778 L 104.58 -1.405 C 105.822 -1.321 107.062 -1.606 108.21 -2.233 Z M 17.01 30.508 C 18.95 28.802 17.81 26.534 16.86 24.725 C 16.466 24.016 16.13 23.255 15.86 22.458 C 15.77 22.086 15.72 21.85 15.86 21.714 C 16.019 21.496 16.258 21.41 16.48 21.496 L 17.01 21.731 C 17.941 22.576 18.682 23.745 19.16 25.099 C 19.85 26.705 20.59 28.445 21.95 28.853 C 22.27 28.92 22.33 29.053 22.33 29.122 L 21.99 29.866 L 19.3 32.86 C 18.854 33.079 18.376 33.164 17.9 33.132 C 17.365 33.014 16.928 32.503 16.77 31.83 C 16.47 30.966 16.5 30.797 17.01 30.508 Z M 184.01 8.39 C 184.172 8.609 184.322 8.848 184.46 9.099 C 184.842 9.844 184.996 10.724 184.89 11.601 C 184.641 12.905 183.927 13.986 182.97 14.478 C 181.8 15.186 180.506 15.49 179.22 15.337 C 176.32 14.561 171.3 12.059 165.5 9.131 L 165.21 9.012 C 157.07 4.887 147.84 0.286 140.35 -1.641 C 140.04 -1.862 139.765 -2.148 139.54 -2.505 L 148.42 -2.505 C 157.953 0.674 167.204 5.156 176.02 10.875 C 176.984 11.601 178.136 11.772 179.2 11.347 C 179.561 11.161 179.807 10.704 179.83 10.199 C 179.86 9.42 179.43 8.609 178.43 7.796 C 172.567 3.854 166.514 0.423 160.31 -2.505 L 168.91 -2.505 C 174.022 0.354 178.939 3.772 183.61 7.712 C 183.756 7.915 183.889 8.151 184.01 8.39 Z M 187.39 16.945 L 187.43 16.945 C 187.77 17.029 188.01 17.624 188.03 18.503 L 186.75 33.079 L 184.55 33.079 C 184.615 32.64 184.652 32.218 184.66 31.777 C 184.84 30.223 185.03 28.715 185.21 27.077 C 185.39 25.436 185.57 23.81 185.76 22.172 L 186.11 18.925 C 186.131 18.264 186.363 17.639 186.75 17.2 L 187.39 16.945 Z M 95.89 17.875 L 95.93 17.875 C 95.67 17.624 95.6 17.403 95.62 17.267 C 95.681 16.81 95.955 16.474 96.3 16.406 C 96.889 16.421 97.475 16.269 98.01 15.948 C 98.57 15.576 99.29 15.272 98.79 13.106 C 97.01 9.012 95.23 7.779 92.58 9.335 C 92.25 9.319 91.941 9.116 91.73 8.777 C 91.6 8.37 91.748 7.915 92.06 7.747 C 95.01 6.035 97.41 6.85 99.44 10.247 C 101.2 12.752 101.7 14.696 101.08 16.252 C 100.909 16.744 100.595 17.116 100.21 17.282 C 98.57 18.365 96.16 18.298 95.89 17.875 Z M 4.89 -1.454 C 4.8 -1.809 4.822 -2.18 4.95 -2.505 L 10.11 -2.505 L 6.51 -0.153 L 6.43 -0.153 L 6.13 -0.153 C 5.554 -0.221 5.067 -0.746 4.89 -1.454 Z M 4.85 22.679 C 3.973 25.368 2.179 27.348 0.01 28.023 L 0.01 24.335 C 1.253 23.642 2.301 22.458 3.01 20.954 C 4.74 16.778 5.21 9.844 5.43 3.618 C 5.447 3.06 5.627 2.553 5.93 2.182 L 6.49 1.878 C 6.88 1.912 7.11 2.653 7.11 3.789 C 7.045 10.199 6.284 16.556 4.85 22.679 Z M 134.73 27.058 C 137.01 28.546 137.3 30.508 137.24 33.062 L 133.78 33.062 C 133.78 32.946 133.78 32.843 133.78 32.725 C 133.812 31.338 133.239 30.037 132.3 29.378 L 128.3 27.652 C 127.749 27.313 127.37 26.619 127.3 25.84 C 127.254 25.536 127.348 25.232 127.54 25.048 C 130.02 25.029 132.472 25.722 134.73 27.058 Z M 33.06 23.405 L 33.39 23.576 L 35.07 25.789 C 35.332 26.197 35.372 26.754 35.17 27.21 C 35.031 27.516 34.78 27.702 34.51 27.685 L 34.01 27.362 L 32.29 25.147 C 32.044 24.828 31.991 24.32 32.16 23.914 C 32.374 23.559 32.714 23.355 33.06 23.405 Z M 37.26 5.345 L 37.23 5.345 C 37.385 5.784 37.381 6.307 37.22 6.749 C 36.657 9.504 35.719 12.091 34.45 14.408 C 33.764 15.49 32.73 16.083 31.66 16.016 C 30.47 15.726 29.2 14.408 27.78 11.922 C 27.48 11.229 27.33 10.199 28.86 8.998 C 29.27 8.659 29.36 8.641 29.5 8.659 C 29.64 8.694 29.79 8.862 29.93 9.234 C 30.308 10.028 30.915 10.571 31.61 10.756 C 32.304 10.843 32.978 10.418 33.36 9.656 C 34.031 8.322 34.011 6.578 33.31 5.259 L 31.11 2.267 C 30.68 1.641 30.67 0.879 31.11 -0.422 L 31.23 -0.746 C 32.613 1.116 34.138 2.771 35.78 4.226 L 36.23 4.551 L 36.4 4.651 C 36.708 4.836 36.997 5.073 37.26 5.345 Z M 67.01 -2.505 C 72.263 5.495 76.849 14.189 80.69 23.456 C 81.914 26.568 82.969 29.782 83.85 33.097 L 80.85 33.097 C 75.77 18.925 70.01 7.965 64.35 -2.098 C 64.264 -2.216 64.19 -2.351 64.13 -2.505 L 67.01 -2.505 Z M 42.54 14.865 L 39.77 11.043 L 39.88 10.114 L 40.46 9.792 L 43.81 13.089 C 44.052 13.461 44.076 14.003 43.87 14.408 C 43.656 14.848 43.263 15.068 42.87 14.983 L 42.54 14.865 Z M 92.31 27.362 L 92.5 26.788 C 92.66 25.436 92.348 24.066 91.65 23.069 C 87.05 16.81 82.84 14.782 77.95 13.106 L 77.41 11.873 C 80.785 12.025 84.063 13.378 86.89 15.794 C 90.35 19.026 93.08 21.224 95.78 21.546 C 96.108 21.75 96.376 22.071 96.54 22.493 C 96.805 23.051 96.867 23.727 96.71 24.335 L 94.25 30.966 L 94.19 30.966 L 93.93 31.137 C 93.404 31.489 92.769 31.439 92.28 30.999 C 91.88 30.695 91.686 30.086 91.81 29.511 C 91.922 28.768 92.089 28.056 92.31 27.362 Z M 49.25 0.797 C 48.1 -0.339 47.01 -1.42 46.07 -2.505 L 48.74 -2.505 C 49.652 -1.591 50.448 -0.508 51.1 0.727 C 51.19 0.947 50.47 1.166 49.88 1.048 L 49.25 0.797 Z M 99.92 29.275 L 101.84 33.097 L 99.6 33.097 L 98.6 30.983 C 98.285 30.476 98.154 29.8 98.24 29.137 L 98.62 28.498 C 98.92 28.31 99.44 28.582 99.92 29.275 Z M 130.1 30.898 C 130.496 31.017 130.803 31.439 130.89 31.948 C 130.89 32.15 130.9 32.64 130.61 32.828 L 130.04 32.928 L 127.55 32.421 C 127.186 32.336 126.895 31.981 126.82 31.506 C 126.797 31.067 126.979 30.66 127.28 30.459 L 127.63 30.375 L 130.1 30.898 Z M 140.3 3.161 C 152.01 5.87 161.61 9.081 170.79 16.184 C 172.27 18.011 172.98 19.902 172.79 21.41 C 172.6 22.915 171.69 24.267 170.05 25.333 C 169.182 25.893 168.274 26.33 167.34 26.634 C 164.659 26.855 161.974 26.315 159.47 25.029 L 141.58 17.299 C 140.987 16.778 140.616 15.912 140.58 14.983 L 140.78 14.24 L 141.29 14.24 C 143.56 15.152 146.07 16.219 148.46 17.217 C 153.95 19.55 159.62 21.919 165.25 23.559 C 166.039 23.83 166.876 23.727 167.61 23.255 C 168.603 22.659 169.245 21.357 169.26 19.938 C 169.154 18.551 168.439 17.367 167.43 16.91 C 158.23 11.398 149.65 8.355 140.95 5.463 C 140.398 5.023 140.029 4.262 139.95 3.432 L 140.12 3.161 L 140.3 3.161 Z M 179.05 19.126 L 179.01 19.162 C 179.14 19.176 179.32 19.55 179.32 20.277 C 179.197 24.639 178.576 28.971 177.48 33.097 L 176.01 33.097 L 178.29 20.16 C 178.51 19.448 178.9 19.126 179.05 19.126 Z M 138.75 8.659 L 138.79 8.286 C 147.408 10.382 155.831 13.682 163.92 18.096 C 164.2 18.33 164.37 18.621 164.37 18.906 L 164.14 19.362 L 163.67 19.43 C 155.401 17.048 147.253 13.986 139.27 10.281 C 138.917 9.878 138.726 9.284 138.75 8.659 Z M 130.86 16.659 L 130.54 16.81 L 126.4 15.747 L 126.02 14.933 L 126.31 14.24 L 130.65 14.478 C 131.016 14.597 131.292 14.983 131.35 15.475 C 131.401 15.965 131.203 16.453 130.86 16.659 Z M 124.53 8.998 L 134 10.771 C 136.107 10.857 137.867 12.905 138.2 15.627 C 138.396 17.436 138.205 19.297 137.65 20.988 C 137.429 21.546 137.079 22.003 136.65 22.29 C 136.057 22.611 135.408 22.73 134.77 22.611 L 127.77 21.307 C 127.179 21.039 126.761 20.36 126.7 19.55 C 126.645 19.197 126.737 18.855 126.94 18.621 L 132.34 19.126 C 132.879 19.297 133.444 19.229 133.95 18.925 C 134.575 18.503 134.927 17.603 134.83 16.691 C 134.683 15.205 133.911 13.936 132.83 13.427 C 130.326 12.329 127.748 11.55 125.13 11.094 C 124.557 10.79 124.137 10.129 124.01 9.335 L 124.15 8.998 L 124.53 8.998 Z M 140.66 32.438 L 142.36 33.097 L 139.48 33.097 C 139.48 33.044 139.48 32.928 139.48 32.928 C 139.444 32.621 139.509 32.317 139.66 32.064 L 140.66 32.438 Z M 133.66 0.694 C 133.617 -0.508 133.223 -1.658 132.56 -2.505 L 135.51 -2.505 C 136.551 -0.236 136.864 2.452 136.38 5.005 C 136.159 5.581 135.809 6.035 135.38 6.324 C 134.086 6.832 132.725 7.003 131.38 6.817 L 130.64 6.817 C 127.903 6.699 125.178 6.291 122.49 5.598 C 121.358 5.224 120.382 4.276 119.77 2.975 L 119.84 2.875 L 120.08 2.875 L 130.92 3.518 C 131.472 3.569 132.025 3.432 132.53 3.147 C 133.244 2.689 133.687 1.724 133.66 0.694 Z M 8.34 30.626 C 8.363 31.473 8.467 32.285 8.65 33.097 L 6.95 33.097 C 6.72 31.709 6.599 30.308 6.59 28.903 C 6.43 27.501 6.85 27.058 7.49 26.872 C 7.93 26.568 8.423 26.433 8.92 26.45 C 9.306 26.45 9.672 26.669 9.92 27.058 C 9.92 27.058 10.61 31.101 9.92 30.848 C 9.73 30.966 9.46 30.459 9.25 29.851 C 9.11 29.476 8.34 30.104 8.34 30.626 Z M 12.14 23.81 C 13.5 26.534 14.081 29.8 13.78 33.044 L 12.1 33.044 C 12.157 31.659 12.029 30.273 11.72 28.954 L 11.66 28.802 C 11.308 27.313 11.215 25.722 11.39 24.184 C 11.53 23.541 11.68 23.304 11.73 23.304 C 11.894 23.423 12.035 23.608 12.14 23.81 Z M 2.33 4.38 C 2.5 3.686 2.9 3.314 2.98 3.332 C 3.06 3.332 3.24 3.671 3.31 4.365 C 3.35 10.704 2.79 15.644 1.59 19.466 C 1.45 20.023 1.12 20.174 0.99 20.16 C 0.86 20.144 0.62 20.091 0.62 19.55 L 2.33 4.38 Z M 0.67 30.341 C 0.84 30.341 1.11 30.679 1.17 31.659 C 1.09 32.134 1.09 32.621 1.09 33.097 L 0 33.097 L 0 32.469 C 0.05 32.013 0.1 31.559 0.15 31.084 C 0.18 30.713 0.39 30.408 0.67 30.341 Z M 4.01 28.056 C 4.48 29.815 4.85 31.489 5.15 33.044 L 2.84 33.044 C 2.77 32.336 2.68 31.61 2.58 30.863 C 2.502 29.682 2.738 28.479 3.25 27.501 L 3.53 27.501 L 4.01 28.056 Z M 175.63 21.697 C 176.08 22.172 176.09 22.476 176.01 22.848 C 174.966 26.18 174.127 29.594 173.5 33.097 L 171.72 33.097 L 173.98 24.232 C 174.23 23.677 174.5 22.983 174.78 22.375 C 174.969 21.986 175.283 21.731 175.63 21.697 Z M 89.78 24.506 C 90.12 24.877 90.25 27.092 89.14 26.109 C 86.236 22.73 83.091 19.719 79.75 17.116 L 79.29 16.083 C 81.55 16.845 86.95 20.971 89.78 24.506 Z M 170.43 27.26 C 170.51 27.28 170.67 27.666 170.64 28.396 C 170.43 30.052 170.2 31.625 169.93 33.097 L 168.34 33.097 L 169.59 28.207 C 169.87 27.533 170.28 27.26 170.43 27.26 Z M 96.58 12.971 C 96.588 13.294 96.447 13.598 96.22 13.731 C 95.638 13.953 95.022 13.953 94.44 13.731 C 94.01 13.48 93.69 13.073 93.65 12.819 C 93.61 12.566 93.81 12.144 94.18 11.584 C 94.502 11.297 94.887 11.147 95.28 11.147 C 95.58 11.212 96.11 11.651 96.58 12.971 Z M 73.26 2.37 C 74.535 2.3 75.812 2.349 77.08 2.535 C 83.23 2.435 88.22 6.968 92.01 16.134 L 92.34 16.93 L 91.99 16.93 C 90.5 16.626 88.86 14.664 87.19 11.111 C 83.69 6.156 79.38 4.43 74.26 4.58 L 73.26 2.37 Z M 83.64 0.508 L 83.65 0.508 C 82.66 1.13 82.15 0.643 82.11 0.556 C 82.07 0.457 82.1 0.134 82.42 -0.254 L 82.8 -0.474 C 85.66 -2.334 88.26 -2.959 91.58 0.271 C 92.2 0.894 92.548 1.878 92.51 2.892 C 92.393 3.618 92.029 4.247 91.52 4.58 C 91.045 4.87 90.517 4.973 90 4.87 L 89.79 4.226 C 90.59 3.686 90.79 3.347 90.79 2.638 C 90.789 1.895 90.465 1.198 89.95 0.847 C 87.13 -1.794 85.23 -0.54 83.64 0.508 Z M 86.01 1.337 C 87.18 0.797 88.01 1.337 88.27 2.113 C 88.38 2.399 88.47 2.892 88.17 3.043 C 87.786 3.196 87.378 3.161 87.01 2.959 C 85.94 2.385 85.78 1.895 85.78 1.859 C 85.78 1.825 85.78 1.641 86.01 1.337 Z M 72.06 -0.354 L 71.53 -1.572 C 72.285 -1.96 73.064 -2.284 73.86 -2.505 L 79.7 -2.505 C 79.87 -2.435 80.03 -2.351 80.18 -2.266 L 80.48 -2.113 C 80.48 -2.013 80.24 -1.42 79.48 -0.93 C 78.987 -0.558 78.411 -0.422 77.85 -0.54 C 76.58 -1.809 74.06 -1.116 72.06 -0.354 Z M 138.55 26.534 L 138.53 26.534 C 144.246 27.142 149.826 29.137 154.98 32.421 L 155.1 32.86 L 154.96 33.097 L 152.67 33.097 L 140.01 28.65 C 139.316 28.242 138.784 27.48 138.55 26.534 Z M 165.55 29.866 L 165.57 29.866 C 165.85 29.19 166.33 28.92 166.4 28.935 C 166.47 28.954 166.6 29.343 166.6 30.052 C 166.47 31.116 166.33 32.134 166.17 33.097 L 164.73 33.097 L 165.55 29.866 Z M 162.01 33.097 L 158.33 33.079 C 158.33 33.014 158.33 32.928 158.33 32.879 C 158.288 31.61 157.713 30.493 156.84 29.969 C 152.039 26.773 146.908 24.524 141.61 23.27 C 141.095 23.137 140.682 22.626 140.54 21.968 C 140.539 21.528 140.72 21.142 141.01 20.954 C 141.286 20.817 141.584 20.749 141.88 20.782 C 151.03 23.642 157.55 26.634 159.77 28.886 C 160.775 30.016 161.545 31.473 162.01 33.097 Z M 27.3 29.461 C 28.039 30.577 28.683 31.796 29.22 33.097 L 26.52 33.097 L 26.01 31.895 C 25.796 31.116 25.923 30.237 26.34 29.629 C 26.49 29.325 26.737 29.137 27.01 29.106 L 27.3 29.461 Z M 124.01 33.097 C 124.34 31.81 124.429 30.44 124.27 29.122 C 124.02 28.293 123.86 28.088 123.75 28.023 C 123.64 27.974 123.5 27.989 122.97 28.327 C 120.84 29.496 118.77 28.868 116.6 28.192 L 116.06 28.26 C 115.725 28.498 115.52 28.954 115.53 29.461 C 115.51 29.851 115.661 30.223 115.92 30.408 L 119.68 31.996 C 120.031 32.252 120.317 32.621 120.5 33.097 L 124.01 33.097 Z" style="fill: rgb(209, 193, 170);"/>
  <path class="cls-2" d="M 519.34 29.383 C 520.115 30.638 521.012 31.775 522.01 32.744 L 518.86 32.744 L 517.69 30.638 C 517.586 30.284 517.657 29.883 517.87 29.616 C 518.108 29.215 518.485 28.998 518.87 29.05 L 519.34 29.383 Z M 547.54 27.744 L 547.78 27.508 C 548.833 29.266 549.857 31.024 550.85 32.744 L 548.48 32.744 C 548.01 31.608 547.49 30.488 547.01 29.349 C 546.993 28.747 547.187 28.144 547.54 27.744 Z M 528.01 10.476 C 529.112 10.595 530.131 9.706 530.46 8.333 C 530.689 7.5 530.689 6.595 530.46 5.759 C 531.203 5.291 531.857 4.622 532.37 3.801 C 532.224 6.561 532.496 9.322 533.17 11.949 C 533.5 13.688 533.36 15.046 532.74 15.83 C 532.249 16.415 531.567 16.635 530.92 16.432 C 529.23 16.148 527.02 14.175 525.84 10.425 C 525.698 9.876 525.698 9.258 525.84 8.687 C 526.382 9.591 527.149 10.225 528.01 10.476 Z M 540.23 4.453 L 540.23 4.372 C 538.36 2.21 536.76 0.355 535.7 -0.983 C 535.444 -1.369 535.296 -1.855 535.28 -2.358 L 536.96 -2.358 C 543.16 3.984 547.51 9.79 550.51 15.748 C 551.17 18.307 549.6 23.274 546.83 25.368 C 546.332 25.602 545.79 25.652 545.27 25.499 C 544.001 24.865 542.85 23.894 541.89 22.641 L 541.32 22.022 C 539.265 19.677 537.374 17.117 535.67 14.34 C 535.006 13.137 534.773 11.617 535.03 10.177 L 535.15 10.177 L 535.33 10.376 L 543.4 19.847 C 543.819 20.35 544.328 20.7 544.88 20.883 C 545.717 21.098 546.585 20.749 547.17 19.947 C 548.086 18.677 548.393 16.85 547.97 15.211 C 547.55 12.902 543.83 8.603 540.23 4.453 Z M 531.54 28.127 L 535.38 32.744 L 532.01 32.744 L 530.63 30.854 C 530.329 30.135 530.405 29.249 530.82 28.63 C 530.984 28.312 531.251 28.127 531.54 28.127 Z M 567.29 17.771 L 567.29 17.738 C 568.578 17.654 569.869 17.721 571.15 17.907 C 577.3 17.805 582.29 22.307 586.08 31.357 L 586.37 32.174 L 586.03 32.174 C 584.53 31.892 582.9 29.951 581.23 26.437 C 577.72 21.518 573.42 19.813 568.29 19.964 L 567.29 17.771 Z M 583.4 19.93 L 583.4 19.898 C 584.24 19.362 584.41 19.027 584.49 18.373 C 584.51 17.924 584.42 17.286 583.66 16.549 C 580.83 13.941 578.94 15.178 577.35 16.217 C 576.36 16.783 575.84 16.317 575.8 16.217 C 575.76 16.131 575.79 15.797 576.12 15.429 L 576.5 15.178 C 579.36 13.353 581.95 12.751 585.28 15.949 C 585.904 16.549 586.249 17.521 586.2 18.541 C 586.091 19.311 585.694 19.964 585.14 20.282 C 584.666 20.566 584.137 20.666 583.62 20.566 L 583.4 19.93 Z M 533.6 24.198 L 536.82 27.959 C 537.034 28.343 537.034 28.864 536.82 29.249 C 536.579 29.684 536.153 29.883 535.75 29.752 L 535.41 29.599 L 532.8 25.419 L 532.98 24.479 L 533.6 24.198 Z M 579.67 17.036 L 579.67 17.002 C 580.84 16.432 581.64 16.969 581.93 17.805 C 582.05 18.089 582.13 18.574 581.84 18.724 C 581.453 18.859 581.042 18.842 580.67 18.643 C 579.61 18.072 579.45 17.57 579.45 17.538 C 579.45 17.504 579.45 17.337 579.67 17.036 Z M 525.26 26.388 L 525.26 26.354 C 525.958 26.419 526.633 26.003 527.01 25.232 C 527.692 23.928 527.692 22.206 527.01 20.9 L 524.73 17.975 C 524.31 17.353 524.29 16.532 524.73 15.311 L 524.85 14.995 C 526.236 16.833 527.76 18.473 529.4 19.916 L 529.86 20.248 L 530.02 20.35 C 530.329 20.515 530.618 20.749 530.88 21.018 C 531.008 21.435 531.008 21.905 530.88 22.307 C 530.314 25.033 529.373 27.61 528.1 29.9 C 527.424 30.99 526.389 31.591 525.31 31.539 C 524.13 31.324 522.85 30.018 521.44 27.541 C 521.14 26.823 520.99 25.834 522.52 24.649 C 522.93 24.314 523 24.28 523.15 24.314 C 523.3 24.331 523.44 24.496 523.58 24.883 C 523.968 25.635 524.57 26.189 525.26 26.388 Z M 551.06 24.028 L 551.19 24.198 C 553.09 27.104 554.87 29.951 556.51 32.778 L 553.89 32.778 C 552.76 30.638 551.6 28.53 550.43 26.402 C 550.262 25.602 550.395 24.764 550.79 24.112 L 551.06 24.028 Z M 554.59 15.396 L 554.88 15.78 C 557.78 21.052 560.87 26.723 563.78 32.778 L 560.24 32.778 C 558.283 28.229 556.07 23.862 553.62 19.729 C 553.324 18.325 553.57 16.816 554.28 15.697 L 554.59 15.396 Z M 543.35 15.916 L 543.35 15.882 C 540.506 12.802 537.934 9.322 535.68 5.509 C 535.532 5.04 535.483 4.52 535.54 4.035 C 535.54 4.035 544.47 13.27 545.28 16.047 C 545.36 16.25 544.6 16.432 543.98 16.25 L 543.35 15.916 Z M 379.74 32.744 C 376.81 27.274 374.01 21.618 371.5 15.882 C 371.474 15.278 371.662 14.677 372.01 14.259 L 372.24 13.975 C 375.997 19.864 379.375 26.137 382.34 32.744 L 379.74 32.744 Z M 375.49 10.408 L 375.58 10.56 C 380.64 18.089 384.85 25.081 388.01 32.744 L 385.21 32.744 C 382.079 25.834 378.633 19.175 374.89 12.785 C 374.707 11.999 374.826 11.147 375.21 10.492 L 375.49 10.408 Z M 370.61 9.557 C 370.175 9.841 369.685 9.96 369.2 9.893 C 367.941 9.406 366.779 8.569 365.79 7.45 L 365.2 6.913 C 363.089 4.874 361.119 2.597 359.31 0.119 C 358.86 -0.634 358.558 -1.517 358.43 -2.472 L 360.01 -2.472 L 367.01 4.52 C 367.419 4.938 367.898 5.224 368.41 5.356 C 369.226 5.509 370.042 5.091 370.55 4.253 C 371.346 2.929 371.522 1.159 371.01 -0.383 C 370.782 -1.149 370.443 -1.855 370.01 -2.472 L 372.01 -2.472 C 372.53 -1.668 373.03 -0.867 373.51 -0.063 C 374.32 2.347 373.13 7.28 370.61 9.557 Z M 361.44 28.078 L 361.44 28.112 C 362.778 29.533 364.041 31.073 365.22 32.711 L 362.74 32.711 L 361.54 30.803 C 361.184 29.968 361.147 28.965 361.44 28.078 Z M 366.23 25.499 C 366.522 25.567 366.795 25.735 367.02 25.985 C 368.607 28.394 370.03 30.638 371.29 32.744 L 368.88 32.744 C 367.84 31.041 366.73 29.383 365.53 27.761 C 365.198 27.257 365.128 26.538 365.35 25.934 C 365.568 25.602 365.898 25.449 366.23 25.499 Z M 507.01 17.002 C 507.14 16.467 507.487 16.064 507.91 15.966 C 508.322 15.899 508.738 15.899 509.15 15.966 C 509.45 16.03 510.19 16.148 510.03 18.022 C 509.97 18.39 509.82 18.825 508.75 18.66 C 508.412 18.574 508.077 18.49 507.75 18.356 C 507.25 17.958 506.95 17.438 507.01 17.002 Z M 359.12 4.27 L 365.81 12.433 C 367.452 14.041 367.849 17.019 366.72 19.26 C 365.946 20.883 364.865 22.223 363.58 23.142 C 363.124 23.426 362.613 23.541 362.11 23.443 C 361.486 23.292 360.908 22.925 360.44 22.371 L 355.54 16.317 C 355.189 15.68 355.189 14.808 355.54 14.175 C 355.676 13.855 355.917 13.654 356.19 13.626 L 360.25 17.872 C 360.61 18.39 361.097 18.741 361.63 18.859 C 362.356 18.959 363.065 18.524 363.46 17.738 C 364.094 16.532 364.114 14.944 363.51 13.723 C 362.052 11.046 360.375 8.586 358.51 6.378 C 358.21 5.708 358.21 4.874 358.51 4.202 L 358.79 4.035 L 359.12 4.27 Z M 517.2 26.555 L 517.2 26.572 C 515.42 29.084 513.311 31.173 510.97 32.744 L 506.84 32.744 C 506.677 31.675 506.99 30.587 507.65 29.934 C 508.62 29.266 509.49 28.63 510.29 27.976 L 509.84 27.425 L 510.41 27.892 C 516.77 22.708 518.26 17.771 518.41 10.679 L 521.63 9.74 C 521.51 16.635 520.42 22.772 517.2 26.555 Z M 507.93 25.585 L 507.93 25.602 C 507.78 25.567 507.5 25.499 507.54 24.632 C 507.41 22.691 508.38 22.724 510.7 20.198 C 511.575 19.044 512.07 17.504 512.08 15.882 C 511.849 15.061 511.367 14.425 510.75 14.089 L 508.19 12.885 C 507.963 12.603 507.9 12.149 508.03 11.782 C 508.446 11.08 509.139 10.76 509.8 10.978 L 510.34 11.147 C 512.42 11.731 513.73 12.568 514.34 13.855 C 514.881 15.228 514.921 16.85 514.45 18.257 C 513.49 21.368 511.47 23.845 508.39 25.585 L 507.93 25.585 Z M 500.36 17.822 C 500.78 17.907 501.01 18.677 500.95 19.797 C 500.638 24.181 500.026 28.513 499.12 32.744 L 497.12 32.744 C 498.131 28.428 498.801 23.976 499.12 19.496 C 499.172 18.942 499.391 18.423 499.73 18.089 L 500.36 17.822 Z M 399.51 22.189 C 402.696 24.78 405.458 28.162 407.64 32.127 C 407.735 32.327 407.819 32.528 407.89 32.744 L 404.89 32.744 C 404.207 30.235 402.986 28.028 401.37 26.371 L 399.51 22.189 Z M 413.01 32.241 C 413.27 32.076 413.64 32.258 414.01 32.744 L 412.73 32.744 L 413.01 32.241 Z M 379.2 2.094 C 384.37 11.131 390.01 21.402 394.49 32.744 L 390.71 32.744 C 386.86 23.508 382.52 13.172 378.01 6.043 C 377.693 4.654 377.913 3.15 378.6 2.009 L 378.91 1.708 L 379.2 2.094 Z M 573.41 32.595 L 572.94 31.556 C 573.723 31.858 574.483 32.258 575.21 32.744 L 573.59 32.744 L 573.41 32.595 Z M 623.07 16.148 L 622.44 16.365 C 618.695 16.3 614.965 15.73 611.31 14.66 C 610.951 14.459 610.638 14.123 610.4 13.723 C 610.4 13.723 621.79 13.626 623.88 15.011 C 624.07 15.111 623.6 15.797 623.07 16.148 Z M 565.19 14.106 C 567.82 12.685 571.74 12.234 573.83 13.404 L 574.14 13.557 C 574.14 13.671 573.89 14.259 573.14 14.743 C 572.645 15.095 572.07 15.228 571.51 15.111 C 570.24 13.855 567.72 14.543 565.72 15.311 L 565.19 14.106 Z M 628.41 31.692 C 628.287 32.11 628.071 32.477 627.79 32.744 L 620.3 32.744 C 619.956 32.494 619.701 32.076 619.59 31.573 C 619.513 31.324 619.547 31.024 619.68 30.82 L 623.99 30.703 C 624.419 30.787 624.857 30.687 625.23 30.402 C 625.685 29.985 625.879 29.232 625.71 28.53 C 625.443 27.36 624.724 26.437 623.81 26.121 C 621.747 25.466 619.64 25.081 617.52 24.982 C 617.055 24.764 616.689 24.28 616.52 23.677 L 616.6 23.393 L 616.89 23.326 L 624.53 23.894 C 626.25 23.811 627.797 25.232 628.31 27.36 C 628.644 28.764 628.679 30.268 628.41 31.692 Z M 627.27 10.311 C 629.12 11.565 630.65 16.166 629.84 19.711 C 629.615 20.265 629.266 20.715 628.84 21.001 C 627.548 21.535 626.19 21.738 624.84 21.585 L 624.11 21.585 C 621.395 21.535 618.687 21.217 616.01 20.632 C 614.888 20.35 613.903 19.496 613.28 18.257 L 613.35 18.14 L 613.59 18.14 L 624.4 18.473 C 624.955 18.507 625.508 18.356 626.01 18.055 C 626.707 17.621 627.147 16.698 627.14 15.697 C 627.075 14.024 626.307 12.535 625.14 11.816 C 623.6 10.543 618.66 10.408 613.86 10.276 C 611.38 10.208 609.23 10.142 607.7 9.96 C 607.058 9.893 606.509 9.339 606.3 8.551 L 606.43 8.1 C 614.98 7.716 621.61 8.367 627.27 10.311 Z M 598.85 -1.42 C 602.166 -2.088 605.514 -2.439 608.87 -2.489 L 620.99 -2.489 C 622.46 -2.455 623.83 -2.341 624.99 -2.341 C 629.84 -1.452 632.34 0.84 632.59 4.722 C 632.512 5.623 632.082 6.427 631.45 6.832 C 630.697 7.182 629.886 7.263 629.1 7.063 C 621.637 5.525 614.086 4.823 606.53 4.955 C 605.901 5.091 605.28 4.654 605.01 3.92 L 605.12 3.517 C 612.133 2.929 619.174 3.333 626.12 4.722 C 626.738 4.756 627.356 4.622 627.93 4.321 C 628.568 4.035 628.999 3.264 629.01 2.38 C 628.926 1.392 628.352 0.572 627.59 0.372 C 621.43 -1.302 608.91 -0.983 601.49 -0.366 C 600.484 -0.464 599.504 -0.815 598.61 -1.42 L 598.85 -1.42 Z M 552.6 2.009 L 552.58 2.009 C 551.594 0.439 550.532 -1.068 549.4 -2.472 L 552.01 -2.472 L 552 -2.387 C 555.4 2.278 556.1 6.278 554.1 9.757 C 553.549 10.459 552.775 10.793 552.01 10.645 C 551.234 10.325 550.542 9.74 550.01 8.955 C 547.24 4.891 544.267 1.074 541.11 -2.472 L 543.6 -2.472 C 545.536 -0.316 547.345 2.009 549.01 4.503 C 549.466 5.04 550.01 5.424 550.6 5.64 C 551.329 5.91 552.115 5.606 552.6 4.84 C 553.092 4.001 553.092 2.849 552.6 2.009 Z M 563.6 -2.472 C 563.247 -2.021 562.932 -1.534 562.66 -1.001 C 561.72 0.673 561.05 1.477 561.59 3.015 C 562.246 4.605 563.452 5.69 564.83 5.926 L 577.36 5.339 C 581.658 4.756 585.962 6.361 589.36 9.807 C 592.86 13.626 601.59 23.226 605.43 32.761 L 601.83 32.761 C 600.003 29.015 597.86 25.533 595.44 22.405 L 594.67 21.334 C 587.6 11.347 582.88 9.288 576.67 8.987 C 575.07 8.819 573.45 8.819 571.86 8.819 C 571.02 8.854 570.17 8.938 569.02 9.055 C 566.8 9.322 564.94 9.657 562.8 8.671 C 557.32 6.091 559.01 0.137 559.01 0.137 C 559.194 -0.548 559.45 -1.2 559.77 -1.787 C 559.91 -2.038 560.05 -2.256 560.19 -2.472 L 563.6 -2.472 Z M 317.82 7.097 C 317.69 7.615 317.56 8.185 317.43 8.773 L 317.43 6.058 C 317.717 6.261 317.873 6.679 317.82 7.097 Z M 374.21 27.408 C 375.08 29.181 375.95 30.973 376.8 32.728 L 373.94 32.728 L 368.94 22.206 C 368.763 21.32 368.94 20.379 369.41 19.694 L 369.97 19.276 L 370.38 19.644 C 371.62 22.087 372.94 24.814 374.21 27.408 Z M 622.72 28.965 L 622.49 29.096 L 619.12 28.664 L 618.74 28.028 L 618.9 27.457 L 622.34 27.257 C 622.645 27.308 622.899 27.593 622.99 27.959 C 623.088 28.343 622.977 28.747 622.72 28.965 Z M 510.91 1.642 L 504.41 -2.472 L 510.28 -2.472 L 511.38 -1.668 C 512.55 -0.767 513.26 0.188 513.26 0.84 C 513.232 1.108 513.099 1.324 512.91 1.425 C 512.278 1.776 511.576 1.843 510.91 1.642 Z M 518.23 0.491 L 514.77 -2.472 L 520.71 -2.472 C 523.247 -0.667 526.028 0.491 528.9 0.923 C 529.64 1.04 529.99 1.409 530 1.409 C 530.01 1.425 530.09 1.878 529.09 2.998 C 528.43 3.551 527.74 4.102 527.09 4.571 C 520.19 9.523 513.17 9.943 505.63 6.058 C 505.494 5.81 505.34 5.593 505.17 5.373 C 500.55 1.826 496.8 0.79 491.17 -2.472 L 497.87 -2.472 C 499.25 -1.603 500.65 -0.718 502.08 0.221 C 506.192 2.562 510.592 3.966 515.08 4.355 C 516.191 4.52 517.317 4.338 518.36 3.801 C 518.683 3.584 518.919 3.201 519.01 2.748 C 519.017 1.878 518.732 1.057 518.23 0.491 Z M 634.86 6.043 L 634.91 8.854 C 633.983 12.919 633.38 17.101 633.11 21.32 C 633.11 23.728 633.94 24.198 634.44 24.198 C 634.598 24.214 634.757 24.198 634.91 24.129 L 634.91 27.792 C 634.542 27.892 634.165 27.926 633.79 27.909 C 633.136 27.858 632.511 27.541 632.01 26.99 C 632.01 26.99 629.38 26.237 633.46 8.603 C 634.11 6.748 633.88 7.347 634.11 6.748 C 634.254 6.361 634.535 6.091 634.86 6.043 Z M 572.69 23.694 C 576.8 23.862 580.07 26.891 582.46 32.778 L 580.94 32.778 C 580.421 31.974 579.969 31.104 579.59 30.184 C 577.25 26.505 574.24 25.115 570.59 25.016 L 569.96 23.41 C 570.874 23.426 571.787 23.508 572.69 23.694 Z M 589.88 29.181 C 589.301 29.433 588.677 29.449 588.09 29.232 C 587.66 28.998 587.34 28.597 587.3 28.343 C 587.26 28.078 587.46 27.675 587.83 27.121 C 588.55 26.674 588.79 26.674 588.93 26.674 C 589.24 26.755 589.76 27.19 590.24 28.479 C 590.225 28.78 590.088 29.05 589.88 29.181 Z M 358.13 25.803 C 359.27 28.78 358.34 30.587 356.78 32.693 L 349.64 32.693 L 346.77 29.096 C 346.484 28.581 346.484 27.875 346.77 27.36 C 346.98 26.839 347.32 26.572 347.6 26.572 L 348.02 26.973 L 350.72 30.335 C 351.056 30.753 351.488 31.024 351.95 31.09 C 352.945 31.173 353.909 30.622 354.51 29.582 C 355.242 28.614 355.465 27.173 355.08 25.9 L 352.75 21.703 C 352.459 21.018 352.494 20.181 352.84 19.527 C 352.959 19.26 353.185 19.075 353.43 19.075 C 355.388 20.8 356.999 23.107 358.13 25.803 Z M 557.46 7.28 C 557.6 7.33 557.78 7.551 558.01 8.016 C 563.178 15.68 567.753 23.976 571.67 32.795 L 568.08 32.795 C 564.832 25.533 561.304 18.473 557.51 11.68 C 556.844 10.359 556.739 8.704 557.23 7.28 L 557.46 7.28 Z M 594.78 31.743 C 594.606 32.207 594.301 32.561 593.93 32.744 L 589.28 32.744 C 589.327 32.293 589.603 31.942 589.95 31.892 C 590.54 31.909 591.125 31.759 591.66 31.442 C 592.22 31.073 592.94 30.77 592.44 28.614 C 590.68 24.581 588.88 23.36 586.24 24.883 C 585.91 24.865 585.598 24.683 585.39 24.348 C 585.252 23.945 585.398 23.474 585.71 23.326 C 588.62 21.635 591.06 22.422 593.14 25.786 C 594.9 28.277 595.39 30.184 594.78 31.743 Z M 632.06 29.917 C 632.664 30.001 633.119 30.67 633.1 31.442 C 633.03 31.858 632.97 32.293 632.91 32.744 L 630.59 32.744 L 630.8 31.24 C 630.807 30.82 630.967 30.436 631.23 30.201 C 631.466 29.968 631.765 29.867 632.06 29.917 Z M 573.13 28.01 C 575.48 28.112 577.55 29.7 579.31 32.728 L 578.19 32.728 C 578.19 32.728 578.19 32.728 578.19 32.728 C 576.593 30.301 574.243 28.914 571.78 28.965 L 571.26 27.792 C 571.887 27.809 572.512 27.875 573.13 28.01 Z M 615.82 29.616 C 616.182 30.622 616.499 31.658 616.77 32.693 L 613.61 32.693 C 613.191 32.059 612.645 31.573 612.03 31.289 L 608.75 30.471 C 608.06 30.301 607.63 29.65 607.36 28.36 L 607.3 28.028 C 609.322 28.496 611.375 28.73 613.43 28.697 L 613.96 28.63 L 614.14 28.63 C 614.47 28.547 614.806 28.53 615.14 28.564 C 615.467 28.78 615.712 29.165 615.82 29.616 Z M 570.08 1.425 C 568.82 2.162 567.26 1.861 567.03 1.358 C 566.99 1.274 567.15 0.99 567.47 0.723 C 568.34 0.056 569.23 -0.583 570.06 -1.102 C 570.787 -1.586 571.547 -2.038 572.34 -2.472 L 576.5 -2.472 C 575.24 -1.969 574.015 -1.336 572.84 -0.565 C 571.88 0.039 570.96 0.723 570.08 1.425 Z M 581.63 -1.001 C 582.42 -0.966 582.55 -0.718 582.56 -0.701 C 582.57 -0.667 582.63 -0.531 582.38 -0.046 C 582.057 0.406 581.67 0.775 581.24 1.023 C 580.426 1.525 579.555 1.843 578.66 1.979 C 577.96 1.979 577.69 1.642 577.66 1.576 C 577.63 1.525 577.66 1.375 577.86 1.159 C 578.3 0.758 578.93 0.272 579.53 -0.13 C 580.182 -0.6 580.894 -0.884 581.63 -1.001 Z M 585.71 1.759 L 585.71 1.776 C 586.74 1.124 587.26 0.389 587.24 -0.349 C 587.22 -1.068 586.81 -1.651 585.81 -2.171 L 585.16 -2.472 L 589.01 -2.472 C 590.01 -1.952 591.01 -1.386 592.11 -0.65 C 592.299 -0.447 592.421 -0.147 592.45 0.171 C 592.39 0.389 592.22 0.79 591.45 1.324 C 589.524 2.313 587.423 2.597 585.38 2.145 L 585.71 1.759 Z M 605.77 22.456 L 605.77 22.49 C 606.744 21.788 607.119 20.231 606.62 18.942 C 606.09 17.201 604.31 15.412 601.04 16.114 L 598.47 15.532 C 598.237 15.429 598.068 15.178 598.04 14.86 L 598.24 14.225 C 599.482 14.309 600.722 14.024 601.87 13.404 C 602.446 13.038 602.956 12.501 603.37 11.866 C 603.537 11.481 603.749 11.147 604 10.844 C 604.23 10.91 604.43 11.046 604.7 11.68 C 606.104 15.011 608.128 17.856 610.59 19.916 C 611.77 21.115 612.35 22.29 612.25 23.36 C 612.15 24.181 611.718 24.865 611.12 25.149 C 609.62 26.137 606.85 26.137 604 23.976 C 603.611 23.627 603.309 23.142 603.13 22.59 C 603.997 22.908 604.924 22.874 605.77 22.456 Z M 596.13 9.523 C 597.48 8.671 598.18 7.364 597.57 6.026 C 596.96 4.671 594.97 4.035 591.18 6.312 C 590.623 6.512 590.022 6.312 589.61 5.793 L 589.83 5.406 C 590.66 4.972 591.36 4.589 591.92 4.219 C 592.443 3.887 592.945 3.5 593.42 3.065 C 594.09 2.495 594.39 1.776 594.27 1.193 L 594.42 1.193 C 597.15 1.895 597.32 2.465 597.42 2.714 L 597.49 2.866 L 597.58 2.963 L 597.96 3.316 C 600.11 4.955 601.35 6.679 601.35 8.083 C 601.257 9.105 600.73 9.96 599.99 10.311 C 598.377 11.199 596.581 11.381 594.88 10.827 C 594.705 10.696 594.549 10.543 594.42 10.342 L 594.64 10.16 C 595.161 10.058 595.664 9.841 596.13 9.523 Z M 541.55 27.841 L 541.58 27.841 C 542.64 29.084 543.093 30.973 542.76 32.761 L 538.92 32.761 C 539.541 31.625 539.61 30.118 539.1 28.88 C 537.778 25.985 536.219 23.274 534.45 20.816 C 534.188 20.081 534.245 19.226 534.6 18.574 L 534.9 18.423 L 535.22 18.707 L 541.55 27.841 Z M 355.55 -2.472 C 355.513 -1.885 355.322 -1.336 355.01 -0.901 C 354.506 -0.299 353.796 -0.063 353.13 -0.299 C 351.938 -0.565 350.845 -1.336 350.01 -2.472 L 355.55 -2.472 Z M 331.61 18.49 C 331.115 18.423 330.709 17.958 330.6 17.337 C 330.371 16.217 330.683 15.028 331.39 14.326 C 338.95 9.072 341.38 3.984 342.01 -2.489 L 345.22 -2.489 C 344.78 2.912 343.57 7.849 340.97 10.896 C 337.98 14.944 334.97 17.455 331.76 18.49 L 331.61 18.49 Z M 341.46 26.772 C 340.962 26.624 340.518 26.254 340.2 25.735 C 338.911 24.028 337.795 22.104 336.88 20.03 C 336.745 19.677 336.768 19.276 336.94 18.959 C 337.119 18.609 337.437 18.423 337.76 18.473 L 338.28 18.724 L 340.62 21.771 C 340.864 22.087 341.185 22.29 341.53 22.341 C 342.236 22.422 342.93 22.053 343.38 21.334 C 343.847 20.666 343.965 19.694 343.68 18.877 L 341.48 14.995 C 341.375 14.643 341.442 14.242 341.65 13.975 C 341.884 13.574 342.263 13.353 342.65 13.404 L 343.12 13.723 C 344.5 15.797 345.84 17.771 348.12 18.373 C 348.72 18.507 348.84 18.591 348.89 18.707 C 348.94 18.808 348.97 19.107 348.76 19.93 C 347.873 21.652 346.661 23.043 345.24 23.994 C 344.343 24.747 343.481 25.55 342.66 26.437 C 342.297 26.706 341.877 26.823 341.46 26.772 Z M 335.88 0.255 C 335.658 -0.548 335.192 -1.2 334.59 -1.551 L 332.59 -2.472 L 337.67 -2.472 C 337.837 -2.256 337.987 -2.021 338.12 -1.787 C 338.664 -0.4 338.704 1.21 338.23 2.631 C 337.26 5.725 335.25 8.202 332.17 9.943 L 331.71 9.943 C 331.56 9.926 331.27 9.858 331.33 8.987 C 331.21 7.049 332.18 7.147 334.49 4.554 C 335.365 3.416 335.863 1.861 335.88 0.255 Z M 333.77 2.38 C 333.72 2.731 333.57 3.185 332.52 2.929 C 332.182 2.866 331.847 2.764 331.52 2.631 C 331.02 2.313 330.71 1.776 330.77 1.341 C 330.911 0.84 331.252 0.474 331.66 0.389 C 332.069 0.288 332.486 0.272 332.9 0.321 C 333.19 0.389 333.94 0.508 333.77 2.38 Z M 418.36 5.708 L 418.36 5.674 C 416.29 2.614 413.936 -0.113 411.35 -2.422 L 416.13 -2.422 C 422.21 4.537 432.11 17.268 430.91 27.224 C 430.812 29.096 430.574 30.956 430.2 32.778 L 426.2 32.778 C 429.27 21.115 425.31 15.515 419.14 6.781 L 418.36 5.708 Z M 437.19 21.234 C 437.778 20.816 438.104 19.964 438.01 19.107 C 437.843 17.504 436.99 16.183 435.81 15.663 L 432.52 14.825 C 431.83 14.66 431.41 14.024 431.13 12.718 L 431.07 12.399 C 433.092 12.868 435.145 13.088 437.2 13.055 L 437.73 13.003 L 437.92 13.003 C 438.251 12.936 438.586 12.902 438.92 12.936 C 439.239 13.172 439.479 13.54 439.59 13.989 C 440.521 16.515 441.084 19.243 441.25 22.022 C 441.273 23.36 440.743 24.615 439.86 25.317 C 438.8 25.985 437.12 25.851 434.74 24.9 C 434.12 24.547 433.5 23.845 434.12 21.822 C 434.26 21.234 434.32 21.184 434.45 21.098 C 434.58 21.001 434.79 21.052 435.09 21.234 C 435.765 21.585 436.515 21.585 437.19 21.234 Z M 420.79 25.516 C 420.93 25.9 421.01 26.304 420.09 26.923 C 419.787 27.104 419.473 27.257 419.15 27.393 C 418.677 27.508 418.19 27.291 417.87 26.823 C 417.725 26.354 417.811 25.803 418.09 25.449 C 418.374 25.081 418.693 24.764 419.04 24.496 C 419.31 24.348 419.96 23.894 420.79 25.516 Z M 423.36 32.693 L 423.38 32.744 L 422.38 32.744 L 422.25 32.528 C 421.16 31.073 421.96 30.419 422.52 26.755 C 422.61 25.149 422.216 23.558 421.42 22.307 C 420.827 21.822 420.109 21.652 419.42 21.839 L 416.76 22.708 C 416.433 22.641 416.163 22.341 416.06 21.936 C 415.95 21.334 416.26 20.566 417.06 20.03 L 417.57 19.797 C 419.51 18.774 421.01 18.541 422.14 19.107 C 423.246 19.78 424.088 21.036 424.47 22.541 C 425.266 25.968 424.86 29.684 423.36 32.693 Z M 446.85 0.537 L 446.21 0.723 C 442.466 0.656 438.736 0.102 435.08 -0.935 C 434.724 -1.149 434.415 -1.469 434.18 -1.885 C 434.18 -1.885 445.57 -1.987 447.66 -0.583 C 447.85 -0.481 447.38 0.204 446.85 0.537 Z M 328.5 1.826 L 329.14 1.542 C 329.48 1.608 329.77 2.21 329.77 3.082 L 328.49 17.538 C 328.26 20.482 326.75 22.959 323.83 25.385 C 323.619 25.482 323.393 25.516 323.17 25.482 L 323.04 25.482 C 322.98 25.317 322.83 24.797 323.48 22.724 C 323.771 22.137 324.132 21.618 324.55 21.167 L 324.62 21.065 C 325.795 19.947 326.462 18.14 326.4 16.25 C 326.59 14.709 326.79 13.22 326.96 11.599 C 327.13 9.973 327.31 8.367 327.51 6.73 L 327.85 3.534 C 327.876 2.882 328.111 2.261 328.5 1.826 Z M 425.64 -2.154 L 425.64 -2.205 C 425.77 -2.289 425.88 -2.37 426.01 -2.404 L 429.15 -2.404 C 430.486 0.304 432.26 2.614 434.35 4.355 C 435.53 5.559 436.1 6.73 436.01 7.799 C 435.896 8.586 435.472 9.241 434.89 9.523 C 433.4 10.509 430.63 10.509 427.78 8.367 C 427.387 8.032 427.081 7.534 426.9 6.963 C 427.768 7.297 428.697 7.25 429.54 6.832 C 430.521 6.16 430.902 4.605 430.39 3.333 C 429.82 1.576 428.09 -0.182 424.82 0.508 L 422.24 -0.08 C 422.009 -0.182 421.844 -0.447 421.82 -0.767 L 422.01 -1.386 C 423.249 -1.285 424.489 -1.551 425.64 -2.154 Z M 334.4 30.184 C 336.38 28.496 335.24 26.254 334.32 24.513 C 333.926 23.811 333.59 23.059 333.32 22.273 C 333.23 21.905 333.18 21.686 333.32 21.535 C 333.479 21.32 333.718 21.234 333.94 21.32 L 334.47 21.551 C 335.37 22.388 336.086 23.525 336.55 24.831 C 337.24 26.419 337.98 28.144 339.34 28.547 C 339.66 28.614 339.72 28.747 339.72 28.814 L 339.38 29.548 L 336.69 32.511 C 336.244 32.728 335.766 32.812 335.29 32.778 C 334.755 32.661 334.318 32.159 334.16 31.489 C 333.85 30.638 333.89 30.471 334.4 30.184 Z M 501.43 8.302 L 501.46 8.302 C 501.629 8.518 501.783 8.756 501.92 9.004 C 502.304 9.74 502.462 10.612 502.36 11.481 C 502.111 12.768 501.397 13.841 500.44 14.326 C 499.27 15.028 497.976 15.328 496.69 15.178 C 493.79 14.407 488.77 11.933 482.97 9.038 L 482.68 8.921 C 474.54 4.84 465.31 0.288 457.82 -1.62 C 457.51 -1.838 457.235 -2.122 457.01 -2.472 L 465.84 -2.472 C 475.38 0.673 484.638 5.108 493.46 10.76 C 494.424 11.481 495.576 11.646 496.64 11.231 C 497.001 11.046 497.247 10.595 497.27 10.091 C 497.3 9.322 496.87 8.518 495.87 7.716 C 490.008 3.818 483.955 0.422 477.75 -2.472 L 486.34 -2.472 C 491.449 0.355 496.364 3.734 501.03 7.631 C 501.176 7.833 501.309 8.066 501.43 8.302 Z M 504.83 16.766 L 504.86 16.766 C 505.2 16.85 505.47 17.438 505.47 18.307 L 504.19 32.728 L 501.99 32.728 C 502.055 32.293 502.092 31.875 502.1 31.442 C 502.28 29.9 502.47 28.411 502.65 26.789 C 502.83 25.167 503.01 23.558 503.2 21.936 L 503.55 18.724 C 503.571 18.072 503.803 17.455 504.19 17.019 L 504.83 16.766 Z M 413.33 17.688 L 413.36 17.688 C 413.1 17.438 413.01 17.217 413.02 17.084 C 413.081 16.635 413.355 16.3 413.7 16.234 C 414.289 16.25 414.875 16.098 415.41 15.78 C 415.97 15.412 416.69 15.111 416.19 12.969 C 414.42 8.921 412.62 7.699 409.98 9.241 C 409.65 9.208 409.341 9.021 409.13 8.687 C 409 8.285 409.148 7.833 409.46 7.665 C 412.36 5.975 414.81 6.781 416.88 10.142 C 418.64 12.62 419.13 14.543 418.52 16.081 C 418.349 16.566 418.035 16.936 417.65 17.101 C 416.01 18.175 413.6 18.106 413.33 17.688 Z M 322.28 -1.437 L 322.31 -1.437 C 322.205 -1.787 322.22 -2.171 322.35 -2.506 L 327.51 -2.506 L 323.91 -0.147 L 323.83 -0.147 L 323.53 -0.147 C 322.953 -0.23 322.465 -0.735 322.28 -1.437 Z M 322.28 22.44 C 321.418 25.115 319.63 27.09 317.46 27.792 L 317.46 24.129 C 318.703 23.443 319.751 22.273 320.46 20.783 C 322.17 16.601 322.64 9.74 322.86 3.584 C 322.877 3.032 323.057 2.528 323.36 2.162 L 323.92 1.861 C 324.31 1.895 324.53 2.631 324.53 3.751 C 324.474 10.091 323.716 16.382 322.28 22.44 Z M 452.15 26.789 L 452.15 26.772 C 454.43 28.243 454.73 30.184 454.66 32.711 L 451.21 32.711 C 451.21 32.595 451.21 32.494 451.21 32.377 C 451.248 31.007 450.687 29.734 449.76 29.067 L 445.76 27.36 C 445.211 27.024 444.834 26.337 444.76 25.567 C 444.713 25.266 444.812 24.95 445.01 24.78 C 447.474 24.78 449.909 25.466 452.15 26.789 Z M 350.49 23.175 L 350.82 23.326 L 352.51 25.533 C 352.753 25.934 352.792 26.488 352.61 26.939 C 352.51 27.09 352.28 27.474 351.95 27.408 L 351.45 27.09 L 349.72 24.9 C 349.467 24.581 349.414 24.078 349.59 23.677 C 349.804 23.309 350.144 23.124 350.49 23.175 Z M 354.66 5.291 C 354.808 5.725 354.805 6.244 354.65 6.679 C 354.087 9.406 353.149 11.966 351.88 14.259 C 351.178 15.328 350.122 15.916 349.04 15.797 C 347.85 15.563 346.58 14.276 345.16 11.799 C 344.86 11.114 344.71 10.091 346.24 8.904 C 346.65 8.569 346.74 8.551 346.88 8.569 C 347.02 8.603 347.17 8.773 347.31 9.139 C 347.688 9.926 348.295 10.459 348.99 10.645 C 349.684 10.728 350.358 10.311 350.74 9.557 C 351.426 8.236 351.426 6.528 350.74 5.208 L 348.51 2.244 C 348.08 1.625 348.07 0.874 348.51 -0.417 L 348.63 -0.735 C 350.012 1.108 351.533 2.748 353.17 4.185 L 353.63 4.503 L 353.79 4.605 C 354.102 4.79 354.395 5.023 354.66 5.291 Z M 384.41 -2.472 C 389.673 5.441 394.269 14.041 398.12 23.209 C 399.344 26.288 400.399 29.466 401.28 32.744 L 398.28 32.744 C 393.2 18.724 387.39 7.884 381.78 -2.071 C 381.694 -2.188 381.62 -2.324 381.56 -2.472 L 384.41 -2.472 Z M 360.01 14.709 L 357.25 10.91 L 357.37 9.99 L 357.94 9.674 L 361.28 12.952 C 361.522 13.322 361.546 13.855 361.34 14.259 C 361.126 14.691 360.733 14.91 360.34 14.825 L 360.01 14.709 Z M 409.74 27.075 L 409.93 26.505 C 410.092 25.167 409.775 23.811 409.07 22.823 C 404.48 16.635 400.27 14.626 395.38 12.969 L 394.84 11.748 C 398.215 11.901 401.493 13.237 404.32 15.629 C 407.78 18.825 410.51 21.001 413.21 21.32 C 413.538 21.518 413.806 21.839 413.97 22.257 C 414.235 22.806 414.297 23.474 414.14 24.078 L 411.68 30.638 L 411.62 30.638 L 411.36 30.803 C 410.834 31.156 410.199 31.104 409.71 30.67 C 409.31 30.369 409.116 29.769 409.24 29.198 C 409.352 28.463 409.519 27.761 409.74 27.075 Z M 366.68 0.79 C 365.53 -0.333 364.48 -1.403 363.5 -2.472 L 366.17 -2.472 C 367.084 -1.569 367.881 -0.498 368.53 0.723 C 368.62 0.94 367.9 1.159 367.31 1.04 L 366.68 0.79 Z M 417.35 28.965 L 419.26 32.744 L 417.02 32.744 L 416.02 30.655 C 415.712 30.135 415.585 29.482 415.67 28.829 L 416.05 28.195 C 416.35 28.01 416.87 28.277 417.35 28.965 Z M 447.53 30.57 C 447.926 30.687 448.233 31.104 448.32 31.608 C 448.32 31.806 448.33 32.293 448.04 32.477 L 447.47 32.578 L 444.98 32.076 C 444.616 31.991 444.325 31.641 444.25 31.173 C 444.227 30.738 444.409 30.335 444.71 30.135 L 445.06 30.051 L 447.53 30.57 Z M 457.73 3.133 C 469.39 5.81 479.01 8.987 488.21 16.013 C 489.7 17.822 490.39 19.694 490.21 21.184 C 490.03 22.674 489.12 24.011 487.48 25.067 C 486.609 25.618 485.698 26.053 484.76 26.354 C 482.082 26.572 479.401 26.019 476.9 24.764 L 459.01 17.117 C 458.417 16.601 458.046 15.748 458.01 14.825 L 458.21 14.089 L 458.72 14.089 C 460.99 14.995 463.5 16.047 465.89 17.036 C 471.38 19.345 477.05 21.686 482.68 23.309 C 483.469 23.576 484.306 23.474 485.04 23.009 C 486.033 22.422 486.675 21.133 486.69 19.729 C 486.584 18.356 485.869 17.184 484.86 16.732 C 475.66 11.279 467.08 8.27 458.38 5.406 C 457.828 4.972 457.459 4.219 457.38 3.4 L 457.55 3.133 L 457.73 3.133 Z M 496.54 18.925 L 496.49 18.959 C 496.56 18.975 496.75 19.345 496.83 20.03 C 496.707 24.348 496.086 28.614 494.99 32.693 L 493.52 32.693 L 495.77 19.947 C 495.99 19.243 496.38 18.925 496.54 18.925 Z M 456.23 8.569 L 456.27 8.202 C 464.888 10.276 473.311 13.54 481.4 17.907 C 481.68 18.14 481.85 18.423 481.85 18.707 L 481.62 19.158 L 481.15 19.226 C 472.881 16.868 464.733 13.841 456.75 10.177 C 456.397 9.774 456.206 9.191 456.23 8.569 Z M 448.34 16.482 L 448.02 16.635 L 443.88 15.58 L 443.49 14.774 L 443.79 14.089 L 448.12 14.326 C 448.489 14.442 448.77 14.825 448.83 15.311 C 448.881 15.797 448.683 16.282 448.34 16.482 Z M 442.01 8.904 L 451.48 10.662 C 453.591 10.745 455.356 12.751 455.69 15.464 C 455.881 17.251 455.69 19.092 455.14 20.766 C 454.919 21.32 454.569 21.771 454.14 22.053 C 453.543 22.371 452.891 22.49 452.25 22.371 L 445.25 21.081 C 444.659 20.816 444.241 20.147 444.18 19.345 C 444.125 18.992 444.217 18.66 444.42 18.423 L 449.82 18.925 C 450.359 19.092 450.924 19.027 451.43 18.724 C 452.051 18.307 452.401 17.421 452.31 16.515 C 452.163 15.046 451.391 13.79 450.31 13.287 C 447.803 12.2 445.221 11.43 442.6 10.978 C 442.032 10.679 441.617 10.024 441.49 9.241 L 441.63 8.904 L 442.01 8.904 Z M 458.09 32.093 L 459.79 32.744 L 456.91 32.744 C 456.91 32.693 456.91 32.578 456.91 32.578 C 456.874 32.275 456.939 31.974 457.09 31.726 L 458.09 32.093 Z M 451.09 0.69 C 451.039 -0.481 450.654 -1.586 450.01 -2.404 L 452.93 -2.404 C 453.961 -0.199 454.278 2.448 453.81 4.955 C 453.589 5.525 453.239 5.975 452.81 6.261 C 451.516 6.764 450.155 6.929 448.81 6.748 L 448.07 6.748 C 445.333 6.628 442.608 6.227 439.92 5.542 C 438.788 5.174 437.812 4.236 437.2 2.946 L 437.27 2.849 L 437.51 2.849 L 448.4 3.483 C 448.952 3.534 449.505 3.4 450.01 3.116 C 450.704 2.648 451.126 1.708 451.09 0.69 Z M 325.77 30.301 C 325.8 31.138 325.911 31.959 326.1 32.744 L 324.39 32.744 C 324.16 31.374 324.039 29.985 324.03 28.597 C 323.87 27.207 324.29 26.772 324.93 26.589 C 325.366 26.288 325.856 26.154 326.35 26.171 C 326.736 26.171 327.101 26.388 327.35 26.772 C 327.35 26.772 328.04 30.77 327.35 30.522 C 327.16 30.638 326.89 30.135 326.68 29.533 C 326.54 29.165 325.77 29.781 325.77 30.301 Z M 329.57 23.558 C 330.937 26.271 331.514 29.533 331.2 32.744 L 329.53 32.744 C 329.587 31.374 329.459 30.018 329.15 28.697 L 329.09 28.547 C 328.731 27.059 328.639 25.482 328.82 23.928 C 328.96 23.292 329.16 23.059 329.16 23.059 C 329.324 23.175 329.465 23.36 329.57 23.558 Z M 319.76 4.338 C 319.93 3.648 320.29 3.282 320.37 3.299 C 320.45 3.299 320.63 3.631 320.7 4.321 C 320.74 10.595 320.18 15.481 318.98 19.26 C 318.84 19.813 318.51 19.964 318.38 19.947 C 318.25 19.93 318.01 19.881 318.01 19.345 L 319.76 4.338 Z M 318.1 30.018 C 318.27 30.018 318.53 30.352 318.6 31.324 C 318.52 31.79 318.52 32.275 318.52 32.744 L 317.43 32.744 L 317.43 32.127 C 317.48 31.675 317.52 31.224 317.58 30.753 C 317.61 30.386 317.82 30.085 318.1 30.018 Z M 321.45 27.761 C 321.9 29.499 322.28 31.156 322.63 32.693 L 320.32 32.693 C 320.25 31.991 320.16 31.272 320.06 30.538 C 319.982 29.366 320.218 28.178 320.73 27.207 L 321.01 27.207 L 321.45 27.761 Z M 493.07 21.468 C 493.51 21.936 493.52 22.24 493.47 22.607 C 492.416 25.886 491.567 29.283 490.93 32.744 L 489.15 32.744 L 491.41 23.976 C 491.66 23.426 491.93 22.741 492.21 22.137 C 492.401 21.754 492.719 21.502 493.07 21.468 Z M 407.21 24.248 C 407.55 24.615 407.68 26.806 406.57 25.834 C 403.664 22.49 400.52 19.51 397.18 16.936 L 396.72 15.916 C 398.98 16.668 404.38 20.749 407.21 24.248 Z M 487.86 26.973 C 487.94 26.99 488.1 27.376 488.07 28.095 C 487.86 29.734 487.63 31.289 487.36 32.744 L 485.77 32.744 L 487.02 27.909 C 487.29 27.24 487.71 26.973 487.86 26.973 Z M 414.01 12.834 C 414.013 13.153 413.873 13.456 413.65 13.591 C 413.068 13.807 412.452 13.807 411.87 13.591 C 411.43 13.337 411.12 12.936 411.08 12.685 C 411.04 12.433 411.24 12.016 411.61 11.464 C 411.932 11.181 412.317 11.029 412.71 11.029 C 413.01 11.097 413.53 11.532 414.01 12.834 Z M 390.69 2.347 C 391.977 2.261 393.268 2.313 394.55 2.483 C 400.69 2.38 405.69 6.863 409.48 15.916 L 409.77 16.749 L 409.42 16.749 C 407.93 16.45 406.29 14.509 404.62 10.995 C 401.12 6.091 396.81 4.389 391.69 4.537 L 390.69 2.347 Z M 401.12 0.508 L 401.08 0.508 C 400.09 1.124 399.71 0.605 399.67 0.525 C 399.63 0.439 399.65 0.102 399.98 -0.264 L 400.36 -0.498 C 403.22 -2.341 405.82 -2.941 409.14 0.255 C 409.76 0.857 410.108 1.826 410.07 2.832 C 409.953 3.617 409.554 4.27 409 4.589 C 408.525 4.874 407.997 4.972 407.48 4.874 L 407.26 4.236 C 408.06 3.7 408.26 3.366 408.26 2.664 C 408.273 1.912 407.951 1.21 407.43 0.857 C 404.61 -1.753 402.71 -0.531 401.12 0.508 Z M 403.49 1.341 L 403.45 1.324 C 404.61 0.79 405.42 1.324 405.75 2.094 C 405.86 2.38 405.95 2.882 405.65 3.032 C 405.266 3.167 404.858 3.133 404.49 2.946 C 403.42 2.38 403.26 1.895 403.26 1.861 C 403.26 1.81 403.27 1.642 403.49 1.341 Z M 389.49 -0.349 L 389.01 -1.551 C 389.736 -1.935 390.485 -2.239 391.25 -2.472 L 397.13 -2.472 L 397.61 -2.239 L 397.91 -2.088 C 397.96 -1.987 397.67 -1.403 396.91 -0.918 C 396.417 -0.548 395.841 -0.417 395.28 -0.531 C 394.01 -1.787 391.49 -1.102 389.49 -0.349 Z M 456.01 26.254 C 461.719 26.856 467.292 28.829 472.44 32.076 L 472.56 32.511 L 472.42 32.744 L 470.13 32.744 L 457.47 28.343 C 456.776 27.942 456.244 27.19 456.01 26.254 Z M 483.01 29.548 C 483.28 28.88 483.77 28.614 483.85 28.63 C 483.93 28.647 484.06 29.032 484.06 29.734 C 483.93 30.787 483.79 31.79 483.63 32.744 L 482.19 32.744 L 483.01 29.548 Z M 479.46 32.744 L 475.77 32.728 C 475.77 32.661 475.77 32.578 475.77 32.528 C 475.728 31.272 475.148 30.169 474.27 29.65 C 469.47 26.488 464.339 24.265 459.04 23.026 C 458.529 22.874 458.12 22.371 457.97 21.738 C 457.975 21.302 458.16 20.933 458.45 20.732 C 458.729 20.583 459.031 20.532 459.33 20.566 C 468.47 23.393 475 26.354 477.22 28.581 C 478.222 29.7 478.992 31.138 479.46 32.744 Z M 344.73 29.148 C 345.476 30.25 346.126 31.457 346.67 32.744 L 343.97 32.744 L 343.46 31.556 C 343.23 30.803 343.333 29.934 343.73 29.316 C 343.88 29.015 344.127 28.829 344.4 28.797 L 344.73 29.148 Z M 441.43 32.744 C 441.75 31.472 441.839 30.135 441.69 28.814 C 441.44 27.993 441.28 27.792 441.17 27.726 C 441.06 27.675 440.92 27.692 440.38 28.028 C 438.26 29.181 436.19 28.564 434.02 27.892 L 433.48 27.959 C 433.145 28.195 432.94 28.647 432.95 29.148 C 432.928 29.533 433.075 29.9 433.33 30.085 L 437.1 31.658 C 437.451 31.909 437.737 32.275 437.92 32.744 L 441.43 32.744 Z" style="fill: rgb(209, 193, 170);"/>
</svg>