<?xml version="1.0" encoding="utf-8"?>
<svg id="Capa_1" data-name="Capa 1" viewBox="0 0 635.01 33" xmlns="http://www.w3.org/2000/svg">
  <defs>
    <style>.cls-1{fill:#13322b;}.cls-2{fill:#235b4e;}.cls-3{fill:#d4c19c;}</style>
  </defs>
  <title>pleca plumaje_con fondo</title>
  <rect class="cls-1" x="0.01" width="635" height="33"/>
  <path class="cls-2" d="M 124.01 29.74 L 120.5 29.74 C 120.317 29.353 120.031 29.033 119.68 28.824 L 115.92 27.505 C 115.661 27.343 115.51 27.034 115.53 26.709 C 115.52 26.296 115.725 25.911 116.06 25.717 L 116.6 25.652 C 118.77 26.219 120.84 26.742 122.97 25.771 C 123.5 25.488 123.64 25.477 123.75 25.521 C 123.86 25.564 124.02 25.739 124.27 26.426 C 124.429 27.537 124.34 28.674 124.01 29.74 Z M 27.3 26.709 L 27.01 26.415 C 26.737 26.44 26.49 26.601 26.34 26.851 C 25.923 27.367 25.796 28.09 26.01 28.737 L 26.52 29.74 L 29.22 29.74 C 28.683 28.657 28.039 27.641 27.3 26.709 Z M 162.01 29.74 C 161.545 28.384 160.775 27.176 159.77 26.229 C 157.55 24.354 151.03 21.868 141.88 19.48 C 141.584 19.453 141.286 19.502 141.01 19.622 C 140.72 19.783 140.539 20.107 140.54 20.461 C 140.682 21.014 141.095 21.435 141.61 21.552 C 146.908 22.596 152.039 24.477 156.84 27.134 C 157.713 27.574 158.288 28.508 158.33 29.555 C 158.33 29.61 158.33 29.675 158.33 29.729 L 162.01 29.74 Z M 165.55 27.058 L 164.73 29.74 L 166.17 29.74 C 166.33 28.934 166.47 28.094 166.6 27.211 C 166.6 26.611 166.47 26.284 166.4 26.273 C 166.33 26.262 165.85 26.491 165.57 27.058 L 165.55 27.058 Z M 138.55 24.278 C 138.784 25.064 139.316 25.703 140.01 26.033 L 152.67 29.74 L 154.96 29.74 L 155.1 29.544 L 154.98 29.184 C 149.826 26.443 144.246 24.778 138.53 24.278 L 138.55 24.278 Z M 72.06 1.86 C 74.06 1.217 76.58 0.639 77.85 1.696 C 78.411 1.8 78.987 1.689 79.48 1.38 C 80.24 0.966 80.48 0.475 80.48 0.388 L 80.18 0.257 C 80.03 0.192 79.87 0.126 79.7 0.072 L 73.86 0.072 C 73.064 0.256 72.285 0.515 71.53 0.846 L 72.06 1.86 Z M 86.01 3.267 C 85.78 3.517 85.78 3.67 85.78 3.703 C 85.78 3.735 85.94 4.139 87.01 4.619 C 87.378 4.784 87.786 4.811 88.17 4.695 C 88.47 4.564 88.38 4.15 88.27 3.91 C 88.01 3.267 87.18 2.809 86.01 3.267 Z M 83.64 2.569 C 85.23 1.696 87.13 0.661 89.95 2.863 C 90.465 3.15 90.789 3.727 90.79 4.357 C 90.79 4.946 90.59 5.229 89.79 5.676 L 90 6.211 C 90.517 6.293 91.045 6.209 91.52 5.971 C 92.029 5.69 92.393 5.172 92.51 4.564 C 92.548 3.715 92.2 2.899 91.58 2.383 C 88.26 -0.31 85.66 0.203 82.8 1.751 L 82.42 1.947 C 82.1 2.263 82.07 2.536 82.11 2.612 C 82.15 2.689 82.66 3.092 83.65 2.58 L 83.64 2.569 Z M 73.26 4.128 L 74.26 5.971 C 79.38 5.851 83.69 7.29 87.19 11.422 C 88.86 14.377 90.5 16.013 91.99 16.264 L 92.34 16.264 L 92.01 15.598 C 88.22 7.966 83.23 4.182 77.08 4.27 C 75.812 4.116 74.535 4.068 73.26 4.128 Z M 96.58 12.96 C 96.11 11.869 95.58 11.499 95.28 11.444 C 94.887 11.44 94.502 11.57 94.18 11.815 C 93.81 12.273 93.61 12.622 93.65 12.84 C 93.69 13.058 94.01 13.396 94.44 13.603 C 95.022 13.784 95.638 13.784 96.22 13.603 C 96.447 13.486 96.588 13.233 96.58 12.96 Z M 170.43 24.877 C 170.28 24.877 169.87 25.106 169.59 25.662 L 168.34 29.74 L 169.93 29.74 C 170.2 28.519 170.43 27.211 170.64 25.826 C 170.67 25.215 170.51 24.899 170.43 24.877 Z M 89.78 22.577 C 86.95 19.633 81.55 16.198 79.29 15.555 L 79.75 16.427 C 83.091 18.593 86.236 21.101 89.14 23.918 C 90.25 24.736 90.12 22.893 89.78 22.577 Z M 175.63 20.243 C 175.283 20.275 174.969 20.48 174.78 20.799 C 174.5 21.312 174.23 21.89 173.98 22.359 L 171.72 29.74 L 173.5 29.74 C 174.127 26.826 174.966 23.971 176.01 21.203 C 176.09 20.887 176.08 20.636 175.63 20.243 Z M 4.01 25.543 L 3.53 25.074 L 3.25 25.074 C 2.738 25.9 2.502 26.893 2.58 27.887 C 2.68 28.508 2.77 29.108 2.84 29.697 L 5.15 29.697 C 4.85 28.41 4.48 27.015 4.01 25.543 Z M 0.67 27.44 C 0.39 27.5 0.18 27.752 0.15 28.061 C 0.1 28.465 0.05 28.835 0 29.217 L 0 29.74 L 1.09 29.74 C 1.09 29.348 1.09 28.944 1.17 28.552 C 1.11 27.723 0.84 27.451 0.67 27.44 Z M 2.33 5.807 L 0.62 18.444 C 0.62 18.902 0.86 18.946 0.99 18.957 C 1.12 18.968 1.45 18.848 1.59 18.379 C 2.79 15.195 3.35 11.073 3.31 5.796 C 3.24 5.218 3.06 4.935 2.98 4.924 C 2.9 4.913 2.5 5.229 2.33 5.807 Z M 12.14 21.999 C 12.035 21.828 11.894 21.686 11.73 21.585 C 11.68 21.585 11.53 21.781 11.39 22.315 C 11.215 23.604 11.308 24.919 11.66 26.164 L 11.72 26.295 C 12.029 27.396 12.157 28.547 12.1 29.697 L 13.78 29.697 C 14.081 27 13.5 24.275 12.14 21.999 Z M 8.34 27.691 C 8.34 27.243 9.11 26.731 9.25 27.036 C 9.46 27.538 9.73 27.963 9.92 27.876 C 10.61 28.083 9.92 24.714 9.92 24.714 C 9.672 24.391 9.306 24.203 8.92 24.201 C 8.423 24.183 7.93 24.307 7.49 24.561 C 6.85 24.714 6.43 25.074 6.59 26.251 C 6.599 27.425 6.72 28.594 6.95 29.74 L 8.65 29.74 C 8.467 29.074 8.363 28.385 8.34 27.691 Z M 133.66 2.732 C 133.687 3.596 133.244 4.396 132.53 4.771 C 132.025 5.019 131.472 5.128 130.92 5.087 L 120.08 4.553 L 119.84 4.553 L 119.77 4.64 C 120.382 5.725 121.358 6.508 122.49 6.821 C 125.178 7.391 127.903 7.73 130.64 7.835 L 131.38 7.835 C 132.725 7.992 134.086 7.851 135.38 7.421 C 135.809 7.18 136.159 6.799 136.38 6.33 C 136.864 4.201 136.551 1.949 135.51 0.072 L 132.56 0.072 C 133.223 0.774 133.617 1.725 133.66 2.732 Z M 140.66 29.195 L 139.66 28.89 C 139.509 29.091 139.444 29.353 139.48 29.61 C 139.48 29.61 139.48 29.697 139.48 29.74 L 142.36 29.74 L 140.66 29.195 Z M 124.53 9.656 L 124.15 9.656 L 124.01 9.94 C 124.137 10.599 124.557 11.147 125.13 11.401 C 127.748 11.779 130.326 12.429 132.83 13.341 C 133.911 13.771 134.683 14.823 134.83 16.067 C 134.927 16.829 134.575 17.575 133.95 17.932 C 133.444 18.178 132.879 18.235 132.34 18.095 L 126.94 17.681 C 126.737 17.868 126.645 18.161 126.7 18.444 C 126.761 19.121 127.179 19.697 127.77 19.916 L 134.77 21.007 C 135.408 21.1 136.057 21.005 136.65 20.734 C 137.079 20.493 137.429 20.112 137.65 19.644 C 138.205 18.237 138.396 16.69 138.2 15.173 C 137.867 12.904 136.107 11.209 134 11.128 L 124.53 9.656 Z M 130.86 16.046 C 131.203 15.865 131.401 15.465 131.35 15.053 C 131.292 14.648 131.016 14.321 130.65 14.225 L 126.31 14.028 L 126.02 14.595 L 126.4 15.282 L 130.54 16.165 L 130.86 16.046 Z M 138.75 9.373 C 138.726 9.886 138.917 10.384 139.27 10.725 C 147.253 13.809 155.401 16.358 163.67 18.357 L 164.14 18.292 L 164.37 17.91 C 164.37 17.67 164.2 17.43 163.92 17.245 C 155.831 13.558 147.408 10.814 138.79 9.056 L 138.75 9.373 Z M 179.05 18.095 C 178.9 18.095 178.51 18.368 178.29 18.957 L 176.01 29.74 L 177.48 29.74 C 178.576 26.298 179.197 22.697 179.32 19.055 C 179.32 18.444 179.14 18.139 179.01 18.128 L 179.05 18.095 Z M 140.3 4.782 L 140.12 4.782 L 139.95 5.011 C 140.029 5.711 140.398 6.334 140.95 6.701 C 149.65 9.111 158.23 11.651 167.43 16.253 C 168.439 16.63 169.154 17.614 169.26 18.771 C 169.245 19.964 168.603 21.041 167.61 21.541 C 166.876 21.928 166.039 22.017 165.25 21.792 C 159.62 20.418 153.95 18.444 148.46 16.503 C 146.07 15.675 143.56 14.781 141.29 14.017 L 140.78 14.017 L 140.58 14.65 C 140.616 15.426 140.987 16.138 141.58 16.569 L 159.47 23.024 C 161.974 24.084 164.659 24.541 167.34 24.365 C 168.274 24.1 169.182 23.735 170.05 23.275 C 171.69 22.391 172.6 21.257 172.79 20.004 C 172.98 18.75 172.27 17.169 170.79 15.642 C 161.61 9.721 152.01 7.05 140.3 4.782 Z M 130.1 27.909 L 127.63 27.472 L 127.28 27.549 C 126.979 27.711 126.797 28.056 126.82 28.421 C 126.895 28.814 127.186 29.114 127.55 29.173 L 130.04 29.599 L 130.61 29.522 C 130.9 29.359 130.89 28.955 130.89 28.792 C 130.803 28.357 130.496 28.015 130.1 27.909 Z M 99.92 26.557 C 99.44 25.979 98.92 25.75 98.62 25.902 L 98.24 26.448 C 98.154 26.993 98.285 27.552 98.6 27.985 L 99.6 29.74 L 101.84 29.74 L 99.92 26.557 Z M 49.25 2.809 L 49.88 3.027 C 50.47 3.125 51.19 2.939 51.1 2.754 C 50.448 1.73 49.652 0.824 48.74 0.072 L 46.07 0.072 C 47.01 0.966 48.1 1.871 49.25 2.809 Z M 92.31 24.965 C 92.089 25.541 91.922 26.14 91.81 26.753 C 91.686 27.236 91.88 27.749 92.28 27.996 C 92.769 28.363 93.404 28.405 93.93 28.105 L 94.19 27.963 L 94.25 27.963 L 96.71 22.446 C 96.867 21.932 96.805 21.367 96.54 20.909 C 96.376 20.558 96.108 20.277 95.78 20.113 C 93.08 19.851 90.35 18.019 86.89 15.315 C 84.063 13.301 80.785 12.17 77.41 12.044 L 77.95 13.08 C 82.84 14.475 87.05 16.165 91.65 21.377 C 92.348 22.221 92.66 23.362 92.5 24.485 L 92.31 24.965 Z M 42.54 14.552 L 42.87 14.65 C 43.263 14.718 43.656 14.525 43.87 14.159 C 44.076 13.822 44.052 13.377 43.81 13.069 L 40.46 10.31 L 39.88 10.583 L 39.77 11.357 L 42.54 14.552 Z M 67.01 0.072 L 64.13 0.072 C 64.19 0.191 64.264 0.301 64.35 0.399 C 70.01 8.795 75.77 17.932 80.85 29.74 L 83.85 29.74 C 82.969 26.985 81.914 24.3 80.69 21.704 C 76.849 13.984 72.263 6.732 67.01 0.072 Z M 37.26 6.614 C 36.997 6.382 36.708 6.188 36.4 6.036 L 36.23 5.949 L 35.78 5.676 C 34.138 4.468 32.613 3.079 31.23 1.533 L 31.11 1.795 C 30.67 2.885 30.68 3.517 31.11 4.041 L 33.31 6.538 C 34.011 7.633 34.031 9.083 33.36 10.201 C 32.978 10.837 32.304 11.189 31.61 11.117 C 30.915 10.964 30.308 10.507 29.93 9.852 C 29.79 9.547 29.64 9.394 29.5 9.373 C 29.36 9.351 29.27 9.373 28.86 9.656 C 27.33 10.659 27.48 11.51 27.78 12.098 C 29.2 14.17 30.47 15.26 31.66 15.5 C 32.73 15.561 33.764 15.068 34.45 14.17 C 35.719 12.24 36.657 10.075 37.22 7.781 C 37.381 7.409 37.385 6.978 37.23 6.603 L 37.26 6.614 Z M 33.06 21.672 C 32.714 21.63 32.374 21.787 32.16 22.086 C 31.991 22.425 32.044 22.845 32.29 23.122 L 34.01 24.965 L 34.51 25.237 C 34.78 25.24 35.031 25.087 35.17 24.834 C 35.372 24.459 35.332 23.985 35.07 23.656 L 33.39 21.803 L 33.06 21.672 Z M 134.73 24.714 C 132.472 23.595 130.02 23.022 127.54 23.035 C 127.348 23.181 127.254 23.438 127.3 23.689 C 127.37 24.349 127.749 24.922 128.3 25.205 L 132.3 26.644 C 133.239 27.193 133.812 28.274 133.78 29.435 C 133.78 29.533 133.78 29.62 133.78 29.719 L 137.24 29.719 C 137.3 27.581 137.01 25.957 134.73 24.714 L 134.73 24.714 Z M 4.85 21.061 C 6.284 15.956 7.045 10.655 7.11 5.316 C 7.11 4.368 6.88 3.746 6.49 3.714 L 5.93 3.975 C 5.627 4.284 5.447 4.711 5.43 5.164 C 5.21 10.354 4.74 16.133 3.01 19.622 C 2.301 20.878 1.253 21.865 0.01 22.446 L 0.01 25.521 C 2.179 24.951 3.973 23.298 4.85 21.061 Z M 4.89 0.933 C 5.067 1.534 5.554 1.962 6.13 2.024 L 6.43 2.024 L 6.51 2.024 L 10.11 0.072 L 4.95 0.072 C 4.822 0.338 4.8 0.649 4.89 0.933 Z M 95.89 17.049 C 96.16 17.408 98.57 17.463 100.21 16.558 C 100.595 16.417 100.909 16.109 101.08 15.708 C 101.7 14.399 101.2 12.785 99.44 10.692 C 97.41 7.857 95.01 7.192 92.06 8.609 C 91.748 8.745 91.6 9.133 91.73 9.471 C 91.941 9.748 92.25 9.915 92.58 9.929 C 95.23 8.642 97.01 9.667 98.79 13.08 C 99.29 14.89 98.57 15.141 98.01 15.446 C 97.475 15.716 96.889 15.847 96.3 15.827 C 95.955 15.883 95.681 16.173 95.62 16.547 C 95.6 16.656 95.67 16.841 95.93 17.049 L 95.89 17.049 Z M 187.39 16.285 L 186.75 16.493 C 186.363 16.855 186.131 17.376 186.11 17.932 L 185.76 20.636 C 185.57 21.999 185.39 23.362 185.21 24.725 C 185.03 26.088 184.84 27.353 184.66 28.639 C 184.652 29.005 184.615 29.37 184.55 29.729 L 186.75 29.729 L 188.03 17.572 C 188.01 16.841 187.77 16.351 187.43 16.285 L 187.39 16.285 Z M 184.01 9.144 C 183.889 8.944 183.756 8.755 183.61 8.577 C 178.939 5.293 174.022 2.448 168.91 0.072 L 160.31 0.072 C 166.514 2.5 172.567 5.367 178.43 8.653 C 179.43 9.329 179.86 10.005 179.83 10.659 C 179.807 11.082 179.561 11.452 179.2 11.608 C 178.136 11.965 176.984 11.823 176.02 11.215 C 167.204 6.456 157.953 2.721 148.42 0.072 L 139.54 0.072 C 139.765 0.363 140.04 0.604 140.35 0.781 C 147.84 2.394 157.07 6.232 165.21 9.667 L 165.5 9.765 C 171.3 12.207 176.32 14.29 179.22 14.944 C 180.506 15.068 181.8 14.82 182.97 14.225 C 183.927 13.809 184.641 12.916 184.89 11.826 C 184.996 11.097 184.842 10.352 184.46 9.743 C 184.322 9.533 184.172 9.333 184.01 9.144 Z M 17.01 27.592 C 16.5 27.832 16.47 27.974 16.77 28.683 C 16.928 29.25 17.365 29.671 17.9 29.773 C 18.376 29.807 18.854 29.729 19.3 29.544 L 21.99 27.047 L 22.33 26.426 C 22.33 26.371 22.27 26.262 21.95 26.208 C 20.59 25.87 19.85 24.409 19.16 23.078 C 18.682 21.951 17.941 20.981 17.01 20.265 L 16.48 20.069 C 16.258 20 16.019 20.071 15.86 20.254 C 15.72 20.374 15.77 20.56 15.86 20.876 C 16.13 21.542 16.466 22.174 16.86 22.762 C 17.81 24.278 18.95 26.164 17.01 27.592 Z M 108.21 0.29 C 107.062 0.812 105.822 1.046 104.58 0.977 L 104.39 1.511 C 104.414 1.774 104.579 1.997 104.81 2.078 L 107.39 2.569 C 110.66 1.991 112.39 3.485 112.96 4.957 C 113.472 6.025 113.091 7.344 112.11 7.901 C 111.267 8.26 110.338 8.302 109.47 8.021 C 109.651 8.501 109.957 8.914 110.35 9.209 C 113.2 11.008 115.97 11.008 117.46 10.179 C 118.05 9.945 118.483 9.39 118.6 8.718 C 118.69 7.813 118.12 6.832 116.94 5.818 C 114.85 4.348 113.076 2.403 111.74 0.115 L 108.57 0.115 C 108.45 0.148 108.34 0.224 108.21 0.29 Z M 11.07 3.692 C 10.681 4.052 10.449 4.575 10.43 5.131 L 10.08 7.824 C 9.88 9.198 9.7 10.561 9.53 11.924 C 9.36 13.287 9.16 14.552 9.01 15.838 C 9.072 17.432 8.405 18.956 7.23 19.905 L 7.16 19.993 C 6.716 20.36 6.328 20.802 6.01 21.301 C 5.36 23.046 5.51 23.482 5.57 23.623 L 5.7 23.623 C 5.923 23.649 6.149 23.619 6.36 23.536 C 9.28 21.497 10.79 19.404 11.02 16.929 L 12.34 4.782 C 12.34 4.041 12.05 3.539 11.71 3.485 L 11.07 3.692 Z M 129.42 2.601 C 129.95 2.318 130.42 1.74 130.23 1.653 C 128.14 0.475 116.75 0.562 116.75 0.562 C 116.985 0.905 117.294 1.179 117.65 1.358 C 121.308 2.253 125.041 2.736 128.79 2.798 L 129.42 2.601 Z M 105.93 29.697 C 107.42 27.153 107.815 24.026 107.01 21.137 C 106.628 19.868 105.786 18.824 104.68 18.248 C 103.55 17.779 102.05 17.965 100.11 18.826 L 99.6 19.033 C 98.8 19.48 98.5 20.123 98.6 20.636 C 98.703 20.979 98.973 21.231 99.3 21.29 L 101.96 20.549 C 102.649 20.394 103.367 20.539 103.96 20.952 C 104.756 21.997 105.15 23.337 105.06 24.692 C 104.5 27.778 103.7 28.334 104.79 29.555 L 104.92 29.74 L 105.92 29.74 L 105.93 29.697 Z M 103.36 23.656 C 102.53 22.282 101.88 22.664 101.61 22.795 C 101.265 23.017 100.946 23.284 100.66 23.591 C 100.381 23.898 100.295 24.355 100.44 24.757 C 100.764 25.152 101.254 25.33 101.73 25.226 C 102.049 25.123 102.36 24.992 102.66 24.834 C 103.6 24.31 103.5 23.983 103.36 23.656 Z M 119.76 20.047 C 119.085 20.334 118.335 20.334 117.66 20.047 C 117.36 19.884 117.15 19.851 117.02 19.927 C 116.89 20.004 116.83 20.047 116.69 20.538 C 116.07 22.25 116.69 22.838 117.31 23.133 C 119.69 23.94 121.37 24.049 122.43 23.482 C 123.31 22.892 123.839 21.839 123.82 20.712 C 123.659 18.362 123.096 16.066 122.16 13.941 C 122.049 13.561 121.809 13.241 121.49 13.047 C 121.156 13.026 120.821 13.044 120.49 13.102 L 120.3 13.102 L 119.77 13.156 C 117.715 13.183 115.663 12.997 113.64 12.6 L 113.7 12.873 C 113.98 13.963 114.41 14.508 115.09 14.65 L 118.38 15.348 C 119.576 15.76 120.451 16.883 120.63 18.237 C 120.719 18.98 120.371 19.704 119.76 20.047 Z M 100.93 6.963 L 101.71 7.868 C 107.88 15.228 111.84 19.949 108.78 29.773 L 112.78 29.773 C 113.154 28.239 113.392 26.669 113.49 25.085 C 114.69 16.7 104.79 5.971 98.71 0.105 L 93.89 0.105 C 96.488 2.051 98.853 4.344 100.93 6.93 L 100.93 6.963 Z M 16.34 4.15 C 16.51 2.569 15.76 2.471 15.47 2.416 C 15.056 2.377 14.639 2.399 14.23 2.481 C 13.823 2.547 13.484 2.854 13.35 3.277 C 13.28 3.648 13.59 4.095 14.09 4.368 C 14.417 4.477 14.752 4.561 15.09 4.619 C 16.14 4.826 16.29 4.455 16.34 4.15 Z M 18.45 2.362 C 18.433 3.722 17.935 5.023 17.06 5.992 C 14.75 8.173 13.78 8.086 13.91 9.721 C 13.84 10.452 14.13 10.507 14.28 10.528 L 14.74 10.528 C 17.82 9.056 19.83 6.974 20.8 4.357 C 21.271 3.165 21.231 1.806 20.69 0.65 C 20.557 0.442 20.407 0.248 20.24 0.072 L 15.16 0.072 L 17.16 0.846 C 17.764 1.134 18.231 1.683 18.45 2.362 L 18.45 2.362 Z M 24.01 24.714 C 24.427 24.759 24.847 24.66 25.21 24.43 C 26.031 23.688 26.893 22.999 27.79 22.37 C 29.211 21.574 30.423 20.395 31.31 18.946 C 31.52 18.259 31.49 17.997 31.44 17.91 C 31.39 17.823 31.27 17.746 30.67 17.637 C 28.39 17.125 27.05 15.457 25.67 13.712 L 25.2 13.44 C 24.813 13.399 24.434 13.581 24.2 13.919 C 23.992 14.144 23.925 14.482 24.03 14.781 L 26.23 18.052 C 26.515 18.75 26.397 19.565 25.93 20.134 C 25.48 20.733 24.786 21.048 24.08 20.974 C 23.735 20.933 23.414 20.763 23.17 20.494 L 20.82 17.986 L 20.3 17.768 C 19.977 17.726 19.659 17.886 19.48 18.183 C 19.308 18.445 19.285 18.79 19.42 19.077 C 20.335 20.83 21.451 22.449 22.74 23.896 C 23.069 24.315 23.515 24.602 24.01 24.714 Z M 14.16 17.736 L 14.31 17.736 C 17.52 16.852 20.53 14.748 23.52 11.324 C 26.12 8.762 27.33 4.608 27.77 0.05 L 24.6 0.05 C 24.01 5.534 21.54 9.809 14.01 14.17 C 13.303 14.762 12.991 15.76 13.22 16.7 C 13.304 17.233 13.69 17.65 14.18 17.736 L 14.16 17.736 Z M 38.12 0.072 L 32.61 0.072 C 33.443 1.031 34.537 1.673 35.73 1.904 C 36.377 2.074 37.059 1.882 37.55 1.391 C 37.873 1.036 38.074 0.57 38.12 0.072 Z M 224.12 25.608 L 217.79 17.91 L 217.47 17.681 L 217.17 17.801 C 216.815 18.356 216.758 19.074 217.02 19.687 C 218.789 21.767 220.348 24.048 221.67 26.491 C 222.18 27.531 222.111 28.796 221.49 29.762 L 225.33 29.762 C 225.663 28.246 225.21 26.653 224.15 25.608 L 224.12 25.608 Z M 278.7 10.169 C 278.234 10.437 277.731 10.621 277.21 10.714 L 277.01 10.899 C 277.141 11.061 277.297 11.198 277.47 11.302 C 279.171 11.772 280.967 11.619 282.58 10.866 C 283.32 10.575 283.847 9.854 283.94 9.002 C 283.94 7.813 282.71 6.363 280.55 4.978 L 280.17 4.684 L 280.08 4.597 L 280.01 4.433 C 279.91 4.226 279.74 3.746 277.01 3.158 L 276.86 3.158 C 276.97 3.648 276.68 4.248 276.01 4.728 C 275.533 5.095 275.032 5.423 274.51 5.709 C 273.95 6.014 273.25 6.341 272.42 6.701 L 272.21 7.028 C 272.618 7.473 273.216 7.641 273.77 7.464 C 277.56 5.545 279.55 6.091 280.16 7.225 C 280.77 8.359 280.01 9.449 278.7 10.169 Z M 288.34 21.072 C 287.494 21.42 286.567 21.458 285.7 21.181 C 285.879 21.657 286.181 22.067 286.57 22.359 C 289.42 24.169 292.19 24.169 293.68 23.34 C 294.283 23.102 294.72 22.526 294.82 21.835 C 294.92 20.93 294.34 19.949 293.16 18.935 C 290.698 17.192 288.676 14.804 287.28 11.989 C 287 11.455 286.8 11.346 286.57 11.292 C 286.319 11.536 286.107 11.823 285.94 12.142 C 285.526 12.684 285.016 13.129 284.44 13.45 C 283.292 13.972 282.052 14.207 280.81 14.137 L 280.61 14.672 C 280.626 14.937 280.782 15.167 281.01 15.26 L 283.58 15.751 C 286.86 15.162 288.58 16.667 289.16 18.128 C 289.657 19.2 289.296 20.508 288.34 21.105 L 288.34 21.072 Z M 268.28 3.626 L 267.95 3.953 C 269.989 4.34 272.087 4.102 274.01 3.267 C 274.78 2.809 274.96 2.471 275.01 2.296 C 274.981 2.025 274.859 1.776 274.67 1.598 C 273.6 1.01 272.57 0.508 271.57 0.094 L 267.71 0.094 L 268.36 0.344 C 269.31 0.781 269.77 1.271 269.79 1.882 C 269.81 2.492 269.31 3.092 268.28 3.648 L 268.28 3.626 Z M 264.2 1.304 C 263.465 1.404 262.753 1.652 262.1 2.034 C 261.5 2.372 260.87 2.787 260.43 3.125 C 260.23 3.31 260.2 3.43 260.23 3.485 C 260.26 3.539 260.53 3.823 261.23 3.812 C 262.125 3.707 262.997 3.437 263.81 3.016 C 264.24 2.797 264.627 2.489 264.95 2.111 C 265.2 1.707 265.15 1.587 265.13 1.566 C 265.11 1.544 265.01 1.337 264.2 1.304 Z M 252.65 3.354 C 253.53 2.765 254.45 2.187 255.41 1.675 C 256.589 1.028 257.817 0.491 259.08 0.072 L 254.91 0.072 C 254.123 0.428 253.363 0.81 252.63 1.217 C 251.8 1.664 250.91 2.198 250.04 2.754 C 249.72 2.983 249.56 3.223 249.6 3.299 C 249.84 3.714 251.39 3.964 252.65 3.354 Z M 298.39 27.113 C 298.282 26.731 298.041 26.41 297.72 26.219 C 297.386 26.193 297.05 26.212 296.72 26.273 L 296.54 26.273 L 296.01 26.328 C 293.955 26.355 291.902 26.169 289.88 25.771 L 289.94 26.044 C 290.22 27.134 290.64 27.68 291.33 27.821 L 294.61 28.519 C 295.226 28.751 295.772 29.162 296.19 29.708 L 299.35 29.708 C 299.076 28.823 298.756 27.957 298.39 27.113 L 298.39 27.113 Z M 255.7 25.75 C 255.082 25.638 254.457 25.579 253.83 25.575 L 254.35 26.557 C 256.813 26.52 259.163 27.684 260.76 29.729 C 260.76 29.729 260.76 29.729 260.76 29.729 L 261.88 29.729 C 260.12 27.178 258.01 25.837 255.7 25.75 L 255.7 25.75 Z M 314.63 27.363 C 314.335 27.32 314.036 27.406 313.8 27.603 C 313.537 27.802 313.377 28.127 313.37 28.476 L 313.16 29.74 L 315.48 29.74 C 315.54 29.37 315.6 28.999 315.67 28.65 C 315.689 27.989 315.234 27.426 314.63 27.363 L 314.63 27.363 Z M 277.35 28.901 C 277.96 27.592 277.47 25.979 275.71 23.885 C 273.63 21.05 271.19 20.385 268.29 21.803 C 267.978 21.939 267.83 22.327 267.96 22.664 C 268.165 22.942 268.473 23.106 268.8 23.111 C 271.45 21.835 273.24 22.86 275.01 26.262 C 275.51 28.083 274.79 28.334 274.24 28.639 C 273.701 28.909 273.113 29.04 272.52 29.021 C 272.173 29.067 271.897 29.362 271.85 29.74 L 276.51 29.74 C 276.877 29.585 277.176 29.286 277.35 28.901 L 277.35 28.901 Z M 240.01 8.282 L 239.79 8.282 C 239.312 9.468 239.414 10.837 240.06 11.924 C 243.854 17.659 247.382 23.598 250.63 29.719 L 254.22 29.719 C 250.309 22.313 245.744 15.341 240.59 8.904 C 240.35 8.511 240.18 8.326 240.01 8.282 Z M 40.71 23.896 C 39.578 21.626 37.967 19.683 36.01 18.226 C 35.765 18.228 35.539 18.374 35.42 18.608 C 35.079 19.152 35.044 19.859 35.33 20.44 L 37.65 23.983 C 38.035 25.048 37.812 26.26 37.08 27.08 C 36.481 27.951 35.516 28.428 34.52 28.345 C 34.058 28.285 33.626 28.063 33.29 27.712 L 30.59 24.877 L 30.17 24.539 C 29.89 24.539 29.55 24.768 29.34 25.205 C 29.13 25.641 28.97 26.295 29.34 26.676 L 32.21 29.708 L 39.36 29.708 C 40.91 27.93 41.85 26.404 40.71 23.896 Z M 272.45 26.742 C 272.658 26.63 272.795 26.405 272.81 26.153 C 272.33 25.063 271.81 24.692 271.51 24.627 C 271.113 24.631 270.727 24.764 270.4 25.008 C 270.03 25.466 269.83 25.815 269.87 26.033 C 269.91 26.251 270.23 26.589 270.66 26.786 C 271.247 26.965 271.871 26.95 272.45 26.742 Z M 255.26 22.119 C 254.357 21.966 253.444 21.886 252.53 21.879 L 253.16 23.231 C 256.81 23.318 259.82 24.485 262.16 27.592 C 262.539 28.369 262.991 29.1 263.51 29.773 L 265.01 29.773 C 262.64 24.812 259.37 22.261 255.26 22.119 Z M 317.43 7.235 C 317.105 7.289 316.824 7.513 316.68 7.835 C 316.45 8.348 316.68 7.835 316.03 9.405 C 311.97 24.267 314.56 24.91 314.56 24.91 C 315.055 25.374 315.678 25.642 316.33 25.673 C 316.705 25.697 317.082 25.668 317.45 25.586 L 317.45 22.49 C 317.297 22.534 317.138 22.552 316.98 22.544 C 316.48 22.544 315.65 22.141 315.66 20.113 C 315.922 16.554 316.522 13.035 317.45 9.612 L 317.43 7.235 Z M 200.8 2.558 C 201.317 3.031 201.614 3.73 201.61 4.466 C 201.519 4.851 201.283 5.175 200.96 5.36 C 199.917 5.803 198.791 5.96 197.68 5.818 C 193.192 5.497 188.792 4.316 184.68 2.329 C 183.25 1.544 181.85 0.802 180.48 0.072 L 173.77 0.072 C 179.4 2.82 183.15 3.692 187.77 6.679 C 187.94 6.856 188.094 7.049 188.23 7.257 C 195.77 10.528 202.79 10.169 209.69 6.003 C 210.34 5.611 211.03 5.142 211.69 4.673 C 212.69 3.735 212.61 3.354 212.6 3.343 C 212.59 3.332 212.24 3.027 211.5 2.929 C 208.618 2.559 205.827 1.589 203.28 0.072 L 197.34 0.072 L 200.8 2.558 Z M 193.48 3.528 C 194.146 3.709 194.848 3.647 195.48 3.354 C 195.669 3.27 195.802 3.083 195.83 2.863 C 195.83 2.307 195.12 1.511 193.95 0.737 L 192.86 0.072 L 187.01 0.072 L 193.48 3.528 Z M 305.29 26.557 C 305.547 26.378 305.658 26.031 305.56 25.717 C 305.471 25.394 305.216 25.159 304.91 25.117 L 301.48 25.292 L 301.31 25.771 L 301.69 26.306 L 305.06 26.676 L 305.29 26.557 Z M 56.78 25.248 C 55.51 23.067 54.19 20.767 52.95 18.706 L 52.55 18.401 L 51.98 18.75 C 51.51 19.325 51.333 20.118 51.51 20.865 L 56.51 29.729 L 59.41 29.729 C 58.52 28.247 57.65 26.742 56.78 25.248 Z M 0.39 8.13 C 0.445 7.78 0.293 7.432 0.01 7.257 L 0.01 9.536 C 0.13 9.045 0.26 8.566 0.39 8.13 Z M 246.17 0.072 L 242.76 0.072 C 242.613 0.252 242.476 0.441 242.35 0.639 C 242.012 1.135 241.743 1.682 241.55 2.263 C 241.55 2.263 239.86 7.29 245.34 9.449 C 247.48 10.288 249.34 10.005 251.56 9.787 C 252.71 9.678 253.56 9.612 254.4 9.58 C 255.99 9.58 257.61 9.58 259.21 9.721 C 265.42 9.983 270.14 11.706 277.16 20.123 L 277.93 21.028 C 280.35 23.669 282.493 26.595 284.32 29.751 L 287.92 29.751 C 284.08 21.715 275.35 13.636 271.85 10.419 C 268.452 7.509 264.148 6.155 259.85 6.647 L 247.32 7.137 C 245.943 6.944 244.739 6.033 244.09 4.695 C 243.54 3.397 244.21 2.721 245.15 1.304 C 245.447 0.853 245.789 0.44 246.17 0.072 Z M 235.17 3.844 C 235.662 4.55 235.662 5.527 235.17 6.232 C 234.685 6.87 233.899 7.132 233.17 6.897 C 232.552 6.731 231.98 6.405 231.5 5.949 C 229.861 3.847 228.079 1.883 226.17 0.072 L 223.68 0.072 C 226.841 3.063 229.821 6.276 232.6 9.689 C 233.129 10.362 233.823 10.857 234.6 11.117 C 235.368 11.24 236.144 10.966 236.7 10.376 C 238.7 7.443 237.99 4.073 234.6 0.137 L 234.52 0.072 L 231.91 0.072 C 233.063 1.253 234.145 2.513 235.15 3.844 L 235.17 3.844 Z M 281.42 0.955 L 281.17 0.955 C 282.068 1.46 283.052 1.761 284.06 1.838 C 291.49 1.326 304 1.053 310.16 2.46 C 310.918 2.619 311.496 3.293 311.59 4.128 C 311.579 4.866 311.148 5.518 310.51 5.763 C 309.936 6.016 309.318 6.127 308.7 6.091 C 301.754 4.924 294.713 4.588 287.7 5.087 L 287.64 5.436 C 287.91 6.066 288.531 6.423 289.16 6.309 C 296.716 6.202 304.267 6.801 311.73 8.097 C 312.491 8.253 313.276 8.193 314.01 7.922 C 314.642 7.585 315.072 6.918 315.15 6.156 C 314.9 2.885 312.4 0.944 307.55 0.203 C 306.39 0.203 305.02 0.105 303.55 0.072 L 291.44 0.072 C 288.085 0.106 284.736 0.401 281.42 0.955 Z M 309.84 10.834 C 304.18 9.198 297.55 8.653 289 8.98 L 288.87 9.351 C 289.079 10.015 289.628 10.482 290.27 10.539 C 291.81 10.703 293.95 10.757 296.43 10.812 C 301.23 10.921 306.17 11.03 307.71 12.109 C 308.877 12.716 309.645 13.972 309.71 15.38 C 309.719 16.231 309.274 17.01 308.57 17.376 C 308.068 17.635 307.515 17.758 306.96 17.736 L 296.16 17.441 L 295.92 17.441 L 295.85 17.528 C 296.459 18.563 297.425 19.286 298.53 19.535 C 301.207 20.034 303.915 20.304 306.63 20.342 L 307.36 20.342 C 308.71 20.46 310.068 20.293 311.36 19.851 C 311.785 19.604 312.133 19.224 312.36 18.761 C 313.22 15.773 311.69 11.891 309.84 10.834 L 309.84 10.834 Z M 311.01 28.857 C 311.279 27.652 311.244 26.39 310.91 25.205 C 310.397 23.413 308.85 22.217 307.13 22.282 L 299.46 21.803 L 299.17 21.868 L 299.09 22.108 C 299.269 22.627 299.656 23.028 300.14 23.198 C 302.26 23.294 304.367 23.615 306.43 24.158 C 307.346 24.429 308.066 25.202 308.33 26.197 C 308.499 26.778 308.305 27.412 307.85 27.767 C 307.477 28.007 307.039 28.1 306.61 28.029 L 302.3 28.116 C 302.167 28.298 302.133 28.542 302.21 28.759 C 302.321 29.174 302.576 29.526 302.92 29.74 L 310.41 29.74 C 310.684 29.515 310.892 29.208 311.01 28.857 Z M 247.76 14.039 L 248.29 15.053 C 250.29 14.41 252.81 13.832 254.08 14.89 C 254.64 14.988 255.215 14.877 255.71 14.574 C 256.47 14.159 256.71 13.669 256.71 13.57 L 256.4 13.45 C 254.31 12.458 250.39 12.84 247.76 14.039 Z M 305.64 15.751 C 306.17 15.457 306.64 14.89 306.45 14.803 C 304.36 13.625 292.97 13.712 292.97 13.712 C 293.208 14.055 293.521 14.329 293.88 14.508 C 297.535 15.402 301.265 15.885 305.01 15.947 L 305.64 15.751 Z M 256.01 29.62 L 256.19 29.74 L 257.81 29.74 C 257.083 29.333 256.323 29.001 255.54 28.748 L 256.01 29.62 Z M 61.77 3.91 L 61.48 3.594 L 61.18 3.844 C 60.479 4.801 60.248 6.07 60.56 7.246 C 65.07 13.243 69.41 21.955 73.26 29.74 L 77.01 29.74 C 72.59 20.189 66.94 11.531 61.77 3.91 Z M 95.57 29.326 L 95.29 29.74 L 96.59 29.74 C 96.21 29.337 95.84 29.184 95.57 29.326 Z M 82.09 20.854 L 83.94 24.376 C 85.556 25.764 86.777 27.625 87.46 29.74 L 90.46 29.74 C 90.389 29.559 90.305 29.385 90.21 29.217 C 88.029 25.879 85.271 23.038 82.09 20.854 Z M 182.93 17.169 L 182.3 17.387 C 181.961 17.68 181.742 18.107 181.69 18.575 C 181.371 22.361 180.701 26.102 179.69 29.74 L 181.69 29.74 C 182.596 26.172 183.208 22.523 183.52 18.837 C 183.57 17.888 183.35 17.234 182.93 17.169 L 182.93 17.169 Z M 190.5 23.711 L 191.01 23.711 C 194.1 22.239 196.11 20.156 197.08 17.539 C 197.551 16.347 197.511 14.988 196.97 13.832 C 196.35 12.742 195.04 12.033 192.97 11.542 L 192.43 11.401 C 191.769 11.227 191.077 11.492 190.66 12.077 C 190.53 12.395 190.593 12.768 190.82 13.014 L 193.39 14.017 C 194.003 14.306 194.483 14.853 194.72 15.533 C 194.701 16.896 194.203 18.199 193.33 19.175 C 191.01 21.312 190.01 21.279 190.13 22.893 C 190.07 23.645 190.35 23.7 190.5 23.722 L 190.5 23.711 Z M 199.77 24.528 C 202.99 21.345 204.08 16.165 204.2 10.354 L 200.98 11.15 C 200.83 17.125 199.34 21.279 192.98 25.652 L 192.41 25.259 L 192.87 25.728 C 192.06 26.273 191.19 26.818 190.23 27.374 C 189.565 27.927 189.246 28.846 189.41 29.74 L 193.54 29.74 C 195.879 28.417 197.988 26.656 199.77 24.539 L 199.77 24.528 Z M 41.69 5.742 L 41.36 5.545 L 41.08 5.687 C 40.78 6.258 40.78 6.959 41.08 7.53 C 42.945 9.389 44.622 11.462 46.08 13.712 C 46.704 14.736 46.704 16.068 46.08 17.092 C 45.685 17.762 44.976 18.13 44.25 18.041 C 43.718 17.942 43.231 17.65 42.87 17.212 L 38.74 13.625 C 38.463 13.656 38.218 13.83 38.08 14.094 C 37.729 14.636 37.729 15.361 38.08 15.904 L 43.01 20.996 C 43.473 21.465 44.049 21.783 44.67 21.912 C 45.173 21.984 45.684 21.893 46.14 21.65 C 47.425 20.869 48.506 19.743 49.28 18.379 C 50.409 16.497 50.012 13.983 48.37 12.622 L 41.69 5.742 Z M 189.57 16.471 C 189.51 16.841 189.81 17.278 190.31 17.616 C 190.637 17.725 190.972 17.809 191.31 17.866 C 192.38 18.019 192.53 17.648 192.59 17.343 C 192.76 15.762 192.01 15.653 191.71 15.609 C 191.298 15.553 190.882 15.553 190.47 15.609 C 190.047 15.692 189.7 16.024 189.57 16.471 Z M 48.81 23.634 C 48.475 23.586 48.14 23.725 47.92 24.005 C 47.698 24.512 47.768 25.113 48.1 25.543 C 49.3 26.905 50.41 28.301 51.45 29.74 L 53.86 29.74 C 52.627 27.974 51.203 26.077 49.59 24.049 C 49.368 23.838 49.099 23.695 48.81 23.634 Z M 44.01 25.815 C 43.717 26.554 43.754 27.399 44.11 28.105 L 45.31 29.719 L 47.79 29.719 C 46.611 28.334 45.348 27.038 44.01 25.837 L 44.01 25.815 Z M 53.19 10.201 C 55.7 8.282 56.89 4.128 56.08 2.1 C 55.6 1.424 55.09 0.748 54.55 0.072 L 52.55 0.072 C 53.019 0.573 53.393 1.169 53.65 1.827 C 54.162 3.122 53.986 4.619 53.19 5.731 C 52.675 6.454 51.839 6.813 51.01 6.668 C 50.47 6.57 49.962 6.326 49.53 5.96 L 42.53 0.072 L 40.93 0.072 C 41.058 0.865 41.36 1.614 41.81 2.253 C 43.619 4.342 45.589 6.257 47.7 7.977 L 48.29 8.424 C 49.28 9.366 50.442 10.069 51.7 10.485 C 52.211 10.554 52.73 10.455 53.19 10.201 Z M 58.06 10.921 L 57.78 10.986 C 57.396 11.541 57.277 12.262 57.46 12.927 C 61.206 18.298 64.649 23.913 67.77 29.74 L 70.61 29.74 C 67.45 23.285 63.24 17.441 58.18 11.052 L 58.06 10.921 Z M 62.31 29.74 L 64.91 29.74 C 61.945 24.175 58.567 18.884 54.81 13.919 L 54.58 14.126 C 54.232 14.475 54.044 14.975 54.07 15.489 C 56.62 20.374 59.38 25.139 62.31 29.74 Z M 225.92 15.566 L 226.55 15.849 C 227.17 16.002 227.93 15.849 227.85 15.675 C 227.04 13.331 218.11 5.545 218.11 5.545 C 218.053 5.966 218.102 6.395 218.25 6.788 C 220.504 10.002 223.076 12.934 225.92 15.533 L 225.92 15.566 Z M 237.16 15.13 L 236.85 15.38 C 236.145 16.33 235.899 17.591 236.19 18.771 C 238.64 22.257 240.853 25.934 242.81 29.773 L 246.35 29.773 C 243.44 24.67 240.35 19.884 237.45 15.446 L 237.16 15.13 Z M 233.63 22.402 L 233.36 22.468 C 232.965 23.012 232.832 23.729 233 24.398 C 234.17 26.186 235.33 27.963 236.46 29.773 L 239.08 29.773 C 237.44 27.396 235.66 24.997 233.76 22.533 L 233.63 22.402 Z M 207.83 24.387 C 207.14 24.214 206.538 23.757 206.15 23.111 C 206.01 22.795 205.87 22.653 205.72 22.631 C 205.57 22.609 205.5 22.631 205.09 22.915 C 203.56 23.918 203.71 24.757 204.01 25.357 C 205.43 27.44 206.7 28.541 207.88 28.726 C 208.961 28.772 209.999 28.259 210.68 27.342 C 211.945 25.409 212.883 23.245 213.45 20.952 C 213.578 20.602 213.578 20.212 213.45 19.862 C 213.188 19.632 212.899 19.441 212.59 19.295 L 212.43 19.208 L 212.01 18.859 C 210.37 17.647 208.846 16.259 207.46 14.715 L 207.34 14.977 C 206.91 16.002 206.92 16.7 207.34 17.223 L 209.53 19.764 C 210.228 20.862 210.228 22.318 209.53 23.416 C 209.161 24.042 208.511 24.401 207.83 24.354 L 207.83 24.387 Z M 262.24 16.503 C 262.02 16.754 262.02 16.907 262.02 16.929 C 262.02 16.951 262.18 17.376 263.24 17.856 C 263.612 18.021 264.023 18.048 264.41 17.932 C 264.7 17.801 264.62 17.387 264.5 17.147 C 264.21 16.449 263.41 16.002 262.24 16.471 L 262.24 16.503 Z M 216.17 22.533 L 215.55 22.773 L 215.37 23.569 L 218.01 27.058 L 218.34 27.189 C 218.743 27.304 219.169 27.135 219.41 26.764 C 219.624 26.438 219.624 25.999 219.41 25.673 L 216.17 22.533 Z M 266.01 18.913 L 266.23 19.447 C 266.747 19.533 267.276 19.45 267.75 19.208 C 268.304 18.938 268.701 18.387 268.81 17.736 C 268.859 16.886 268.514 16.067 267.89 15.555 C 264.56 12.862 261.97 13.374 259.11 14.912 L 258.73 15.119 C 258.4 15.435 258.37 15.708 258.41 15.784 C 258.45 15.86 258.97 16.264 259.96 15.784 C 261.55 14.912 263.44 13.865 266.27 16.067 C 267.03 16.678 267.12 17.223 267.1 17.594 C 267.01 18.183 266.81 18.466 266.01 18.913 Z M 249.9 17.092 L 250.9 18.946 C 256.03 18.815 260.33 20.254 263.84 24.398 C 265.51 27.353 267.14 28.988 268.64 29.239 L 268.98 29.239 L 268.69 28.541 C 264.9 20.909 259.91 17.125 253.76 17.212 C 252.465 17.061 251.161 17.02 249.86 17.092 L 249.9 17.092 Z M 214.15 25.815 C 213.861 25.823 213.594 25.981 213.43 26.24 C 213.015 26.761 212.939 27.508 213.24 28.116 L 214.62 29.784 L 217.99 29.784 L 214.15 25.815 Z M 222.84 5.873 C 226.44 9.373 230.16 12.993 230.58 14.933 C 231.01 16.323 230.702 17.857 229.78 18.924 C 229.195 19.604 228.327 19.901 227.49 19.709 C 226.938 19.563 226.429 19.267 226.01 18.848 L 217.9 10.899 L 217.72 10.725 L 217.61 10.725 C 217.342 11.941 217.576 13.224 218.25 14.236 C 219.948 16.574 221.836 18.742 223.89 20.712 L 224.46 21.225 C 225.42 22.28 226.571 23.104 227.84 23.645 C 228.36 23.771 228.902 23.73 229.4 23.525 C 232.17 21.759 233.75 17.583 233.08 15.424 C 230.08 10.397 225.74 5.502 219.53 0.159 L 217.85 0.159 C 217.866 0.588 218.014 0.999 218.27 1.326 C 219.33 2.449 220.93 4.019 222.8 5.829 L 222.84 5.873 Z M 210.63 11.019 C 209.766 10.807 208.995 10.276 208.45 9.514 C 208.313 9.994 208.313 10.507 208.45 10.986 C 209.63 14.137 211.84 15.806 213.53 16.046 C 214.177 16.216 214.859 16.023 215.35 15.533 C 215.97 14.868 216.11 13.734 215.78 12.262 C 215.106 10.051 214.834 7.717 214.98 5.393 C 214.441 6.069 213.767 6.602 213.01 6.952 C 213.239 7.657 213.239 8.427 213.01 9.133 C 212.702 10.292 211.694 11.059 210.59 10.975 L 210.63 11.019 Z M 230.11 25.532 C 229.76 25.876 229.567 26.37 229.58 26.884 C 230.06 27.843 230.58 28.792 231.05 29.74 L 233.42 29.74 C 232.427 28.287 231.403 26.815 230.35 25.324 L 230.11 25.532 Z M 201.91 26.905 L 201.44 26.633 C 201.055 26.594 200.679 26.771 200.44 27.102 C 200.231 27.331 200.161 27.67 200.26 27.974 L 201.43 29.74 L 204.6 29.74 C 203.595 28.925 202.691 27.973 201.91 26.905 L 201.91 26.905 Z" style=""/>
  <path class="cls-2" d="M 441.43 30.092 L 437.92 30.092 C 437.737 29.699 437.451 29.377 437.1 29.165 L 433.33 27.83 C 433.075 27.663 432.928 27.351 432.95 27.025 C 432.94 26.606 433.145 26.218 433.48 26.021 L 434.02 25.955 C 436.19 26.528 438.26 27.058 440.38 26.076 C 440.92 25.789 441.06 25.778 441.17 25.822 C 441.28 25.867 441.44 26.043 441.69 26.738 C 441.839 27.863 441.75 29.011 441.43 30.092 Z M 344.73 27.025 L 344.4 26.727 C 344.127 26.753 343.88 26.915 343.73 27.168 C 343.333 27.704 343.23 28.434 343.46 29.077 L 343.97 30.092 L 346.67 30.092 C 346.126 28.995 345.476 27.966 344.73 27.025 Z M 479.46 30.092 C 478.992 28.721 478.222 27.5 477.22 26.539 C 475 24.642 468.47 22.127 459.33 19.711 C 459.031 19.682 458.729 19.731 458.45 19.854 C 458.16 20.017 457.975 20.344 457.97 20.703 C 458.12 21.257 458.529 21.679 459.04 21.807 C 464.339 22.86 469.47 24.763 474.27 27.455 C 475.148 27.895 475.728 28.841 475.77 29.904 C 475.77 29.959 475.77 30.026 475.77 30.081 L 479.46 30.092 Z M 483.01 27.378 L 482.19 30.092 L 483.63 30.092 C 483.79 29.275 483.93 28.426 484.06 27.532 C 484.06 26.926 483.93 26.595 483.85 26.584 C 483.77 26.573 483.28 26.804 483.01 27.378 Z M 456.01 24.565 C 456.244 25.36 456.776 26.006 457.47 26.341 L 470.13 30.092 L 472.42 30.092 L 472.56 29.893 L 472.44 29.529 C 467.292 26.758 461.719 25.074 456.01 24.565 Z M 389.49 1.882 C 391.49 1.231 394.01 0.647 395.28 1.717 C 395.841 1.822 396.417 1.709 396.91 1.397 C 397.67 0.978 397.96 0.481 397.91 0.393 L 397.61 0.261 L 397.13 0.073 L 391.25 0.073 C 390.485 0.265 389.736 0.527 389.01 0.856 L 389.49 1.882 Z M 403.49 3.317 C 403.27 3.57 403.26 3.725 403.26 3.758 C 403.26 3.791 403.42 4.199 404.49 4.685 C 404.858 4.852 405.266 4.879 405.65 4.762 C 405.95 4.629 405.86 4.21 405.75 3.967 C 405.42 3.306 404.61 2.842 403.45 3.306 L 403.49 3.317 Z M 401.12 2.611 C 402.71 1.728 404.61 0.68 407.43 2.908 C 407.951 3.207 408.273 3.806 408.26 4.453 C 408.26 5.049 408.06 5.335 407.26 5.788 L 407.48 6.328 C 407.997 6.412 408.525 6.327 409 6.086 C 409.554 5.809 409.953 5.254 410.07 4.596 C 410.108 3.737 409.76 2.912 409.14 2.39 C 405.82 -0.335 403.22 0.183 400.36 1.75 L 399.98 1.949 C 399.65 2.269 399.63 2.544 399.67 2.622 C 399.71 2.699 400.09 3.129 401.08 2.611 L 401.12 2.611 Z M 390.69 4.177 L 391.69 6.042 C 396.81 5.92 401.12 7.376 404.62 11.558 C 406.29 14.547 407.93 16.202 409.42 16.456 L 409.77 16.456 L 409.48 15.75 C 405.69 8.027 400.69 4.199 394.55 4.287 C 393.268 4.14 391.977 4.103 390.69 4.177 Z M 414.01 13.113 C 413.53 12.01 413.01 11.635 412.71 11.58 C 412.317 11.576 411.932 11.707 411.61 11.955 C 411.24 12.418 411.04 12.771 411.08 12.992 C 411.12 13.213 411.43 13.555 411.87 13.764 C 412.452 13.947 413.068 13.947 413.65 13.764 C 413.873 13.641 414.013 13.388 414.01 13.113 Z M 487.86 25.171 C 487.71 25.171 487.29 25.403 487.02 25.966 L 485.77 30.092 L 487.36 30.092 C 487.63 28.856 487.86 27.532 488.07 26.131 C 488.1 25.513 487.94 25.194 487.86 25.171 Z M 407.21 22.844 C 404.38 19.865 398.98 16.39 396.72 15.739 L 397.18 16.621 C 400.52 18.815 403.664 21.353 406.57 24.201 C 407.68 25.028 407.55 23.164 407.21 22.844 Z M 493.07 20.483 C 492.719 20.511 492.401 20.719 492.21 21.045 C 491.93 21.564 491.66 22.149 491.41 22.623 L 489.15 30.092 L 490.93 30.092 C 491.567 27.142 492.416 24.254 493.47 21.454 C 493.52 21.134 493.51 20.88 493.07 20.483 Z M 321.45 25.844 L 321.01 25.37 L 320.73 25.37 C 320.218 26.206 319.982 27.211 320.06 28.216 C 320.16 28.845 320.25 29.452 320.32 30.048 L 322.63 30.048 C 322.28 28.746 321.9 27.334 321.45 25.844 Z M 318.1 27.764 C 317.82 27.825 317.61 28.08 317.58 28.393 C 317.52 28.801 317.48 29.176 317.43 29.562 L 317.43 30.092 L 318.52 30.092 C 318.52 29.695 318.52 29.287 318.6 28.889 C 318.53 28.051 318.27 27.775 318.1 27.764 L 318.1 27.764 Z M 319.76 5.876 L 318.01 18.662 C 318.01 19.126 318.25 19.17 318.38 19.181 C 318.51 19.192 318.84 19.071 318.98 18.596 C 320.18 15.375 320.74 11.205 320.7 5.865 C 320.63 5.28 320.45 4.993 320.37 4.982 C 320.29 4.971 319.93 5.291 319.76 5.876 L 319.76 5.876 Z M 329.57 22.259 C 329.465 22.086 329.324 21.942 329.16 21.84 C 329.16 21.84 328.96 22.038 328.82 22.579 C 328.639 23.897 328.731 25.244 329.09 26.517 L 329.15 26.65 C 329.459 27.764 329.587 28.929 329.53 30.092 L 331.2 30.092 C 331.514 27.35 330.937 24.575 329.57 22.259 Z M 325.77 28.018 C 325.77 27.565 326.54 27.047 326.68 27.356 C 326.89 27.863 327.16 28.294 327.35 28.205 C 328.04 28.415 327.35 25.006 327.35 25.006 C 327.101 24.68 326.736 24.491 326.35 24.487 C 325.856 24.47 325.366 24.595 324.93 24.852 C 324.29 25.006 323.87 25.37 324.03 26.562 C 324.039 27.749 324.16 28.932 324.39 30.092 L 326.1 30.092 C 325.911 29.419 325.8 28.722 325.77 28.018 Z M 451.09 2.765 C 451.126 3.626 450.704 4.432 450.01 4.828 C 449.505 5.079 448.952 5.189 448.4 5.148 L 437.51 4.607 L 437.27 4.607 L 437.2 4.696 C 437.812 5.793 438.788 6.585 439.92 6.902 C 442.608 7.479 445.333 7.822 448.07 7.928 L 448.81 7.928 C 450.155 8.086 451.516 7.944 452.81 7.509 C 453.239 7.265 453.589 6.879 453.81 6.406 C 454.278 4.267 453.961 2.011 452.93 0.128 L 450.01 0.128 C 450.654 0.829 451.039 1.769 451.09 2.765 Z M 458.09 29.54 L 457.09 29.231 C 456.939 29.435 456.874 29.7 456.91 29.959 C 456.91 29.959 456.91 30.048 456.91 30.092 L 459.79 30.092 L 458.09 29.54 Z M 442.01 9.77 L 441.63 9.77 L 441.49 10.057 C 441.617 10.722 442.032 11.274 442.6 11.536 C 445.221 11.917 447.803 12.575 450.31 13.499 C 451.391 13.934 452.163 14.998 452.31 16.257 C 452.401 17.027 452.051 17.778 451.43 18.144 C 450.924 18.393 450.359 18.451 449.82 18.309 L 444.42 17.89 C 444.217 18.079 444.125 18.376 444.18 18.662 C 444.241 19.348 444.659 19.93 445.25 20.152 L 452.25 21.255 C 452.891 21.349 453.543 21.254 454.14 20.979 C 454.569 20.735 454.919 20.35 455.14 19.876 C 455.69 18.451 455.881 16.888 455.69 15.353 C 455.356 13.052 453.591 11.336 451.48 11.26 L 442.01 9.77 Z M 448.34 16.235 C 448.683 16.053 448.881 15.648 448.83 15.231 C 448.77 14.818 448.489 14.487 448.12 14.393 L 443.79 14.194 L 443.49 14.768 L 443.88 15.463 L 448.02 16.357 L 448.34 16.235 Z M 456.23 9.484 C 456.206 10.003 456.397 10.507 456.75 10.852 C 464.733 13.972 472.881 16.551 481.15 18.574 L 481.62 18.508 L 481.85 18.122 C 481.85 17.879 481.68 17.636 481.4 17.449 C 473.311 13.719 464.888 10.942 456.27 9.164 L 456.23 9.484 Z M 496.54 18.309 C 496.38 18.309 495.99 18.585 495.77 19.181 L 493.52 30.059 L 494.99 30.059 C 496.086 26.576 496.707 22.932 496.83 19.247 C 496.75 18.662 496.56 18.354 496.49 18.343 L 496.54 18.309 Z M 457.73 4.839 L 457.55 4.839 L 457.38 5.071 C 457.459 5.779 457.828 6.409 458.38 6.781 C 467.08 9.219 475.66 11.789 484.86 16.445 C 485.869 16.827 486.584 17.822 486.69 18.993 C 486.675 20.2 486.033 21.29 485.04 21.796 C 484.306 22.187 483.469 22.277 482.68 22.049 C 477.05 20.659 471.38 18.662 465.89 16.699 C 463.5 15.86 460.99 14.956 458.72 14.183 L 458.21 14.183 L 458.01 14.823 C 458.046 15.609 458.417 16.329 459.01 16.765 L 476.9 23.296 C 479.401 24.367 482.082 24.83 484.76 24.653 C 485.698 24.387 486.609 24.017 487.48 23.55 C 489.12 22.656 490.03 21.509 490.21 20.24 C 490.39 18.971 489.7 17.372 488.21 15.827 C 479.01 9.837 469.39 7.134 457.73 4.839 Z M 447.53 28.238 L 445.06 27.797 L 444.71 27.874 C 444.409 28.039 444.227 28.387 444.25 28.757 C 444.325 29.154 444.616 29.458 444.98 29.518 L 447.47 29.948 L 448.04 29.871 C 448.33 29.706 448.32 29.298 448.32 29.132 C 448.233 28.692 447.926 28.346 447.53 28.238 Z M 417.35 26.87 C 416.87 26.286 416.35 26.054 416.05 26.209 L 415.67 26.76 C 415.585 27.31 415.712 27.874 416.02 28.316 L 417.02 30.092 L 419.26 30.092 L 417.35 26.87 Z M 366.68 2.842 L 367.31 3.063 C 367.9 3.162 368.62 2.975 368.53 2.787 C 367.881 1.748 367.084 0.831 366.17 0.073 L 363.5 0.073 C 364.48 0.978 365.53 1.893 366.68 2.842 Z M 409.74 25.26 C 409.519 25.843 409.352 26.449 409.24 27.069 C 409.116 27.558 409.31 28.077 409.71 28.327 C 410.199 28.698 410.834 28.741 411.36 28.437 L 411.62 28.294 L 411.68 28.294 L 414.14 22.711 C 414.297 22.191 414.235 21.62 413.97 21.156 C 413.806 20.801 413.538 20.517 413.21 20.35 C 410.51 20.086 407.78 18.232 404.32 15.496 C 401.493 13.459 398.215 12.314 394.84 12.187 L 395.38 13.235 C 400.27 14.647 404.48 16.357 409.07 21.63 C 409.775 22.479 410.092 23.636 409.93 24.774 L 409.74 25.26 Z M 360.01 14.724 L 360.34 14.823 C 360.733 14.892 361.126 14.697 361.34 14.327 C 361.546 13.986 361.522 13.535 361.28 13.224 L 357.94 10.421 L 357.37 10.697 L 357.25 11.48 L 360.01 14.724 Z M 384.41 0.073 L 381.56 0.073 C 381.62 0.193 381.694 0.305 381.78 0.404 C 387.39 8.899 393.2 18.144 398.28 30.092 L 401.28 30.092 C 400.399 27.304 399.344 24.587 398.12 21.961 C 394.269 14.147 389.673 6.81 384.41 0.073 Z M 354.66 6.692 C 354.395 6.456 354.102 6.259 353.79 6.108 L 353.63 6.019 L 353.17 5.744 C 351.533 4.518 350.012 3.113 348.63 1.551 L 348.51 1.816 C 348.07 2.919 348.08 3.559 348.51 4.089 L 350.74 6.615 C 351.426 7.735 351.426 9.202 350.74 10.322 C 350.358 10.965 349.684 11.322 348.99 11.249 C 348.295 11.094 347.688 10.631 347.31 9.969 C 347.17 9.66 347.02 9.506 346.88 9.484 C 346.74 9.462 346.65 9.484 346.24 9.77 C 344.71 10.785 344.86 11.646 345.16 12.242 C 346.58 14.349 347.85 15.452 349.04 15.651 C 350.122 15.738 351.178 15.25 351.88 14.338 C 353.149 12.385 354.087 10.194 354.65 7.873 C 354.805 7.495 354.808 7.063 354.66 6.681 L 354.66 6.692 Z M 350.49 21.939 C 350.144 21.897 349.804 22.055 349.59 22.358 C 349.414 22.7 349.467 23.129 349.72 23.406 L 351.45 25.271 L 351.95 25.547 C 352.28 25.602 352.51 25.271 352.61 25.138 C 352.792 24.754 352.753 24.288 352.51 23.947 L 350.82 22.06 L 350.49 21.939 Z M 452.15 25.017 C 449.909 23.886 447.474 23.303 445.01 23.307 C 444.812 23.451 444.713 23.713 444.76 23.969 C 444.834 24.635 445.211 25.213 445.76 25.502 L 449.76 26.959 C 450.687 27.523 451.248 28.615 451.21 29.783 C 451.21 29.882 451.21 29.971 451.21 30.07 L 454.66 30.07 C 454.73 27.907 454.43 26.264 452.15 25.006 L 452.15 25.017 Z M 322.28 21.31 C 323.716 16.146 324.474 10.781 324.53 5.38 C 324.53 4.42 324.31 3.791 323.92 3.758 L 323.36 4.023 C 323.057 4.335 322.877 4.767 322.86 5.225 C 322.64 10.477 322.17 16.324 320.46 19.898 C 319.751 21.169 318.703 22.168 317.46 22.755 L 317.46 25.867 C 319.63 25.275 321.418 23.585 322.28 21.31 Z M 322.28 0.945 C 322.465 1.551 322.953 1.982 323.53 2.048 L 323.83 2.048 L 323.91 2.048 L 327.51 0.04 L 322.35 0.04 C 322.22 0.321 322.205 0.651 322.31 0.945 L 322.28 0.945 Z M 413.33 17.25 C 413.6 17.614 416.01 17.67 417.65 16.754 C 418.035 16.611 418.349 16.3 418.52 15.893 C 419.13 14.569 418.64 12.937 416.88 10.819 C 414.81 7.95 412.36 7.277 409.46 8.711 C 409.148 8.849 409 9.242 409.13 9.583 C 409.341 9.863 409.65 10.031 409.98 10.046 C 412.62 8.744 414.42 9.781 416.19 13.235 C 416.69 15.066 415.97 15.32 415.41 15.629 C 414.875 15.902 414.289 16.034 413.7 16.015 C 413.355 16.071 413.081 16.364 413.02 16.743 C 413.01 16.853 413.1 17.041 413.36 17.25 L 413.33 17.25 Z M 504.83 16.478 L 504.19 16.688 C 503.803 17.054 503.571 17.582 503.55 18.144 L 503.2 20.88 C 503.01 22.259 502.83 23.638 502.65 25.017 C 502.47 26.396 502.28 27.676 502.1 28.978 C 502.092 29.348 502.055 29.717 501.99 30.081 L 504.19 30.081 L 505.47 17.78 C 505.47 17.041 505.2 16.544 504.86 16.478 L 504.83 16.478 Z M 501.43 9.252 C 501.309 9.05 501.176 8.859 501.03 8.678 C 496.364 5.355 491.449 2.476 486.34 0.073 L 477.75 0.073 C 483.955 2.528 490.008 5.429 495.87 8.755 C 496.87 9.439 497.3 10.123 497.27 10.785 C 497.247 11.213 497.001 11.587 496.64 11.745 C 495.576 12.107 494.424 11.963 493.46 11.348 C 484.638 6.53 475.38 2.751 465.84 0.073 L 457.01 0.073 C 457.235 0.368 457.51 0.611 457.82 0.79 C 465.31 2.423 474.54 6.306 482.68 9.781 L 482.97 9.881 C 488.77 12.352 493.79 14.459 496.69 15.121 C 497.976 15.246 499.27 14.995 500.44 14.393 C 501.397 13.972 502.111 13.069 502.36 11.966 C 502.462 11.227 502.304 10.474 501.92 9.859 C 501.783 9.642 501.629 9.439 501.46 9.252 L 501.43 9.252 Z M 334.4 27.919 C 333.89 28.161 333.85 28.305 334.16 29.022 C 334.318 29.595 334.755 30.022 335.29 30.125 C 335.766 30.159 336.244 30.08 336.69 29.893 L 339.38 27.367 L 339.72 26.738 C 339.72 26.683 339.66 26.573 339.34 26.517 C 337.98 26.175 337.24 24.697 336.55 23.351 C 336.086 22.236 335.37 21.271 334.47 20.549 L 333.94 20.35 C 333.718 20.281 333.479 20.353 333.32 20.538 C 333.18 20.659 333.23 20.847 333.32 21.167 C 333.59 21.841 333.926 22.481 334.32 23.075 C 335.24 24.565 336.38 26.473 334.4 27.919 Z M 425.64 0.338 C 424.489 0.851 423.249 1.073 422.01 0.989 L 421.82 1.529 C 421.844 1.796 422.009 2.021 422.24 2.103 L 424.82 2.599 C 428.09 2.015 429.82 3.526 430.39 5.016 C 430.902 6.097 430.521 7.431 429.54 7.994 C 428.697 8.357 427.768 8.4 426.9 8.116 C 427.081 8.602 427.387 9.02 427.78 9.318 C 430.63 11.138 433.4 11.138 434.89 10.3 C 435.472 10.057 435.896 9.497 436.01 8.822 C 436.1 7.906 435.53 6.913 434.35 5.887 C 432.26 4.4 430.486 2.432 429.15 0.117 L 426.01 0.117 C 425.88 0.15 425.77 0.228 425.64 0.294 L 425.64 0.338 Z M 328.5 3.736 C 328.111 4.102 327.876 4.629 327.85 5.192 L 327.51 7.917 C 327.31 9.307 327.13 10.686 326.96 12.065 C 326.79 13.444 326.59 14.724 326.4 16.026 C 326.462 17.638 325.795 19.18 324.62 20.141 L 324.55 20.229 C 324.132 20.605 323.771 21.052 323.48 21.553 C 322.83 23.318 322.98 23.759 323.04 23.903 L 323.17 23.903 C 323.393 23.928 323.619 23.898 323.83 23.815 C 326.75 21.751 328.26 19.633 328.49 17.129 L 329.77 4.806 C 329.77 4.056 329.48 3.548 329.14 3.493 L 328.5 3.736 Z M 446.85 2.633 C 447.38 2.346 447.85 1.761 447.66 1.673 C 445.57 0.481 434.18 0.57 434.18 0.57 C 434.415 0.916 434.724 1.193 435.08 1.375 C 438.736 2.265 442.466 2.738 446.21 2.787 L 446.85 2.633 Z M 423.36 30.048 C 424.86 27.479 425.266 24.314 424.47 21.387 C 424.088 20.103 423.246 19.047 422.14 18.464 C 421.01 17.989 419.51 18.177 417.57 19.049 L 417.06 19.258 C 416.26 19.711 415.95 20.361 416.06 20.88 C 416.163 21.227 416.433 21.482 416.76 21.542 L 419.42 20.792 C 420.109 20.635 420.827 20.781 421.42 21.2 C 422.216 22.257 422.61 23.613 422.52 24.984 C 421.96 28.106 421.16 28.669 422.25 29.904 L 422.38 30.092 L 423.38 30.092 L 423.36 30.048 Z M 420.79 23.936 C 419.96 22.546 419.31 22.932 419.04 23.064 C 418.693 23.287 418.374 23.557 418.09 23.87 C 417.811 24.18 417.725 24.643 417.87 25.05 C 418.19 25.447 418.677 25.628 419.15 25.525 C 419.473 25.421 419.787 25.289 420.09 25.127 C 421.01 24.598 420.93 24.267 420.79 23.936 L 420.79 23.936 Z M 437.19 20.284 C 436.515 20.575 435.765 20.575 435.09 20.284 C 434.79 20.119 434.58 20.086 434.45 20.163 C 434.32 20.24 434.26 20.284 434.12 20.781 C 433.5 22.513 434.12 23.108 434.74 23.406 C 437.12 24.223 438.8 24.333 439.86 23.759 C 440.743 23.166 441.273 22.098 441.25 20.957 C 441.084 18.58 440.521 16.257 439.59 14.106 C 439.479 13.722 439.239 13.398 438.92 13.201 C 438.586 13.18 438.251 13.199 437.92 13.257 L 437.73 13.257 L 437.2 13.312 C 435.145 13.339 433.092 13.151 431.07 12.749 L 431.13 13.025 C 431.41 14.128 431.83 14.68 432.52 14.823 L 435.81 15.529 C 436.99 15.966 437.843 17.104 438.01 18.464 C 438.104 19.199 437.778 19.922 437.19 20.284 Z M 418.36 7.045 L 419.14 7.961 C 425.31 15.408 429.27 20.185 426.2 30.125 L 430.2 30.125 C 430.574 28.572 430.812 26.984 430.91 25.381 C 432.11 16.897 422.21 6.042 416.13 0.106 L 411.35 0.106 C 413.936 2.081 416.29 4.401 418.36 7.012 L 418.36 7.045 Z M 333.77 4.199 C 333.94 2.599 333.19 2.5 332.9 2.445 C 332.486 2.405 332.069 2.428 331.66 2.511 C 331.252 2.58 330.911 2.889 330.77 3.317 C 330.71 3.692 331.02 4.144 331.52 4.42 C 331.847 4.531 332.182 4.615 332.52 4.674 C 333.57 4.883 333.72 4.508 333.77 4.199 Z M 335.88 2.39 C 335.863 3.766 335.365 5.082 334.49 6.064 C 332.18 8.27 331.21 8.182 331.33 9.837 C 331.27 10.576 331.56 10.631 331.71 10.653 L 332.17 10.653 C 335.25 9.164 337.26 7.057 338.23 4.42 C 338.704 3.211 338.664 1.831 338.12 0.658 C 337.987 0.447 337.837 0.252 337.67 0.073 L 332.59 0.073 L 334.59 0.856 C 335.192 1.152 335.658 1.706 335.88 2.39 Z M 341.46 25.006 C 341.877 25.052 342.297 24.951 342.66 24.719 C 343.481 23.968 344.343 23.271 345.24 22.634 C 346.661 21.829 347.873 20.636 348.76 19.17 C 348.97 18.475 348.94 18.21 348.89 18.122 C 348.84 18.034 348.72 17.956 348.12 17.846 C 345.84 17.328 344.5 15.64 343.12 13.874 L 342.65 13.599 C 342.263 13.558 341.884 13.742 341.65 14.084 C 341.442 14.312 341.375 14.654 341.48 14.956 L 343.68 18.265 C 343.965 18.972 343.847 19.796 343.38 20.372 C 342.93 20.978 342.236 21.296 341.53 21.222 C 341.185 21.18 340.864 21.009 340.62 20.737 L 338.28 18.144 L 337.76 17.923 C 337.437 17.881 337.119 18.043 336.94 18.343 C 336.768 18.608 336.745 18.957 336.88 19.247 C 337.795 21.021 338.911 22.66 340.2 24.123 C 340.518 24.565 340.962 24.876 341.46 25.006 Z M 331.61 17.945 L 331.76 17.945 C 334.97 17.052 337.98 14.923 340.97 11.458 C 343.57 8.866 344.78 4.663 345.22 0.051 L 342.01 0.051 C 341.38 5.567 338.95 9.914 331.39 14.393 C 330.683 14.992 330.371 16.002 330.6 16.952 C 330.709 17.488 331.115 17.888 331.61 17.945 L 331.61 17.945 Z M 355.55 0.073 L 350.01 0.073 C 350.845 1.041 351.938 1.69 353.13 1.927 C 353.796 2.123 354.506 1.927 355.01 1.408 C 355.322 1.044 355.513 0.573 355.55 0.073 Z M 541.55 25.911 L 535.22 18.122 L 534.9 17.89 L 534.6 18.012 C 534.245 18.573 534.188 19.3 534.45 19.92 C 536.219 22.025 537.778 24.333 539.1 26.804 C 539.61 27.857 539.541 29.136 538.92 30.114 L 542.76 30.114 C 543.093 28.58 542.64 26.968 541.58 25.911 L 541.55 25.911 Z M 596.13 10.289 C 595.664 10.561 595.161 10.747 594.64 10.841 L 594.42 10.995 C 594.549 11.162 594.705 11.3 594.88 11.403 C 596.581 11.878 598.377 11.723 599.99 10.962 C 600.73 10.668 601.257 9.937 601.35 9.075 C 601.35 7.873 600.11 6.406 597.96 5.005 L 597.58 4.707 L 597.49 4.618 L 597.42 4.486 C 597.32 4.276 597.15 3.791 594.42 3.195 L 594.27 3.195 C 594.39 3.692 594.09 4.298 593.42 4.784 C 592.945 5.158 592.443 5.49 591.92 5.777 C 591.36 6.086 590.66 6.417 589.83 6.781 L 589.61 7.112 C 590.022 7.562 590.623 7.731 591.18 7.553 C 594.97 5.611 596.96 6.163 597.57 7.31 C 598.18 8.458 597.48 9.561 596.13 10.289 Z M 605.77 21.321 C 604.924 21.673 603.997 21.712 603.13 21.432 C 603.309 21.914 603.611 22.328 604 22.623 C 606.85 24.454 609.62 24.454 611.12 23.616 C 611.718 23.37 612.15 22.789 612.25 22.093 C 612.35 21.178 611.77 20.185 610.59 19.159 C 608.128 17.392 606.104 14.977 604.7 12.131 C 604.43 11.591 604.23 11.48 604 11.425 C 603.749 11.673 603.537 11.963 603.37 12.286 C 602.956 12.834 602.446 13.285 601.87 13.61 C 600.722 14.138 599.482 14.375 598.24 14.305 L 598.04 14.845 C 598.068 15.113 598.237 15.338 598.47 15.419 L 601.04 15.915 C 604.31 15.32 606.09 16.842 606.62 18.32 C 607.119 19.42 606.744 20.758 605.77 21.354 L 605.77 21.321 Z M 585.71 3.67 L 585.38 4.001 C 587.423 4.394 589.524 4.153 591.45 3.306 C 592.22 2.842 592.39 2.5 592.45 2.324 C 592.421 2.05 592.299 1.798 592.11 1.618 C 591.01 1 590.01 0.503 589.01 0.073 L 585.16 0.073 L 585.81 0.327 C 586.81 0.768 587.22 1.265 587.24 1.882 C 587.26 2.5 586.74 3.129 585.71 3.692 L 585.71 3.67 Z M 581.63 1.32 C 580.894 1.418 580.182 1.669 579.53 2.059 C 578.93 2.401 578.3 2.82 577.86 3.162 C 577.66 3.35 577.63 3.471 577.66 3.526 C 577.69 3.581 577.96 3.868 578.66 3.857 C 579.555 3.748 580.426 3.476 581.24 3.052 C 581.67 2.83 582.057 2.519 582.38 2.136 C 582.63 1.728 582.57 1.607 582.56 1.585 C 582.55 1.562 582.42 1.353 581.63 1.32 Z M 570.08 3.394 C 570.96 2.798 571.88 2.213 572.84 1.695 C 574.015 1.038 575.24 0.496 576.5 0.073 L 572.34 0.073 C 571.547 0.433 570.787 0.82 570.06 1.231 C 569.23 1.684 568.34 2.224 567.47 2.787 C 567.15 3.019 566.99 3.261 567.03 3.339 C 567.26 3.758 568.82 4.012 570.08 3.394 Z M 615.82 27.433 C 615.712 27.043 615.467 26.717 615.14 26.528 C 614.806 26.502 614.47 26.521 614.14 26.584 L 613.96 26.584 L 613.43 26.639 C 611.375 26.666 609.322 26.478 607.3 26.076 L 607.36 26.352 C 607.63 27.455 608.06 28.007 608.75 28.15 L 612.03 28.856 C 612.645 29.093 613.191 29.509 613.61 30.059 L 616.77 30.059 C 616.499 29.164 616.182 28.287 615.82 27.433 L 615.82 27.433 Z M 573.13 26.054 C 572.512 25.941 571.887 25.882 571.26 25.878 L 571.78 26.87 C 574.243 26.834 576.593 28.011 578.19 30.081 C 578.19 30.081 578.19 30.081 578.19 30.081 L 579.31 30.081 C 577.55 27.499 575.48 26.142 573.13 26.054 L 573.13 26.054 Z M 632.06 27.687 C 631.765 27.643 631.466 27.73 631.23 27.93 C 630.967 28.131 630.807 28.459 630.8 28.812 L 630.59 30.092 L 632.91 30.092 C 632.97 29.717 633.03 29.342 633.1 28.989 C 633.119 28.32 632.664 27.751 632.06 27.687 L 632.06 27.687 Z M 594.78 29.242 C 595.39 27.919 594.9 26.286 593.14 24.168 C 591.06 21.299 588.62 20.626 585.71 22.06 C 585.398 22.197 585.252 22.594 585.39 22.932 C 585.598 23.215 585.91 23.38 586.24 23.384 C 588.88 22.093 590.68 23.131 592.44 26.573 C 592.94 28.415 592.22 28.669 591.66 28.978 C 591.125 29.252 590.54 29.384 589.95 29.364 C 589.603 29.41 589.327 29.709 589.28 30.092 L 593.93 30.092 C 594.301 29.939 594.606 29.635 594.78 29.242 L 594.78 29.242 Z M 557.46 8.38 L 557.23 8.38 C 556.739 9.602 556.844 11.015 557.51 12.131 C 561.304 17.934 564.832 23.943 568.08 30.136 L 571.67 30.136 C 567.753 22.618 563.178 15.542 558.01 9.009 C 557.78 8.612 557.6 8.425 557.46 8.38 Z M 358.13 24.179 C 356.999 21.881 355.388 19.915 353.43 18.442 C 353.185 18.444 352.959 18.591 352.84 18.828 C 352.494 19.377 352.459 20.095 352.75 20.681 L 355.08 24.267 C 355.465 25.344 355.242 26.57 354.51 27.4 C 353.909 28.278 352.945 28.76 351.95 28.68 C 351.488 28.62 351.056 28.395 350.72 28.04 L 348.02 25.171 L 347.6 24.829 C 347.32 24.829 346.98 25.061 346.77 25.502 C 346.484 25.949 346.484 26.545 346.77 26.992 L 349.64 30.059 L 356.78 30.059 C 358.34 28.261 359.27 26.716 358.13 24.179 Z M 589.88 27.058 C 590.088 26.944 590.225 26.717 590.24 26.462 C 589.76 25.359 589.24 24.984 588.93 24.918 C 588.79 24.918 588.55 24.918 587.83 25.304 C 587.46 25.767 587.26 26.12 587.3 26.341 C 587.34 26.562 587.66 26.904 588.09 27.102 C 588.677 27.284 589.301 27.269 589.88 27.058 Z M 572.69 22.38 C 571.787 22.226 570.874 22.145 569.96 22.138 L 570.59 23.506 C 574.24 23.594 577.25 24.774 579.59 27.919 C 579.969 28.704 580.421 29.444 580.94 30.125 L 582.46 30.125 C 580.07 25.105 576.8 22.524 572.69 22.38 Z M 634.86 7.321 C 634.535 7.375 634.254 7.602 634.11 7.928 C 633.88 8.447 634.11 7.928 633.46 9.517 C 629.38 24.543 632.01 25.194 632.01 25.194 C 632.511 25.658 633.136 25.93 633.79 25.966 C 634.165 25.99 634.542 25.96 634.91 25.878 L 634.91 22.755 C 634.757 22.8 634.598 22.819 634.44 22.811 C 633.94 22.811 633.11 22.402 633.11 20.35 C 633.38 16.751 633.983 13.191 634.91 9.726 L 634.86 7.321 Z M 518.23 2.588 C 518.732 3.076 519.017 3.781 519.01 4.519 C 518.919 4.908 518.683 5.237 518.36 5.424 C 517.317 5.872 516.191 6.031 515.08 5.887 C 510.592 5.562 506.192 4.367 502.08 2.357 C 500.65 1.562 499.25 0.812 497.87 0.073 L 491.17 0.073 C 496.8 2.853 500.55 3.736 505.17 6.759 C 505.34 6.937 505.494 7.133 505.63 7.343 C 513.17 10.653 520.19 10.289 527.09 6.075 C 527.74 5.677 528.43 5.203 529.09 4.729 C 530.09 3.78 530.01 3.394 530 3.383 C 529.99 3.372 529.64 3.063 528.9 2.964 C 526.028 2.587 523.247 1.605 520.71 0.073 L 514.77 0.073 L 518.23 2.588 Z M 510.91 3.57 C 511.576 3.753 512.278 3.691 512.91 3.394 C 513.099 3.309 513.232 3.12 513.26 2.897 C 513.26 2.335 512.55 1.529 511.38 0.746 L 510.28 0.073 L 504.41 0.073 L 510.91 3.57 Z M 622.72 26.87 C 622.977 26.69 623.088 26.339 622.99 26.021 C 622.899 25.696 622.645 25.459 622.34 25.414 L 618.9 25.591 L 618.74 26.076 L 619.12 26.617 L 622.49 26.992 L 622.72 26.87 Z M 374.21 25.547 C 372.94 23.34 371.62 21.012 370.38 18.927 L 369.97 18.618 L 369.41 18.971 C 368.94 19.554 368.763 20.356 368.94 21.112 L 373.94 30.081 L 376.8 30.081 C 375.95 28.58 375.08 27.058 374.21 25.547 Z M 317.82 8.226 C 317.873 7.87 317.717 7.516 317.43 7.343 L 317.43 9.649 C 317.56 9.153 317.69 8.667 317.82 8.226 Z M 563.6 0.073 L 560.19 0.073 C 560.05 0.25 559.91 0.437 559.77 0.647 C 559.45 1.154 559.194 1.707 559.01 2.291 C 559.01 2.291 557.32 7.376 562.8 9.561 C 564.94 10.41 566.8 10.123 569.02 9.903 C 570.17 9.793 571.02 9.726 571.86 9.693 C 573.45 9.693 575.07 9.693 576.67 9.837 C 582.88 10.101 587.6 11.845 594.67 20.361 L 595.44 21.277 C 597.86 23.949 600.003 26.909 601.83 30.103 L 605.43 30.103 C 601.59 21.972 592.86 13.797 589.36 10.543 C 585.962 7.598 581.658 6.229 577.36 6.726 L 564.83 7.222 C 563.452 7.023 562.246 6.103 561.59 4.751 C 561.05 3.438 561.72 2.754 562.66 1.32 C 562.932 0.868 563.247 0.45 563.6 0.073 Z M 552.6 3.89 C 553.092 4.604 553.092 5.592 552.6 6.306 C 552.115 6.952 551.329 7.216 550.6 6.979 C 550.01 6.798 549.466 6.469 549.01 6.019 C 547.345 3.89 545.536 1.902 543.6 0.073 L 541.11 0.073 C 544.267 3.098 547.24 6.348 550.01 9.804 C 550.542 10.481 551.234 10.982 552.01 11.249 C 552.775 11.375 553.549 11.097 554.1 10.499 C 556.1 7.531 555.4 4.122 552 0.139 L 552.01 0.073 L 549.4 0.073 C 550.532 1.27 551.594 2.545 552.58 3.89 L 552.6 3.89 Z M 598.85 0.967 L 598.61 0.967 C 599.504 1.48 600.484 1.785 601.49 1.86 C 608.91 1.342 621.43 1.066 627.59 2.489 C 628.352 2.662 628.926 3.357 629.01 4.21 C 628.999 4.956 628.568 5.616 627.93 5.865 C 627.356 6.12 626.738 6.233 626.12 6.196 C 619.174 5.016 612.133 4.675 605.12 5.181 L 605.01 5.512 C 605.28 6.149 605.901 6.51 606.53 6.395 C 614.086 6.287 621.637 6.892 629.1 8.204 C 629.886 8.364 630.697 8.292 631.45 7.994 C 632.082 7.652 632.512 6.978 632.59 6.207 C 632.34 2.897 629.84 0.934 624.99 0.183 C 623.83 0.183 622.46 0.084 620.99 0.051 L 608.87 0.051 C 605.514 0.092 602.166 0.398 598.85 0.967 Z M 627.27 10.962 C 621.61 9.307 614.98 8.755 606.43 9.086 L 606.3 9.462 C 606.509 10.134 607.058 10.606 607.7 10.664 C 609.23 10.83 611.38 10.885 613.86 10.94 C 618.66 11.05 623.6 11.161 625.14 12.253 C 626.307 12.867 627.075 14.138 627.14 15.562 C 627.147 16.417 626.707 17.199 626.01 17.57 C 625.508 17.832 624.955 17.957 624.4 17.934 L 613.59 17.647 L 613.35 17.647 L 613.28 17.736 C 613.903 18.792 614.888 19.525 616.01 19.766 C 618.687 20.271 621.395 20.544 624.11 20.582 L 624.84 20.582 C 626.19 20.703 627.548 20.535 628.84 20.086 C 629.266 19.837 629.615 19.453 629.84 18.982 C 630.65 15.96 629.12 12.032 627.27 10.962 L 627.27 10.962 Z M 628.41 29.198 C 628.679 27.979 628.644 26.702 628.31 25.502 C 627.797 23.69 626.25 22.48 624.53 22.546 L 616.89 22.06 L 616.6 22.127 L 616.52 22.369 C 616.689 22.882 617.055 23.286 617.52 23.473 C 619.64 23.569 621.747 23.894 623.81 24.443 C 624.724 24.722 625.443 25.502 625.71 26.506 C 625.879 27.095 625.685 27.736 625.23 28.095 C 624.857 28.338 624.419 28.432 623.99 28.36 L 619.68 28.448 C 619.547 28.632 619.513 28.88 619.59 29.099 C 619.701 29.519 619.956 29.875 620.3 30.092 L 627.79 30.092 C 628.071 29.867 628.287 29.556 628.41 29.198 L 628.41 29.198 Z M 565.19 14.205 L 565.72 15.231 C 567.72 14.581 570.24 13.996 571.51 15.066 C 572.07 15.165 572.645 15.052 573.14 14.746 C 573.89 14.327 574.14 13.83 574.14 13.731 L 573.83 13.61 C 571.74 12.606 567.82 12.992 565.19 14.205 Z M 623.07 15.937 C 623.6 15.64 624.07 15.066 623.88 14.978 C 621.79 13.786 610.4 13.874 610.4 13.874 C 610.638 14.222 610.951 14.498 611.31 14.68 C 614.965 15.585 618.695 16.073 622.44 16.136 L 623.07 15.937 Z M 573.41 29.971 L 573.59 30.092 L 575.21 30.092 C 574.483 29.68 573.723 29.344 572.94 29.088 L 573.41 29.971 Z M 379.2 3.956 L 378.91 3.637 L 378.6 3.89 C 377.913 4.866 377.693 6.147 378.01 7.332 C 382.52 13.4 386.86 22.215 390.71 30.092 L 394.49 30.092 C 390.01 20.428 384.37 11.668 379.2 3.956 Z M 413.01 29.673 L 412.73 30.092 L 414.01 30.092 C 413.64 29.684 413.27 29.529 413.01 29.673 Z M 399.51 21.101 L 401.37 24.664 C 402.986 26.069 404.207 27.951 404.89 30.092 L 407.89 30.092 C 407.819 29.909 407.735 29.732 407.64 29.562 C 405.458 26.182 402.696 23.307 399.51 21.101 Z M 500.36 17.372 L 499.73 17.592 C 499.391 17.889 499.172 18.321 499.12 18.795 C 498.801 22.625 498.131 26.41 497.12 30.092 L 499.12 30.092 C 500.026 26.482 500.638 22.79 500.95 19.06 C 501.01 18.1 500.78 17.438 500.36 17.372 Z M 507.93 23.991 L 508.39 23.991 C 511.47 22.502 513.49 20.395 514.45 17.747 C 514.921 16.541 514.881 15.166 514.34 13.996 C 513.73 12.893 512.42 12.175 510.34 11.679 L 509.8 11.536 C 509.139 11.357 508.446 11.626 508.03 12.22 C 507.9 12.542 507.963 12.92 508.19 13.168 L 510.75 14.183 C 511.367 14.469 511.849 15.024 512.08 15.717 C 512.07 17.096 511.575 18.417 510.7 19.402 C 508.38 21.553 507.41 21.52 507.54 23.175 C 507.5 23.925 507.78 23.98 507.93 24.002 L 507.93 23.991 Z M 517.2 24.818 C 520.42 21.597 521.51 16.357 521.63 10.477 L 518.41 11.282 C 518.26 17.328 516.77 21.531 510.41 25.955 L 509.84 25.558 L 510.29 26.032 C 509.49 26.584 508.62 27.135 507.65 27.698 C 506.99 28.262 506.677 29.189 506.84 30.092 L 510.97 30.092 C 513.311 28.755 515.42 26.974 517.2 24.829 L 517.2 24.818 Z M 359.12 5.81 L 358.79 5.611 L 358.51 5.755 C 358.21 6.332 358.21 7.042 358.51 7.619 C 360.375 9.5 362.052 11.597 363.51 13.874 C 364.114 14.923 364.094 16.268 363.46 17.294 C 363.065 17.972 362.356 18.344 361.63 18.254 C 361.097 18.157 360.61 17.861 360.25 17.416 L 356.19 13.786 C 355.917 13.821 355.676 13.997 355.54 14.261 C 355.189 14.81 355.189 15.543 355.54 16.092 L 360.44 21.244 C 360.908 21.718 361.486 22.038 362.11 22.171 C 362.613 22.244 363.124 22.152 363.58 21.906 C 364.865 21.116 365.946 19.976 366.72 18.596 C 367.849 16.692 367.452 14.149 365.81 12.771 L 359.12 5.81 Z M 507.01 16.666 C 506.95 17.041 507.25 17.482 507.75 17.824 C 508.077 17.935 508.412 18.02 508.75 18.078 C 509.82 18.232 509.97 17.857 510.03 17.548 C 510.19 15.949 509.45 15.838 509.15 15.794 C 508.738 15.737 508.322 15.737 507.91 15.794 C 507.487 15.878 507.14 16.214 507.01 16.666 Z M 366.23 23.914 C 365.898 23.869 365.568 24.009 365.35 24.289 C 365.128 24.801 365.198 25.41 365.53 25.844 C 366.73 27.223 367.84 28.636 368.88 30.092 L 371.29 30.092 C 370.03 28.305 368.607 26.385 367.02 24.333 C 366.795 24.119 366.522 23.974 366.23 23.914 Z M 361.44 26.12 C 361.147 26.868 361.184 27.723 361.54 28.437 L 362.74 30.07 L 365.22 30.07 C 364.041 28.669 362.778 27.357 361.44 26.142 L 361.44 26.12 Z M 370.61 10.322 C 373.13 8.38 374.32 4.177 373.51 2.125 C 373.03 1.441 372.53 0.757 372.01 0.073 L 370.01 0.073 C 370.443 0.589 370.782 1.192 371.01 1.849 C 371.522 3.16 371.346 4.674 370.55 5.799 C 370.042 6.515 369.226 6.877 368.41 6.748 C 367.898 6.634 367.419 6.389 367.01 6.031 L 360.01 0.073 L 358.43 0.073 C 358.558 0.876 358.86 1.633 359.31 2.28 C 361.119 4.394 363.089 6.331 365.2 8.071 L 365.79 8.524 C 366.779 9.479 367.941 10.19 369.2 10.609 C 369.685 10.665 370.175 10.565 370.61 10.322 Z M 375.49 11.05 L 375.21 11.116 C 374.826 11.677 374.707 12.407 374.89 13.08 C 378.633 18.52 382.079 24.201 385.21 30.092 L 388.01 30.092 C 384.85 23.561 380.64 17.603 375.58 11.183 L 375.49 11.05 Z M 379.74 30.092 L 382.34 30.092 C 379.375 24.461 375.997 19.107 372.24 14.084 L 372.01 14.338 C 371.662 14.69 371.474 15.196 371.5 15.717 C 374.01 20.615 376.81 25.436 379.74 30.092 Z M 543.35 15.75 L 543.98 16.037 C 544.6 16.191 545.36 16.037 545.28 15.86 C 544.47 13.488 535.54 5.611 535.54 5.611 C 535.483 6.037 535.532 6.471 535.68 6.869 C 537.934 10.12 540.506 13.087 543.35 15.717 L 543.35 15.75 Z M 554.59 15.309 L 554.28 15.562 C 553.57 16.521 553.324 17.799 553.62 18.993 C 556.07 22.52 558.283 26.241 560.24 30.125 L 563.78 30.125 C 560.87 24.962 557.78 20.119 554.88 15.629 L 554.59 15.309 Z M 551.06 22.667 L 550.79 22.733 C 550.395 23.284 550.262 24.009 550.43 24.686 C 551.6 26.495 552.76 28.294 553.89 30.125 L 556.51 30.125 C 554.87 27.72 553.09 25.293 551.19 22.8 L 551.06 22.667 Z M 525.26 24.675 C 524.57 24.5 523.968 24.038 523.58 23.384 C 523.44 23.064 523.3 22.921 523.15 22.899 C 523 22.877 522.93 22.899 522.52 23.186 C 520.99 24.201 521.14 25.05 521.44 25.657 C 522.85 27.764 524.13 28.878 525.31 29.066 C 526.389 29.114 527.424 28.594 528.1 27.665 C 529.373 25.712 530.314 23.522 530.88 21.2 C 531.008 20.846 531.008 20.451 530.88 20.097 C 530.618 19.864 530.329 19.671 530.02 19.523 L 529.86 19.435 L 529.4 19.159 C 527.76 17.933 526.236 16.528 524.85 14.967 L 524.73 15.231 C 524.29 16.268 524.31 16.975 524.73 17.504 L 527.01 19.997 C 527.692 21.115 527.692 22.576 527.01 23.693 C 526.633 24.345 525.958 24.71 525.26 24.642 L 525.26 24.675 Z M 579.67 16.699 C 579.45 16.952 579.45 17.107 579.45 17.129 C 579.45 17.151 579.61 17.581 580.67 18.067 C 581.042 18.234 581.453 18.261 581.84 18.144 C 582.13 18.012 582.05 17.592 581.93 17.35 C 581.64 16.644 580.84 16.191 579.67 16.666 L 579.67 16.699 Z M 533.6 22.8 L 532.98 23.042 L 532.8 23.848 L 535.41 27.411 L 535.75 27.543 C 536.153 27.66 536.579 27.489 536.82 27.113 C 537.034 26.783 537.034 26.34 536.82 26.01 L 533.6 22.8 Z M 583.4 19.17 L 583.62 19.711 C 584.137 19.798 584.666 19.713 585.14 19.468 C 585.694 19.195 586.091 18.637 586.2 17.978 C 586.249 17.119 585.904 16.29 585.28 15.772 C 581.95 13.047 579.36 13.566 576.5 15.121 L 576.12 15.331 C 575.79 15.651 575.76 15.926 575.8 16.004 C 575.84 16.081 576.36 16.489 577.35 16.004 C 578.94 15.121 580.83 14.062 583.66 16.291 C 584.42 16.908 584.51 17.46 584.49 17.835 C 584.41 18.398 584.24 18.685 583.4 19.137 L 583.4 19.17 Z M 567.29 17.328 L 568.29 19.203 C 573.42 19.071 577.72 20.527 581.23 24.719 C 582.9 27.709 584.53 29.364 586.03 29.617 L 586.37 29.617 L 586.08 28.911 C 582.29 21.189 577.3 17.361 571.15 17.449 C 569.869 17.287 568.578 17.235 567.29 17.294 L 567.29 17.328 Z M 531.54 26.153 C 531.251 26.161 530.984 26.321 530.82 26.584 C 530.405 27.111 530.329 27.867 530.63 28.481 L 532.01 30.092 L 535.38 30.092 L 531.54 26.153 Z M 540.23 5.975 C 543.83 9.517 547.55 13.179 547.97 15.143 C 548.393 16.549 548.086 18.098 547.17 19.181 C 546.585 19.868 545.717 20.169 544.88 19.975 C 544.328 19.828 543.819 19.528 543.4 19.104 L 535.33 11.028 L 535.15 10.852 L 535.03 10.852 C 534.773 12.082 535.006 13.375 535.67 14.404 C 537.374 16.768 539.265 18.961 541.32 20.957 L 541.89 21.476 C 542.85 22.543 544.001 23.377 545.27 23.925 C 545.79 24.052 546.332 24.01 546.83 23.803 C 549.6 22.016 551.17 17.791 550.51 15.607 C 547.51 10.521 543.16 5.567 536.96 0.161 L 535.28 0.161 C 535.296 0.596 535.444 1.012 535.7 1.342 C 536.76 2.478 538.36 4.067 540.23 5.898 L 540.23 5.975 Z M 528.01 11.105 C 527.149 10.891 526.382 10.353 525.84 9.583 C 525.698 10.067 525.698 10.588 525.84 11.072 C 527.02 14.261 529.23 15.949 530.92 16.191 C 531.567 16.363 532.249 16.169 532.74 15.673 C 533.36 15 533.5 13.852 533.17 12.363 C 532.496 10.126 532.224 7.765 532.37 5.413 C 531.857 6.121 531.203 6.691 530.46 7.079 C 530.689 7.792 530.689 8.571 530.46 9.285 C 530.131 10.45 529.112 11.207 528.01 11.105 Z M 547.54 25.833 C 547.187 26.179 546.993 26.681 547.01 27.201 C 547.49 28.172 548.01 29.132 548.48 30.092 L 550.85 30.092 C 549.857 28.621 548.833 27.132 547.78 25.624 L 547.54 25.833 Z M 519.34 27.223 L 518.87 26.948 C 518.485 26.907 518.108 27.086 517.87 27.422 C 517.657 27.651 517.586 27.997 517.69 28.305 L 518.86 30.092 L 522.01 30.092 C 521.012 29.266 520.115 28.302 519.34 27.223 L 519.34 27.223 Z" style=""/>
  <rect class="cls-3" y="30.52" width="635.01" height="2.48" style=""/>
</svg>